<svg width="80" height="29" viewBox="0 0 80 29" fill="none" xmlns="http://www.w3.org/2000/svg">
<path d="M2.92041 4.05682H1.71463C1.15131 4.05682 0.693856 4.50342 0.69104 5.05614L0.486328 9.03933C0.489656 9.42252 0.805139 9.73252 1.19567 9.73634H2.2039L2.92041 4.05682Z" fill="#E6EEF8" fill-opacity="0.3"/>
<path d="M78.0958 0.162516H10.3444C8.84472 0.162516 7.6166 1.18026 6.63188 2.69881L6.26777 3.29031C6.20742 3.39712 6.14606 3.50292 6.1008 3.59261L5.81313 4.18713C3.75719 8.4566 3.01186 13.0032 2.84389 14.2557C2.82075 14.429 2.80466 14.6034 2.7956 14.7777C2.78052 15.0618 2.75336 15.5657 2.73325 15.9476C2.71513 16.2866 2.7232 16.6265 2.75738 16.9643L2.80668 17.443C2.29169 17.6707 1.29792 18.2783 1.29792 19.2809V21.133C1.29635 21.2074 1.32335 21.2796 1.37335 21.3346L1.57451 21.8505V23.2179C1.57451 24.2044 2.19612 24.6286 2.89317 24.6599C2.93812 24.6674 2.98401 24.6674 3.02896 24.6599H16.4831C16.4881 24.5692 16.5092 24.0946 16.5927 23.502H27.9718C28.0563 24.0946 28.0724 24.5692 28.0814 24.6599H53.5352C53.5402 24.5692 53.5603 24.0946 53.6438 23.502H73.1692C73.2442 23.8847 73.2983 24.2712 73.3311 24.6599H79.3863C79.5453 24.6599 79.6744 24.531 79.6749 24.3717V1.75664C79.6812 1.33407 79.5172 0.926805 79.22 0.626834C78.9229 0.326862 78.5176 0.159488 78.0958 0.162516Z" fill="#E6EEF8" fill-opacity="0.3"/>
<path d="M40.2435 23.3676C40.0642 23.3676 39.9189 23.2079 39.9189 23.0108V18.694C39.9189 18.497 40.0642 18.3372 40.2435 18.3372C40.4227 18.3372 40.568 18.497 40.568 18.694V23.0108C40.568 23.2079 40.4227 23.3676 40.2435 23.3676Z" fill="#00216A"/>
<path d="M31.6429 23.3676C31.4637 23.3676 31.3184 23.2079 31.3184 23.0108V18.694C31.3184 18.497 31.4637 18.3372 31.6429 18.3372C31.8221 18.3372 31.9674 18.497 31.9674 18.694V23.0108C31.9674 23.2079 31.8221 23.3676 31.6429 23.3676Z" fill="#00216A"/>
<path d="M18.7445 21.0954C17.3744 22.8395 17.6003 25.3075 19.2658 26.7909C20.9312 28.2743 23.4885 28.2853 25.1674 26.8163C26.8463 25.3472 27.0948 22.8813 25.7408 21.1254" fill="#E6EEF8" fill-opacity="0.3"/>
<path d="M22.1478 28.0732C20.3918 28.0742 18.787 27.093 18.0066 25.5411C17.2263 23.9892 17.4053 22.135 18.4686 20.7563C18.5428 20.6524 18.6686 20.5966 18.7966 20.6109C18.9247 20.6252 19.0346 20.7073 19.0834 20.8249C19.1323 20.9426 19.1122 21.0772 19.031 21.1759C17.8043 22.7642 18.0053 25.0126 19.4949 26.3645C20.9845 27.7164 23.2725 27.727 24.7748 26.3889C26.2771 25.0508 26.4994 22.8042 25.2878 21.2048C25.2122 21.1053 25.1961 20.9736 25.2456 20.8592C25.2951 20.7449 25.4027 20.6653 25.5278 20.6504C25.653 20.6355 25.7766 20.6876 25.8523 20.7871C26.9021 22.1688 27.0696 24.0173 26.2849 25.5607C25.5001 27.1042 23.8981 28.0771 22.1478 28.0732Z" fill="#00216A"/>
<path d="M73.9691 16.3898H27.4512C27.257 16.3898 27.0996 16.2445 27.0996 16.0652C27.0996 15.886 27.257 15.7407 27.4512 15.7407H73.9691C74.1633 15.7407 74.3207 15.886 74.3207 16.0652C74.3207 16.2445 74.1633 16.3898 73.9691 16.3898Z" fill="#00216A"/>
<path d="M79.9996 1.9612C80.0099 1.44545 79.8118 0.947488 79.4505 0.580882C79.0867 0.207628 78.588 -0.00189988 78.068 1.29833e-05H10.1971C8.69572 1.29833e-05 7.34451 0.910782 6.17769 2.71512L5.81293 3.31015L5.80588 3.32129C5.74442 3.43058 5.68093 3.54291 5.62955 3.64511L5.51569 3.87888H1.55677C0.812429 3.87941 0.207605 4.48233 0.201522 5.22985L0 9.23117V9.25343C0.00758393 9.83334 0.473537 10.3017 1.05094 10.3099H2.04344C2.2215 10.3102 2.37166 10.1768 2.39308 9.99925L2.86667 6.10723H3.80979C4.00456 6.10723 4.16245 5.94865 4.16245 5.75304C4.16245 5.55743 4.00456 5.39885 3.80979 5.39885H2.95433L3.05509 4.58928H5.17713C3.14578 8.9802 2.45657 13.5664 2.33364 14.461C2.30945 14.6421 2.29232 14.8283 2.28224 15.0146L2.21978 16.1894C2.20079 16.5478 2.20955 16.9071 2.24597 17.2642L2.27016 17.4999C1.73613 17.7823 0.778883 18.4451 0.778883 19.5552V21.4152C0.778878 21.5505 0.820789 21.6824 0.898794 21.7927L1.05396 22.1975V23.5049C1.05396 24.5432 1.68977 25.2465 2.67724 25.3052C2.71041 25.3118 2.74418 25.3149 2.77799 25.3143C2.80631 25.3143 2.8346 25.3123 2.86264 25.3083H16.3465C16.5339 25.308 16.6885 25.1611 16.6992 24.9733V24.9389C16.7143 24.6434 16.7375 24.3682 16.7657 24.1131H17.8741C18.0689 24.1131 18.2268 23.9546 18.2268 23.7589C18.2268 23.5633 18.0689 23.4048 17.8741 23.4048H16.8725C17.1536 21.8504 17.6927 21.2614 18.1431 21.2614H26.1758C26.8227 21.2614 27.2258 22.2369 27.4404 23.4048H26.5456C26.3508 23.4048 26.193 23.5633 26.193 23.7589C26.193 23.9546 26.3508 24.1131 26.5456 24.1131H27.5361C27.5673 24.3894 27.5905 24.6677 27.6046 24.9389V24.9672C27.6153 25.1551 27.77 25.302 27.9573 25.3022H53.456C53.6432 25.3019 53.7975 25.1549 53.8077 24.9672V24.9389C53.9467 22.2248 54.6692 21.2614 55.2455 21.2614H61.1159C61.7114 21.2614 62.0721 21.4294 62.2757 22.3128C62.3123 22.4738 62.4548 22.588 62.6193 22.5881H63.9866C64.1491 22.5881 64.2906 22.4765 64.3292 22.3179C64.5478 21.4243 64.8975 21.2614 65.5051 21.2614H71.2888C72.373 21.2614 72.8798 24.018 72.9322 24.9682C72.9434 25.1557 73.0979 25.302 73.2849 25.3022H79.3507C79.7048 25.3022 79.992 25.0142 79.9926 24.6586L79.9996 1.9612ZM1.72705 9.59649H1.0459C0.858755 9.5913 0.707646 9.44131 0.700292 9.25343L0.901815 5.25414V5.23694C0.906164 4.87827 1.1946 4.58859 1.55172 4.58422H2.34472L1.72705 9.59649ZM2.9241 16.2249L2.98657 15.05C2.99564 14.882 3.01075 14.715 3.03292 14.5541C3.15383 13.6545 3.86319 8.94579 5.97516 4.55082L6.04872 4.39903C6.05476 4.38689 6.0608 4.37474 6.06584 4.3626L6.26132 3.95781C6.30163 3.87686 6.36208 3.77566 6.41649 3.67547L6.77319 3.09258C6.96813 2.79004 7.18218 2.50036 7.41403 2.22533C7.78483 2.54005 8.3622 2.71613 8.7733 2.80721C7.31025 6.70834 7.17825 14.0856 7.17221 14.4145C7.17221 15.0854 7.012 17.2773 4.94941 17.2773H2.95634L2.94728 17.1903C2.91487 16.8695 2.90712 16.5468 2.9241 16.2249ZM1.53661 21.4871C1.52374 21.454 1.50609 21.4229 1.48422 21.395V19.8862C1.97128 19.9619 2.34831 20.3544 2.40609 20.846C2.46386 21.3376 2.18821 21.8076 1.73209 21.9951L1.53661 21.4871ZM79.2943 18.2761H78.337V14.2566L79.2943 13.5786V18.2761ZM79.2943 12.7154L77.7829 13.787C77.6892 13.8533 77.6335 13.9613 77.6337 14.0765V18.6303C77.6337 18.8259 77.7916 18.9845 77.9864 18.9845H79.2963V24.5999H73.6144C73.6003 24.4835 73.5821 24.3408 73.5579 24.1799H74.753C74.9477 24.1799 75.1056 24.0214 75.1056 23.8257C75.1056 23.6301 74.9477 23.4715 74.753 23.4715H73.4289C73.1549 22.1995 72.5584 20.5591 71.2978 20.5591H65.5141C64.571 20.5591 64.0249 20.9588 63.7286 21.8858H62.8984C62.6152 20.975 62.059 20.5591 61.125 20.5591H55.2526C53.6404 20.5591 53.2373 23.1771 53.1295 24.5999H28.2938C28.1931 23.1771 27.7779 20.5591 26.1708 20.5591H18.1381C16.5319 20.5591 16.1229 23.1771 16.015 24.5999H5.87943V19.4308C5.87943 19.2352 5.72154 19.0766 5.52677 19.0766C5.332 19.0766 5.17411 19.2352 5.17411 19.4308V24.5969H2.86667C2.84073 24.597 2.81482 24.5987 2.78908 24.6019L2.74575 24.5969C2.37798 24.5817 1.76232 24.4177 1.76232 23.5029V22.7288C2.60143 22.5159 3.1713 21.7339 3.11957 20.8663C3.06784 19.9987 2.40913 19.2905 1.55072 19.1798C1.77441 18.5311 2.53214 18.1466 2.7911 18.0322C2.8179 18.0201 2.84297 18.0044 2.86566 17.9857H4.95243C6.18978 17.9857 7.1057 17.3431 7.56014 16.2319H14.3777V21.2624C14.3777 21.458 14.5356 21.6166 14.7303 21.6166C14.9251 21.6166 15.083 21.458 15.083 21.2624V16.0812L23.9258 13.4025C26.6913 12.7108 29.5307 12.3617 32.3807 12.3632H60.075H60.1093L77.5702 10.6429C77.751 10.6256 77.889 10.473 77.8887 10.2907V2.55928C77.8892 2.46517 77.8522 2.37477 77.7859 2.30823C77.7197 2.24169 77.6297 2.20455 77.536 2.20509L11.0787 2.29313C10.884 2.29313 10.7261 2.4517 10.7261 2.64732C10.7261 2.84293 10.884 3.0015 11.0787 3.0015L15.8044 2.99543C14.6668 5.72774 14.422 13.784 14.3817 15.5327H7.77073C7.84399 15.1693 7.87977 14.7993 7.87753 14.4286C7.87753 14.3477 8.02263 6.32379 9.59048 2.68982C9.63439 2.58794 9.62821 2.47128 9.57378 2.37467C9.51934 2.27805 9.42295 2.21265 9.31339 2.198C8.85593 2.13627 8.20501 1.95108 7.90273 1.72744C8.62216 1.05954 9.38997 0.720532 10.1981 0.720532H78.069C78.3999 0.719215 78.7172 0.852455 78.9487 1.0899C79.1773 1.32345 79.3023 1.63984 79.2953 1.96727L79.2943 12.7154ZM15.0921 15.3374C15.1162 14.4155 15.1837 12.3733 15.346 10.1925C15.6956 5.47677 16.2055 3.66637 16.5843 2.98531L29.9322 2.9671V11.7358C27.8456 11.8779 25.7757 12.205 23.7465 12.7133H23.7303L15.0921 15.3374ZM30.6375 11.6943V2.96609L44.9457 2.94787V11.6508H32.3807C31.7997 11.6508 31.2186 11.6649 30.6375 11.6933V11.6943ZM45.651 11.6518V2.94888L59.7193 2.92965V11.6528L45.651 11.6518ZM60.4247 11.6154V2.92662L77.1803 2.90537V9.96181L60.4247 11.6154Z" fill="#00216A"/>
<path d="M22.2323 20.9333C21.1165 20.9329 20.1103 21.6047 19.683 22.6355C19.2557 23.6663 19.4915 24.853 20.2803 25.6421C21.0692 26.4313 22.2558 26.6675 23.2867 26.2406C24.3177 25.8136 24.9899 24.8077 24.9899 23.6919C24.9882 22.1694 23.7548 20.9355 22.2323 20.9333ZM21.4434 25.5858C21.4836 25.2873 21.381 24.9873 21.1665 24.7759C20.9519 24.5645 20.6504 24.4664 20.3525 24.5111C20.1261 23.9938 20.1235 23.406 20.3455 22.8868C20.3912 22.8943 20.4375 22.898 20.4838 22.8979H20.503C20.7591 22.8968 21.0039 22.7923 21.1818 22.608C21.3785 22.3874 21.4724 22.0938 21.4404 21.8C21.691 21.6942 21.9603 21.6399 22.2323 21.6404C22.5143 21.6408 22.7931 21.6992 23.0515 21.8121C23.025 22.0974 23.1196 22.3807 23.3121 22.5929C23.4873 22.7762 23.7293 22.8807 23.9828 22.8828H24C24.0375 22.8825 24.075 22.8798 24.1121 22.8747C24.3398 23.396 24.3398 23.9887 24.1121 24.51C23.8317 24.489 23.5549 24.5839 23.3465 24.7727C23.1631 24.9474 23.0584 25.1891 23.0566 25.4424C23.0557 25.4835 23.0577 25.5247 23.0626 25.5656C22.5497 25.7945 21.965 25.8018 21.4465 25.5858H21.4434Z" fill="#00216A"/>
<path d="M63.8906 23.8543H62.8436C62.6398 23.8543 62.4746 23.709 62.4746 23.5298C62.4746 23.3505 62.6398 23.2052 62.8436 23.2052H63.8906C64.0944 23.2052 64.2596 23.3505 64.2596 23.5298C64.2596 23.709 64.0944 23.8543 63.8906 23.8543Z" fill="#00216A"/>
<path d="M55.0716 21.1104C53.7182 22.8678 53.964 25.3362 55.6389 26.8095C57.3139 28.2827 59.8683 28.2772 61.5366 26.7968C63.2048 25.3164 63.4392 22.8469 62.0779 21.0954" fill="#E6EEF8" fill-opacity="0.3"/>
<path d="M58.4865 28.0732C56.7379 28.0665 55.1422 27.0872 54.3613 25.5416C53.5805 23.9961 53.7477 22.1478 54.7935 20.7635C54.8694 20.6636 54.9933 20.6113 55.1188 20.6262C55.2442 20.6412 55.352 20.7211 55.4017 20.8358C55.4513 20.9506 55.4352 21.0828 55.3594 21.1826C54.4107 22.4377 54.3206 24.1336 55.1311 25.4799C55.9416 26.8261 57.4931 27.5577 59.0625 27.3337C60.4347 27.1382 61.6003 26.2411 62.1277 24.9745C62.6551 23.7079 62.4658 22.2603 61.6299 21.1677C61.5127 21.0133 61.5444 20.7944 61.7006 20.6786C61.8568 20.5629 62.0785 20.5941 62.1957 20.7485C63.2498 22.1357 63.4195 23.9924 62.634 25.5437C61.8484 27.0951 60.2426 28.0745 58.4865 28.0732Z" fill="#00216A"/>
<path d="M58.5799 20.9333C57.0564 20.9333 55.8213 22.1684 55.8213 23.6919C55.8213 25.2155 57.0564 26.4505 58.5799 26.4505C60.1035 26.4505 61.3385 25.2155 61.3385 23.6919C61.3369 22.1691 60.1028 20.935 58.5799 20.9333ZM57.792 25.5859C57.8268 25.3315 57.7576 25.0739 57.6 24.8712C57.4424 24.6685 57.2097 24.538 56.9546 24.5091C56.8705 24.4974 56.7852 24.4974 56.7011 24.5091C56.4747 23.9919 56.4721 23.404 56.694 22.8848C56.7358 22.8913 56.778 22.8947 56.8203 22.8949C57.3097 22.902 57.7243 22.536 57.7779 22.0495C57.7887 21.9673 57.7887 21.8841 57.7779 21.802C58.2967 21.5811 58.8836 21.584 59.4001 21.8101C59.3736 22.0954 59.4682 22.3787 59.6607 22.5909C59.8363 22.7737 60.078 22.8782 60.3314 22.8808H60.3486C60.3861 22.8805 60.4236 22.8778 60.4607 22.8727C60.6884 23.3941 60.6884 23.9867 60.4607 24.5081C60.18 24.4871 59.903 24.582 59.6941 24.7707C59.5114 24.9459 59.4072 25.1874 59.4052 25.4404C59.4043 25.4816 59.4063 25.5228 59.4112 25.5637C58.8983 25.7926 58.3136 25.7999 57.7951 25.5839L57.792 25.5859Z" fill="#00216A"/>
<path d="M49.1683 23.3676C49.0821 23.3679 48.9995 23.3304 48.9385 23.2634C48.8776 23.1964 48.8435 23.1055 48.8438 23.0108V18.694C48.8438 18.497 48.9891 18.3372 49.1683 18.3372C49.3475 18.3372 49.4928 18.497 49.4928 18.694V23.0108C49.4928 23.2079 49.3475 23.3676 49.1683 23.3676Z" fill="#00216A"/>
</svg>
