<svg width="180" height="29" viewBox="0 0 180 29" fill="none" xmlns="http://www.w3.org/2000/svg">
<path d="M65.3663 23.6805H62.8081V23.22H63.8344C63.9287 23.2203 64.0192 23.183 64.0859 23.1164C64.1526 23.0497 64.19 22.9593 64.1897 22.8651V21.6318C64.1897 21.4358 64.0306 21.2768 63.8344 21.2768H62.8081V21.0355C62.8081 20.8394 62.649 20.6805 62.4528 20.6805C62.2566 20.6805 62.0975 20.8394 62.0975 21.0355V21.2768H49.6538V21.0355C49.6538 20.8394 49.4947 20.6805 49.2985 20.6805C49.1022 20.6805 48.9432 20.8394 48.9432 21.0355V21.2768H47.6996C47.5034 21.2768 47.3443 21.4358 47.3443 21.6318V22.861C47.3443 23.0571 47.5034 23.216 47.6996 23.216H48.9432V23.6805H46.1434C46.0491 23.6802 45.9585 23.7175 45.8919 23.7842C45.8252 23.8508 45.7878 23.9412 45.7881 24.0354V25.1622C45.7881 25.3583 45.9472 25.5172 46.1434 25.5172H47.6265V26.0456C47.6265 26.2416 47.7856 26.4006 47.9818 26.4006H48.1849V27.7373C48.1849 27.9333 48.3439 28.0922 48.5402 28.0922C48.7364 28.0922 48.8955 27.9333 48.8955 27.7373V26.3965H49.1594V27.7373C49.1594 27.9333 49.3185 28.0922 49.5147 28.0922C49.7109 28.0922 49.87 27.9333 49.87 27.7373V26.3965H50.1025C50.2987 26.3965 50.4578 26.2376 50.4578 26.0415V25.5131H61.0864V26.0415C61.0864 26.2376 61.2455 26.3965 61.4417 26.3965H61.665V27.7373C61.665 27.9333 61.8241 28.0922 62.0203 28.0922C62.2166 28.0922 62.3756 27.9333 62.3756 27.7373V26.3965H62.6396V27.7373C62.6396 27.9333 62.7986 28.0922 62.9949 28.0922C63.1911 28.0922 63.3502 27.9333 63.3502 27.7373V26.3965H63.5532C63.7494 26.3965 63.9085 26.2376 63.9085 26.0415V25.5131H65.3622C65.5584 25.5131 65.7175 25.3542 65.7175 25.1582V24.0314C65.7158 23.8383 65.5596 23.6821 65.3663 23.6805ZM48.3392 25.788V25.577H49.7441V25.788H48.3392ZM61.797 25.788V25.577H63.1979V25.788H61.797ZM48.0549 22.506V21.9868H63.4791V22.506H48.0549ZM62.0975 23.216V23.6805H49.6538V23.22L62.0975 23.216ZM65.011 24.8032H46.5007V24.3904H65.011V24.8032Z" fill="#00216A"/>
<path d="M64.0435 17.5539H62.7529V16.7656C62.7529 16.5627 62.5932 16.3983 62.3961 16.3983C62.1991 16.3983 62.0393 16.5627 62.0393 16.7656V17.5539H49.5436V16.7656C49.5436 16.5627 49.3839 16.3983 49.1869 16.3983C48.9898 16.3983 48.8301 16.5627 48.8301 16.7656V17.5539H47.7923C47.5953 17.5539 47.4355 17.7184 47.4355 17.9213V20.1485C47.4355 20.3514 47.5953 20.5159 47.7923 20.5159H64.0435C64.2405 20.5159 64.4003 20.3514 64.4003 20.1485V17.9213C64.4003 17.7184 64.2405 17.5539 64.0435 17.5539ZM63.6867 19.7812H48.145V18.2886H63.6867V19.7812Z" fill="#00216A"/>
<path d="M50.8593 19.3631H49.1172C48.916 19.3631 48.7529 19.2156 48.7529 19.0337C48.7529 18.8518 48.916 18.7043 49.1172 18.7043H50.8593C51.0604 18.7043 51.2235 18.8518 51.2235 19.0337C51.2235 19.2156 51.0604 19.3631 50.8593 19.3631Z" fill="#00216A"/>
<path d="M52.7191 19.3631H52.5283C52.3536 19.3631 52.2119 19.2156 52.2119 19.0337C52.2119 18.8518 52.3536 18.7043 52.5283 18.7043H52.7191C52.8938 18.7043 53.0354 18.8518 53.0354 19.0337C53.0354 19.2156 52.8938 19.3631 52.7191 19.3631Z" fill="#00216A"/>
<path d="M179.2 28.4219H60.9413C60.5773 28.4219 60.2822 28.2744 60.2822 28.0924C60.2822 27.9105 60.5773 27.763 60.9413 27.763H179.2C179.564 27.763 179.859 27.9105 179.859 28.0924C179.859 28.2744 179.564 28.4219 179.2 28.4219Z" fill="#00216A"/>
<path d="M72.5274 6.84559H39.6326C39.3936 6.84616 39.2002 7.04009 39.2002 7.27911V8.95476C39.2002 9.19379 39.3936 9.38771 39.6326 9.38828H41.1366V23.2403H40.6714C40.4734 23.2403 40.3128 23.4009 40.3128 23.599V28.0634C40.3128 28.2615 40.4734 28.4221 40.6714 28.4221H42.3927C42.5907 28.4221 42.7512 28.2615 42.7512 28.0634V24.9088H46.1865C46.3741 24.8946 46.519 24.7383 46.519 24.5501C46.519 24.362 46.3741 24.2056 46.1865 24.1914H42.7523V23.6031C42.7523 23.405 42.5917 23.2444 42.3937 23.2444H41.8538V9.38828H70.3062V23.2444H69.8042C69.6062 23.2444 69.4456 23.405 69.4456 23.6031V24.1914H65.5155C65.3174 24.1914 65.1569 24.352 65.1569 24.5501C65.1569 24.7482 65.3174 24.9088 65.5155 24.9088H69.4456V28.0634C69.4456 28.2615 69.6062 28.4221 69.8042 28.4221H71.5295C71.7276 28.4221 71.8881 28.2615 71.8881 28.0634V23.6031C71.8881 23.405 71.7276 23.2444 71.5295 23.2444H71.0275V9.38828H72.5315C72.7706 9.38772 72.9643 9.19395 72.9649 8.95476V7.27911C72.9646 7.16351 72.9183 7.05277 72.8362 6.97141C72.7541 6.89005 72.643 6.84477 72.5274 6.84559ZM71.1668 27.7046H70.1628V23.9618H71.1668V27.7046ZM42.0351 23.9618V27.7046H41.031V23.9618H42.0351ZM72.2467 8.67088H39.9174V7.563H72.2467V8.67088Z" fill="#00216A"/>
<path d="M38.3382 3.30077H33.8393C33.8393 3.20865 33.8394 3.08173 33.8446 2.9026C33.8446 2.67229 33.8519 2.36726 33.855 2.2649C34.0725 1.57171 34.7385 1.10923 35.477 1.13855C36.2155 1.16786 36.8413 1.68162 37.001 2.38978C37.0506 2.57607 37.2414 2.69056 37.433 2.64899C37.6246 2.60742 37.7485 2.42467 37.7134 2.23521C37.4795 1.20008 36.5587 0.453308 35.4787 0.42284C34.3986 0.392373 33.4356 1.086 33.1415 2.10624C33.1238 2.16766 33.1238 2.16765 33.1144 2.89338C33.1144 3.02952 33.1144 3.18511 33.1081 3.30282H32.4823C32.2806 3.30282 32.1172 3.46322 32.1172 3.66108C32.1172 3.85894 32.2806 4.01934 32.4823 4.01934H33.2041L34.1429 6.33676C33.9413 6.34835 33.7874 6.51814 33.7992 6.716C33.811 6.91387 33.984 7.06487 34.1857 7.05328H34.9784V8.71048H34.7854C34.5838 8.71048 34.4204 8.87088 34.4204 9.06874C34.4204 9.2666 34.5838 9.427 34.7854 9.427H34.9784V21.314H34.5539C34.3615 21.3136 34.202 21.4603 34.1898 21.6487L33.7726 28.0411C33.7659 28.1399 33.8013 28.2369 33.8703 28.3091C33.9394 28.3812 34.0358 28.4221 34.1366 28.4219H36.6943C36.7954 28.4218 36.8919 28.3807 36.961 28.3084C37.0301 28.2361 37.0657 28.139 37.0594 28.0401L36.6422 21.6467C36.6295 21.4585 36.4703 21.3121 36.2781 21.312H35.7169V9.42086H35.9777C36.1793 9.42086 36.3428 9.26046 36.3428 9.0626C36.3428 8.86474 36.1793 8.70434 35.9777 8.70434H35.7075V7.04714H36.6933C36.8949 7.04714 37.0584 6.88674 37.0584 6.68888C37.0584 6.49102 36.8949 6.33062 36.6933 6.33062H36.6808L37.6196 4.01729H38.3403C38.542 4.01729 38.7054 3.85689 38.7054 3.65903C38.7054 3.46117 38.542 3.30077 38.3403 3.30077H38.3382ZM35.9287 22.0326L36.3021 27.7084H35.7096V25.2211C35.7096 25.0232 35.5462 24.8628 35.3445 24.8628C35.1429 24.8628 34.9795 25.0232 34.9795 25.2211V27.7084H34.5236L34.8971 22.0326H35.9287ZM35.9203 6.27535H34.9054L34.0052 4.04902H36.8216L35.9203 6.27535Z" fill="#00216A"/>
<path d="M35.2474 23.8104C35.0655 23.8104 34.918 23.6686 34.918 23.4937V23.3036C34.918 23.1287 35.0655 22.9869 35.2474 22.9869C35.4293 22.9869 35.5768 23.1287 35.5768 23.3036V23.4937C35.577 23.5777 35.5424 23.6584 35.4806 23.7179C35.4188 23.7774 35.3348 23.8106 35.2474 23.8104Z" fill="#00216A"/>
<path d="M64.3473 16.0691C64.2504 16.0701 64.1571 16.0323 64.0881 15.9641L59.7299 11.5924C59.5864 11.4475 59.5876 11.2136 59.7325 11.0701C59.8774 10.9266 60.1111 10.9278 60.2546 11.0727L64.6202 15.4392C64.7261 15.5445 64.758 15.7033 64.701 15.8414C64.6439 15.9794 64.5092 16.0694 64.3599 16.0691H64.3473Z" fill="#00216A"/>
<path d="M59.5918 14.7491C59.497 14.7497 59.4057 14.7128 59.3378 14.6465L56.5991 11.9049C56.4591 11.7648 56.4591 11.5376 56.5991 11.3974C56.7391 11.2573 56.9661 11.2573 57.1061 11.3974L59.8468 14.1359C59.9501 14.2386 59.9813 14.3935 59.9259 14.5282C59.8705 14.663 59.7394 14.751 59.5939 14.7511L59.5918 14.7491Z" fill="#00216A"/>
<path d="M66.6747 14.746C66.58 14.747 66.4888 14.7101 66.4215 14.6436L63.6812 11.9044C63.5412 11.7644 63.5412 11.5373 63.6812 11.3973C63.8213 11.2573 64.0484 11.2573 64.1885 11.3973L66.9288 14.1365C67.0322 14.2392 67.0634 14.3942 67.0077 14.5289C66.952 14.6636 66.8205 14.7514 66.6747 14.7511V14.746Z" fill="#00216A"/>
<path d="M65.6887 28.2569H0.358395C0.160459 28.2569 0 28.1095 0 27.9275C0 27.7456 0.160459 27.5981 0.358395 27.5981H65.6887C65.8866 27.5981 66.0471 27.7456 66.0471 27.9275C66.0471 28.1095 65.8866 28.2569 65.6887 28.2569Z" fill="#00216A"/>
</svg>
