<svg width="123" height="123" viewBox="0 0 123 123" fill="none" xmlns="http://www.w3.org/2000/svg">
<g opacity="0.6" filter="url(#filter0_ddf_1_5121)">
<circle cx="61" cy="62" r="12" fill="white"/>
<circle cx="61" cy="62" r="8.5" stroke="#78B6F4" stroke-width="7"/>
</g>
<g opacity="0.5" filter="url(#filter1_ddf_1_5121)">
<circle cx="61.5" cy="61.5" r="25" stroke="#78B6F4" stroke-width="3" shape-rendering="crispEdges"/>
</g>
<path d="M88.8092 54.0425H89.7135C90.136 54.0425 90.4791 54.3774 90.4812 54.792L90.6348 57.7794C90.6323 58.0668 90.3957 58.2993 90.1028 58.3021H89.3466L88.8092 54.0425Z" fill="#78B6F4" fill-opacity="0.3"/>
<g filter="url(#filter2_f_1_5121)">
<path d="M32.4279 51.1216H83.2414C84.3662 51.1216 85.2873 51.8849 86.0258 53.0238L86.2989 53.4675C86.3442 53.5476 86.3902 53.6269 86.4242 53.6942L86.6399 54.1401C88.1819 57.3422 88.7409 60.7521 88.8668 61.6915C88.8842 61.8215 88.8963 61.9522 88.9031 62.083C88.9144 62.2961 88.9347 62.674 88.9498 62.9604C88.9634 63.2147 88.9574 63.4696 88.9317 63.723L88.8947 64.0819C89.281 64.2527 90.0263 64.7085 90.0263 65.4604V66.8495C90.0275 66.9053 90.0072 66.9594 89.9697 67.0006L89.8189 67.3876V68.4131C89.8189 69.153 89.3527 69.4712 88.8299 69.4946C88.7962 69.5003 88.7617 69.5003 88.728 69.4946H78.6374C78.6337 69.4266 78.6178 69.0706 78.5552 68.6263H70.0209C69.9576 69.0706 69.9455 69.4266 69.9387 69.4946H50.8484C50.8446 69.4266 50.8295 69.0706 50.7669 68.6263H36.1229C36.0666 68.9133 36.026 69.2032 36.0014 69.4946H31.46C31.3408 69.4946 31.244 69.398 31.2435 69.2785V52.3172C31.2389 52.0003 31.3619 51.6948 31.5847 51.4699C31.8076 51.2449 32.1115 51.1193 32.4279 51.1216Z" fill="#78B6F4" fill-opacity="0.3"/>
</g>
<path d="M60.8174 68.5253C60.9518 68.5253 61.0608 68.4054 61.0608 68.2576V65.0201C61.0608 64.8723 60.9518 64.7524 60.8174 64.7524C60.683 64.7524 60.574 64.8723 60.574 65.0201V68.2576C60.574 68.4054 60.683 68.5253 60.8174 68.5253Z" fill="#00216A"/>
<path d="M67.2678 68.5253C67.4023 68.5253 67.5112 68.4054 67.5112 68.2576V65.0201C67.5112 64.8723 67.4023 64.7524 67.2678 64.7524C67.1334 64.7524 67.0244 64.8723 67.0244 65.0201V68.2576C67.0244 68.4054 67.1334 68.5253 67.2678 68.5253Z" fill="#00216A"/>
<path d="M76.9414 66.8213C77.9689 68.1294 77.7995 69.9804 76.5504 71.0929C75.3014 72.2055 73.3834 72.2137 72.1242 71.112C70.865 70.0102 70.6786 68.1607 71.6941 66.8438" fill="#78B6F4" fill-opacity="0.3"/>
<path d="M74.3891 72.0544C75.7062 72.0552 76.9098 71.3192 77.495 70.1553C78.0803 68.9914 77.946 67.6007 77.1486 66.5667C77.0929 66.4888 76.9986 66.447 76.9025 66.4577C76.8065 66.4684 76.724 66.53 76.6874 66.6182C76.6508 66.7065 76.6659 66.8074 76.7267 66.8815C77.6468 68.0726 77.496 69.759 76.3788 70.7729C75.2617 71.7868 73.5456 71.7947 72.4189 70.7912C71.2922 69.7876 71.1255 68.1027 72.0342 66.9031C72.0909 66.8285 72.103 66.7297 72.0658 66.6439C72.0287 66.5582 71.948 66.4984 71.8541 66.4873C71.7603 66.4761 71.6675 66.5152 71.6108 66.5898C70.8234 67.6261 70.6978 69.0125 71.2863 70.17C71.8749 71.3276 73.0764 72.0573 74.3891 72.0544Z" fill="#00216A"/>
<path d="M35.5234 63.292H70.4118C70.5575 63.292 70.6755 63.183 70.6755 63.0486C70.6755 62.9142 70.5575 62.8052 70.4118 62.8052H35.5234C35.3778 62.8052 35.2597 62.9142 35.2597 63.0486C35.2597 63.183 35.3778 63.292 35.5234 63.292Z" fill="#00216A"/>
<path d="M31.0003 52.4709C30.9925 52.0841 31.1411 51.7106 31.4122 51.4357C31.685 51.1557 32.059 50.9986 32.449 51H83.3522C84.4782 51 85.4916 51.6831 86.3667 53.0363L86.6403 53.4826L86.6456 53.491C86.6917 53.5729 86.7393 53.6572 86.7778 53.7338L86.8632 53.9092H89.8324C90.3907 53.9096 90.8443 54.3617 90.8489 54.9224L91 57.9234V57.9401C90.9943 58.375 90.6448 58.7263 90.2118 58.7324H89.4674C89.3339 58.7326 89.2213 58.6326 89.2052 58.4994L88.85 55.5804H88.1427C87.9966 55.5804 87.8782 55.4615 87.8782 55.3148C87.8782 55.1681 87.9966 55.0491 88.1427 55.0491H88.7843L88.7087 54.442H87.1172C88.6407 57.7351 89.1576 61.1748 89.2498 61.8458C89.2679 61.9816 89.2808 62.1213 89.2883 62.2609L89.3352 63.1421C89.3494 63.4109 89.3428 63.6803 89.3155 63.9481L89.2974 64.1249C89.6979 64.3367 90.4158 64.8338 90.4158 65.6664V67.0614C90.4158 67.1629 90.3844 67.2618 90.3259 67.3445L90.2095 67.6481V68.6287C90.2095 69.4074 89.7327 69.9349 88.9921 69.9789C88.9672 69.9839 88.9419 69.9862 88.9165 69.9858C88.8953 69.9857 88.8741 69.9842 88.853 69.9812H78.7401C78.5996 69.981 78.4836 69.8709 78.4756 69.73V69.7042C78.4643 69.4826 78.4469 69.2761 78.4257 69.0848H77.5944C77.4484 69.0848 77.3299 68.9659 77.3299 68.8192C77.3299 68.6725 77.4484 68.5536 77.5944 68.5536H78.3456C78.1348 67.3878 77.7305 66.9461 77.3927 66.9461H71.3681C70.883 66.9461 70.5807 67.6777 70.4197 68.5536H71.0908C71.2369 68.5536 71.3553 68.6725 71.3553 68.8192C71.3553 68.9659 71.2369 69.0848 71.0908 69.0848H70.3479C70.3245 69.292 70.3071 69.5008 70.2965 69.7042V69.7254C70.2885 69.8663 70.1725 69.9765 70.032 69.9766H50.908C50.7676 69.9764 50.6519 69.8662 50.6443 69.7254V69.7042C50.54 67.6686 49.9981 66.9461 49.5659 66.9461H45.1631C44.7165 66.9461 44.4459 67.072 44.2933 67.7346C44.2658 67.8554 44.1589 67.941 44.0356 67.9411H43.0101C42.8881 67.9411 42.782 67.8574 42.7531 67.7384C42.5891 67.0683 42.3269 66.9461 41.8712 66.9461H37.5334C36.7203 66.9461 36.3401 69.0135 36.3008 69.7262C36.2925 69.8668 36.1766 69.9765 36.0364 69.9766H31.487C31.2214 69.9766 31.006 69.7607 31.0056 69.4939L31.0003 52.4709ZM89.7047 58.1974H90.2156C90.3559 58.1935 90.4693 58.081 90.4748 57.9401L90.3236 54.9406V54.9277C90.3204 54.6587 90.104 54.4414 89.8362 54.4382H89.2415L89.7047 58.1974ZM88.8069 63.1686L88.7601 62.2875C88.7533 62.1615 88.7419 62.0363 88.7253 61.9156C88.6346 61.2408 88.1026 57.7093 86.5186 54.4131L86.4635 54.2993C86.4589 54.2902 86.4544 54.2811 86.4506 54.2719L86.304 53.9684C86.2738 53.9076 86.2284 53.8317 86.1876 53.7566L85.9201 53.3194C85.7739 53.0925 85.6134 52.8753 85.4395 52.669C85.1614 52.905 84.7284 53.0371 84.42 53.1054C85.5173 56.0313 85.6163 61.5642 85.6208 61.8108C85.6208 62.314 85.741 63.958 87.2879 63.958H88.7827L88.7895 63.8927C88.8138 63.6522 88.8197 63.4101 88.8069 63.1686ZM89.8475 67.1153C89.8572 67.0905 89.8704 67.0672 89.8868 67.0462V65.9146C89.5215 65.9714 89.2388 66.2658 89.1954 66.6345C89.1521 67.0032 89.3588 67.3557 89.7009 67.4963L89.8475 67.1153ZM31.5293 64.7071H32.2472V61.6924L31.5293 61.1839V64.7071ZM31.5293 60.5365L32.6629 61.3403C32.7331 61.39 32.7749 61.471 32.7747 61.5573V64.9727C32.7747 65.1194 32.6563 65.2384 32.5102 65.2384H31.5278V69.4499H35.7892C35.7998 69.3626 35.8134 69.2556 35.8316 69.1349H34.9353C34.7892 69.1349 34.6708 69.016 34.6708 68.8693C34.6708 68.7226 34.7892 68.6037 34.9353 68.6037H35.9283C36.1338 67.6496 36.5812 66.4193 37.5266 66.4193H41.8644C42.5717 66.4193 42.9813 66.7191 43.2035 67.4143H43.8262C44.0386 66.7313 44.4557 66.4193 45.1563 66.4193H49.5606C50.7697 66.4193 51.072 68.3828 51.1529 69.4499H69.7796C69.8552 68.3828 70.1665 66.4193 71.3719 66.4193H77.3964C78.601 66.4193 78.9079 68.3828 78.9887 69.4499H86.5904V65.5731C86.5904 65.4264 86.7088 65.3074 86.8549 65.3074C87.001 65.3074 87.1194 65.4264 87.1194 65.5731V69.4476H88.85C88.8695 69.4477 88.8889 69.449 88.9082 69.4514L88.9407 69.4476C89.2165 69.4363 89.6783 69.3133 89.6783 68.6272V68.0466C89.0489 67.8869 88.6215 67.3005 88.6603 66.6497C88.6991 65.999 89.1932 65.4679 89.837 65.3848C89.6692 64.8983 89.1009 64.6099 88.9067 64.5242C88.8866 64.5151 88.8678 64.5033 88.8508 64.4893H87.2857C86.3577 64.4893 85.6707 64.0073 85.3299 63.174H80.2168V66.9468C80.2168 67.0935 80.0983 67.2125 79.9523 67.2125C79.8062 67.2125 79.6878 67.0935 79.6878 66.9468V63.0609L73.0556 61.0519C70.9815 60.5331 68.8519 60.2713 66.7145 60.2724H45.9437H45.918L32.8223 58.9821C32.6868 58.9692 32.5833 58.8548 32.5835 58.718V52.9195C32.5831 52.8489 32.6108 52.7811 32.6605 52.7312C32.7102 52.6813 32.7777 52.6534 32.848 52.6538L82.6909 52.7198C82.837 52.7198 82.9555 52.8388 82.9555 52.9855C82.9555 53.1322 82.837 53.2511 82.6909 53.2511L79.1467 53.2466C79.9999 55.2958 80.1835 61.338 80.2137 62.6495H85.1719C85.117 62.377 85.0902 62.0995 85.0919 61.8215C85.0919 61.7607 84.983 55.7428 83.8071 53.0174C83.7742 52.941 83.7788 52.8535 83.8197 52.781C83.8605 52.7085 83.9328 52.6595 84.015 52.6485C84.3581 52.6022 84.8462 52.4633 85.073 52.2956C84.5334 51.7947 83.9575 51.5404 83.3514 51.5404H32.4482C32.2001 51.5394 31.9621 51.6393 31.7885 51.8174C31.617 51.9926 31.5233 52.2299 31.5285 52.4755L31.5293 60.5365ZM79.681 62.503C79.6628 61.8116 79.6122 60.28 79.4905 58.6444C79.2283 55.1076 78.8459 53.7498 78.5617 53.239L68.5508 53.2253V59.8018C70.1158 59.9084 71.6682 60.1538 73.1901 60.535H73.2022L79.681 62.503ZM68.0218 59.7707V53.2246L57.2907 53.2109V59.7381H66.7145C67.1503 59.7381 67.586 59.7487 68.0218 59.77V59.7707ZM56.7617 59.7388V53.2117L46.2105 53.1972V59.7396L56.7617 59.7388ZM45.6815 59.7115V53.195L33.1148 53.179V58.4714L45.6815 59.7115Z" fill="#00216A"/>
<path d="M74.3258 66.6997C75.1626 66.6994 75.9173 67.2033 76.2377 67.9764C76.5582 68.7495 76.3814 69.6395 75.7897 70.2313C75.1981 70.8232 74.3081 71.0003 73.5349 70.6802C72.7617 70.36 72.2576 69.6055 72.2576 68.7686C72.2588 67.6268 73.1839 66.7014 74.3258 66.6997ZM74.9174 70.1891C74.8873 69.9652 74.9642 69.7402 75.1252 69.5817C75.2861 69.4231 75.5122 69.3496 75.7356 69.383C75.9054 68.9951 75.9073 68.5542 75.7409 68.1649C75.7066 68.1705 75.6719 68.1732 75.6371 68.1732H75.6227C75.4306 68.1723 75.2471 68.0939 75.1136 67.9558C74.9661 67.7903 74.8957 67.5701 74.9197 67.3497C74.7317 67.2704 74.5298 67.2297 74.3258 67.23C74.1143 67.2303 73.9052 67.2742 73.7114 67.3588C73.7313 67.5728 73.6603 67.7853 73.5159 67.9444C73.3845 68.0819 73.203 68.1603 73.0129 68.1618H73C72.9719 68.1616 72.9438 68.1596 72.9159 68.1558C72.7452 68.5468 72.7452 68.9913 72.9159 69.3823C73.1262 69.3665 73.3338 69.4377 73.4901 69.5792C73.6277 69.7103 73.7062 69.8915 73.7076 70.0815C73.7082 70.1124 73.7067 70.1433 73.703 70.1739C74.0878 70.3456 74.5262 70.3511 74.9151 70.1891H74.9174Z" fill="#00216A"/>
<path d="M43.0821 68.8901H43.8673C44.0201 68.8901 44.144 68.7812 44.144 68.6467C44.144 68.5123 44.0201 68.4033 43.8673 68.4033H43.0821C42.9292 68.4033 42.8053 68.5123 42.8053 68.6467C42.8053 68.7812 42.9292 68.8901 43.0821 68.8901Z" fill="#00216A"/>
<path d="M49.6968 66.8326C50.7118 68.1506 50.5275 70.002 49.2713 71.1069C48.0151 72.2118 46.0992 72.2077 44.8481 71.0974C43.5969 69.987 43.4211 68.1349 44.4421 66.8213" fill="#78B6F4" fill-opacity="0.3"/>
<path d="M47.1349 72.0544C48.4464 72.0494 49.6431 71.3149 50.2288 70.1557C50.8144 68.9965 50.689 67.6104 49.9046 66.5721C49.8477 66.4972 49.7548 66.458 49.6607 66.4692C49.5666 66.4804 49.4857 66.5403 49.4485 66.6264C49.4113 66.7124 49.4234 66.8116 49.4802 66.8865C50.1917 67.8278 50.2593 69.0997 49.6514 70.1094C49.0436 71.1191 47.8799 71.6678 46.7029 71.4998C45.6737 71.3531 44.7995 70.6803 44.404 69.7304C44.0084 68.7804 44.1504 67.6947 44.7774 66.8753C44.8652 66.7595 44.8415 66.5953 44.7243 66.5085C44.6071 66.4217 44.4409 66.4451 44.353 66.5609C43.5624 67.6013 43.4351 68.9938 44.0243 70.1573C44.6135 71.3208 45.8178 72.0554 47.1349 72.0544Z" fill="#00216A"/>
<path d="M47.0648 66.6997C48.2075 66.6997 49.1338 67.626 49.1338 68.7687C49.1338 69.9113 48.2075 70.8376 47.0648 70.8376C45.9222 70.8376 44.9959 69.9113 44.9959 68.7687C44.9971 67.6265 45.9227 66.701 47.0648 66.6997ZM47.6557 70.1891C47.6296 69.9984 47.6816 69.8051 47.7998 69.6531C47.918 69.5011 48.0925 69.4032 48.2838 69.3816C48.3469 69.3728 48.4109 69.3728 48.4739 69.3816C48.6438 68.9936 48.6457 68.5528 48.4792 68.1634C48.4479 68.1682 48.4162 68.1708 48.3845 68.1709C48.0175 68.1763 47.7065 67.9017 47.6663 67.5368C47.6582 67.4752 47.6582 67.4128 47.6663 67.3512C47.2773 67.1856 46.8371 67.1877 46.4497 67.3573C46.4696 67.5713 46.3986 67.7838 46.2542 67.9429C46.1225 68.08 45.9413 68.1584 45.7512 68.1603H45.7383C45.7102 68.1601 45.6821 68.1581 45.6542 68.1543C45.4835 68.5453 45.4835 68.9898 45.6542 69.3808C45.8647 69.3651 46.0725 69.4362 46.2292 69.5778C46.3662 69.7091 46.4443 69.8903 46.4459 70.0801C46.4465 70.1109 46.445 70.1418 46.4413 70.1725C46.8261 70.3442 47.2646 70.3496 47.6535 70.1876L47.6557 70.1891Z" fill="#00216A"/>
<path d="M54.1238 68.5253C54.1884 68.5255 54.2504 68.4973 54.2961 68.4471C54.3418 68.3969 54.3674 68.3287 54.3672 68.2576V65.0201C54.3672 64.8723 54.2582 64.7524 54.1238 64.7524C53.9893 64.7524 53.8804 64.8723 53.8804 65.0201V68.2576C53.8804 68.4054 53.9893 68.5253 54.1238 68.5253Z" fill="#00216A"/>
<defs>
<filter id="filter0_ddf_1_5121" x="33.5417" y="34.5417" width="54.9167" height="54.9167" filterUnits="userSpaceOnUse" color-interpolation-filters="sRGB">
<feFlood flood-opacity="0" result="BackgroundImageFix"/>
<feColorMatrix in="SourceAlpha" type="matrix" values="0 0 0 0 0 0 0 0 0 0 0 0 0 0 0 0 0 0 127 0" result="hardAlpha"/>
<feOffset dx="4.41667" dy="4.41667"/>
<feGaussianBlur stdDeviation="5.52083"/>
<feComposite in2="hardAlpha" operator="out"/>
<feColorMatrix type="matrix" values="0 0 0 0 1 0 0 0 0 1 0 0 0 0 1 0 0 0 0.2 0"/>
<feBlend mode="normal" in2="BackgroundImageFix" result="effect1_dropShadow_1_5121"/>
<feColorMatrix in="SourceAlpha" type="matrix" values="0 0 0 0 0 0 0 0 0 0 0 0 0 0 0 0 0 0 127 0" result="hardAlpha"/>
<feOffset dx="-4.41667" dy="-4.41667"/>
<feGaussianBlur stdDeviation="5.52083"/>
<feComposite in2="hardAlpha" operator="out"/>
<feColorMatrix type="matrix" values="0 0 0 0 1 0 0 0 0 1 0 0 0 0 1 0 0 0 0.2 0"/>
<feBlend mode="normal" in2="effect1_dropShadow_1_5121" result="effect2_dropShadow_1_5121"/>
<feBlend mode="normal" in="SourceGraphic" in2="effect2_dropShadow_1_5121" result="shape"/>
<feGaussianBlur stdDeviation="3" result="effect3_foregroundBlur_1_5121"/>
</filter>
<filter id="filter1_ddf_1_5121" x="0.862849" y="0.862849" width="121.274" height="121.274" filterUnits="userSpaceOnUse" color-interpolation-filters="sRGB">
<feFlood flood-opacity="0" result="BackgroundImageFix"/>
<feColorMatrix in="SourceAlpha" type="matrix" values="0 0 0 0 0 0 0 0 0 0 0 0 0 0 0 0 0 0 127 0" result="hardAlpha"/>
<feOffset dx="9.75347" dy="9.75347"/>
<feGaussianBlur stdDeviation="12.1918"/>
<feComposite in2="hardAlpha" operator="out"/>
<feColorMatrix type="matrix" values="0 0 0 0 1 0 0 0 0 1 0 0 0 0 1 0 0 0 0.2 0"/>
<feBlend mode="normal" in2="BackgroundImageFix" result="effect1_dropShadow_1_5121"/>
<feColorMatrix in="SourceAlpha" type="matrix" values="0 0 0 0 0 0 0 0 0 0 0 0 0 0 0 0 0 0 127 0" result="hardAlpha"/>
<feOffset dx="-9.75347" dy="-9.75347"/>
<feGaussianBlur stdDeviation="12.1918"/>
<feComposite in2="hardAlpha" operator="out"/>
<feColorMatrix type="matrix" values="0 0 0 0 1 0 0 0 0 1 0 0 0 0 1 0 0 0 0.2 0"/>
<feBlend mode="normal" in2="effect1_dropShadow_1_5121" result="effect2_dropShadow_1_5121"/>
<feBlend mode="normal" in="SourceGraphic" in2="effect2_dropShadow_1_5121" result="shape"/>
<feGaussianBlur stdDeviation="4" result="effect3_foregroundBlur_1_5121"/>
</filter>
<filter id="filter2_f_1_5121" x="29.2434" y="49.1216" width="62.783" height="22.3774" filterUnits="userSpaceOnUse" color-interpolation-filters="sRGB">
<feFlood flood-opacity="0" result="BackgroundImageFix"/>
<feBlend mode="normal" in="SourceGraphic" in2="BackgroundImageFix" result="shape"/>
<feGaussianBlur stdDeviation="1" result="effect1_foregroundBlur_1_5121"/>
</filter>
</defs>
</svg>
