<svg width="92" height="90" viewBox="0 0 92 90" fill="none" xmlns="http://www.w3.org/2000/svg">
<path fill-rule="evenodd" clip-rule="evenodd" d="M12.241 0.416455C12.0333 0.641133 11.4326 1.63531 10.9061 2.62603L9.94907 4.42745L8.2027 5.35956C5.97717 6.54738 5.72383 6.78077 5.72383 7.64246C5.72383 8.49888 6.15876 8.89143 8.40389 10.0618L10.0456 10.9177L10.8387 12.5117C11.9342 14.7135 12.4107 15.2528 13.26 15.2528C14.1137 15.2528 14.392 14.9449 15.6021 12.6607L16.5426 10.885L18.1165 10.0872C20.2952 8.9829 20.8268 8.50324 20.8268 7.64246C20.8268 6.78258 20.601 6.57496 18.2661 5.28715L16.4275 4.27301L15.5214 2.51769C15.023 1.55237 14.4629 0.592677 14.277 0.38524C13.8046 -0.141429 12.7422 -0.125277 12.241 0.416455ZM13.7424 4.94813C14.2399 6.06209 14.7444 6.59057 15.7761 7.0784C16.2796 7.31633 16.6915 7.56478 16.6915 7.63048C16.6915 7.69618 16.2796 7.94463 15.7761 8.18255C14.7444 8.67039 14.2399 9.19887 13.7424 10.3128C13.5544 10.734 13.3442 11.0787 13.2753 11.0787C13.2065 11.0787 12.9963 10.734 12.8082 10.3128C12.3107 9.19887 11.8062 8.67039 10.7745 8.18255C10.2711 7.94463 9.85917 7.69618 9.85917 7.63048C9.85917 7.56478 10.2711 7.31633 10.7745 7.0784C11.8062 6.59057 12.3107 6.06209 12.8082 4.94813C12.9963 4.52691 13.2065 4.18227 13.2753 4.18227C13.3442 4.18227 13.5544 4.52691 13.7424 4.94813ZM74.3084 5.17227C73.9393 5.54467 73.867 5.79349 73.867 6.69039C73.867 8.04154 74.3115 8.71939 75.1972 8.71939C76.1564 8.71939 76.564 8.11631 76.564 6.69765C76.564 5.69712 76.5002 5.45538 76.148 5.12127C75.5958 4.59787 74.8572 4.61837 74.3084 5.17227ZM69.9933 9.5279C69.7506 9.77291 69.5519 10.1849 69.5519 10.4435C69.5519 10.7021 69.7506 11.1141 69.9933 11.3591C70.3693 11.7387 70.6037 11.8046 71.5775 11.8046C72.9616 11.8046 73.5074 11.4213 73.5074 10.4497C73.5074 9.52899 72.8508 9.08236 71.4973 9.08236C70.6088 9.08236 70.3623 9.15531 69.9933 9.5279ZM77.365 9.5279C77.1223 9.77291 76.9236 10.1849 76.9236 10.4435C76.9236 10.7021 77.1223 11.1141 77.365 11.3591C77.7411 11.7389 77.9752 11.8046 78.9517 11.8046C79.9167 11.8046 80.1589 11.7384 80.4883 11.3847C81.0413 10.7903 81.0046 9.93425 80.4054 9.45857C79.6828 8.88472 77.9632 8.92392 77.365 9.5279ZM42.5823 10.6393C42.3351 10.682 41.526 10.8048 40.7843 10.9123C30.2052 12.4456 20.5726 19.7584 15.889 29.8119C11.3923 39.4642 11.7663 51.0622 16.8731 60.332C21.7213 69.1324 30.2748 75.3163 40.155 77.1639C43.066 77.7081 48.3775 77.7539 51.2863 77.2595C55.2911 76.5789 59.5654 75.024 62.8208 73.063C65.0697 71.7084 65.5029 71.0202 64.7206 70.0451C64.2087 69.407 63.3766 69.4985 62.0928 70.334C60.6661 71.2627 57.4075 72.803 55.6176 73.3948C49.4903 75.4205 42.6663 75.4285 36.5222 73.4169C33.9909 72.5883 30.3412 70.7384 28.2023 69.1999C26.0001 67.6161 22.6811 64.2666 21.1429 62.0759C17.4614 56.8325 15.4252 50.3912 15.4365 44.0229C15.4597 30.7845 23.883 18.9929 36.3005 14.8158C39.9528 13.5872 41.4697 13.3594 45.9984 13.3594C49.53 13.3594 50.2809 13.4115 51.9102 13.7699C54.8531 14.4173 57.0508 15.1851 59.5732 16.4477C67.3449 20.3379 72.9864 27.1818 75.3833 35.6271C76.2675 38.7428 76.4633 40.3088 76.4556 44.1997C76.4493 47.4118 76.3937 48.0916 75.9728 50.1085C74.7995 55.7303 72.5022 60.3703 68.7534 64.69C67.0698 66.6301 66.9191 67.0572 67.6559 67.8009C68.4409 68.5934 68.9401 68.4192 70.4509 66.8258C79.5468 57.2319 81.8376 42.011 76.0413 29.6809C74.3841 26.1559 72.6798 23.6984 69.827 20.7206C64.8115 15.4855 58.98 12.35 51.6621 10.9538C50.2902 10.6921 43.6152 10.4607 42.5823 10.6393ZM74.2398 12.6458C73.9611 13.0032 73.867 13.3866 73.867 14.1639C73.867 15.4804 74.32 16.1603 75.1972 16.1603C76.1564 16.1603 76.564 15.5572 76.564 14.1385C76.564 13.138 76.5002 12.8963 76.148 12.5621C75.5591 12.0039 74.711 12.0409 74.2398 12.6458ZM43.4813 17.9898C40.4709 18.2787 37.2957 19.1951 34.5813 20.5582C32.811 21.4471 32.3338 21.8705 32.3338 22.5522C32.3338 23.1518 33.0387 23.9641 33.559 23.9641C33.7472 23.9641 34.3701 23.7117 34.9429 23.4031C46.4844 17.1864 60.9056 21.7723 66.7467 33.5166C67.7511 35.5361 68.5463 37.9381 68.9151 40.0658C69.2765 42.1514 69.2707 45.9417 68.9027 48.115C67.4837 56.4938 61.4143 63.6088 53.3701 66.3232C39.846 70.8867 25.4203 62.1344 23.0685 47.9386C22.6181 45.2198 22.7708 40.8771 23.4024 38.4428C24.3721 34.7049 25.83 31.8614 28.2884 28.9137C30.1437 26.6893 30.2588 26.4985 30.1094 25.8973C29.9454 25.238 29.0114 24.7755 28.3533 25.0282C27.7708 25.2518 25.6716 27.6314 24.4659 29.435C22.6483 32.1536 21.2657 35.4612 20.5319 38.8459C20.0587 41.029 20.054 46.9702 20.524 49.1905C21.6275 54.4046 24.0455 58.9121 27.7152 62.5961C31.412 66.3071 35.7191 68.6533 40.9641 69.8134C42.179 70.0821 43.2298 70.15 46.0883 70.1449C49.3384 70.1389 49.8785 70.0921 51.7025 69.6571C61.739 67.2637 69.3058 59.4304 71.4729 49.1905C71.9405 46.9813 71.9344 41.0355 71.4623 38.8508C70.2116 33.0618 67.1099 27.7829 62.8264 24.1534C58.51 20.4958 53.7103 18.4851 48.0661 17.97C46.0254 17.7836 45.6097 17.7855 43.4813 17.9898ZM4.13227 25.2966C3.36615 26.1198 1.76506 30.5108 1.06043 33.7216C-0.175138 39.3506 -0.34145 46.2343 0.61651 52.0943C1.40942 56.9444 3.35806 62.5061 4.48899 63.1469C5.11972 63.5042 5.96854 63.1572 6.27186 62.4179C6.46676 61.9429 6.42936 61.7476 5.93546 60.6638C4.59435 57.7208 3.65634 54.3739 3.07902 50.4714C2.69371 47.8666 2.64373 40.6783 2.99397 38.2107C3.55512 34.2556 4.50265 30.7161 5.74613 27.9285C6.51297 26.2096 6.5331 25.6274 5.84304 25.1396C5.28783 24.747 4.58356 24.8116 4.13227 25.2966ZM86.1539 25.1396C85.4645 25.6269 85.4841 26.2098 86.247 27.9203C88.408 32.7645 89.5002 39.1711 89.2699 45.6516C89.0621 51.4983 88.0351 56.2993 86.058 60.6638C85.5675 61.7469 85.5303 61.9433 85.725 62.4179C86.0284 63.1572 86.8772 63.5042 87.5079 63.1469C88.041 62.8447 88.8596 61.2435 89.6797 58.8981C93.1131 49.0794 92.7015 35.892 88.675 26.7018C87.9177 24.9735 87.1028 24.4686 86.1539 25.1396ZM47.5755 32.5747C43.5748 33.3126 41.1274 33.8472 40.7635 34.0628C40.4512 34.248 40.045 34.6841 39.8607 35.0318C39.5534 35.6122 39.5257 36.1583 39.5257 41.656V47.6479L38.0424 47.6497C36.1053 47.6521 34.6924 48.2655 33.441 49.6473C32.2087 51.0084 31.8757 52.3411 32.4324 53.6855C33.077 55.2428 34.3211 55.98 36.2894 55.971C38.617 55.9603 40.5538 54.8964 41.6396 53.0318L42.1328 52.185L42.1875 46.7074L42.2419 41.2297L42.7269 41.1295C42.9935 41.0745 45.5175 40.6203 48.3358 40.1203C51.1541 39.6201 53.6017 39.1774 53.7747 39.1362C54.0548 39.0696 54.0893 39.2241 54.0886 40.5417L54.0879 42.0219L52.5154 42.0257C51.1536 42.0289 50.8104 42.0975 49.954 42.5369C48.0028 43.5383 46.8559 45.1267 46.8559 46.8279C46.8559 48.909 48.5311 50.3086 51.0121 50.3008C53.3635 50.2932 55.5888 48.9382 56.4085 47.0149C56.7892 46.122 56.7976 45.9319 56.7476 39.3905L56.6964 32.6819L56.1288 32.1092C55.2647 31.2373 54.642 31.2712 47.5755 32.5747ZM8.55043 33.6282C8.07918 33.9863 7.19656 36.1448 6.69348 38.17C6.31771 39.6825 6.2154 40.6126 6.14025 43.2015C6.0347 46.8394 6.27617 48.8265 7.15952 51.5928C8.03711 54.3409 8.71566 55.1133 9.8394 54.6434C10.7258 54.2728 10.811 53.6425 10.1869 52.0752C9.25434 49.7324 8.93861 48.0816 8.83199 44.9909C8.7563 42.7984 8.8034 41.7342 9.0384 40.3154C9.33075 38.5508 9.93433 36.4548 10.4065 35.5641C10.7465 34.9231 10.6571 34.0861 10.2096 33.7204C9.75399 33.348 8.97637 33.3048 8.55043 33.6282ZM81.9031 33.603C81.2082 34.0109 81.2166 34.5469 81.9489 36.5218C82.8323 38.9036 83.2165 41.2059 83.2165 44.1171C83.2165 47.449 82.8947 49.0903 81.5122 52.808C81.2039 53.6373 81.4543 54.3492 82.1575 54.6434C83.2809 55.1131 83.9598 54.3409 84.8365 51.5955C86.211 47.2916 86.2898 41.5701 85.0352 37.1833C84.5582 35.5154 83.7624 33.7806 83.3796 33.5737C82.965 33.3498 82.3121 33.3627 81.9031 33.603ZM54.0212 36.253C53.973 36.3015 51.319 36.8092 48.1231 37.3813L42.3126 38.4214L42.2581 37.4334C42.2281 36.89 42.231 36.4176 42.2646 36.3839C42.2982 36.3499 44.9522 35.8485 48.1625 35.2697L53.9994 34.2175L54.0539 35.1911C54.0839 35.7265 54.0692 36.2044 54.0212 36.253ZM53.7416 44.8412C54.5176 45.2605 53.9201 46.5406 52.6411 47.1993C51.8557 47.6038 50.1554 47.6878 49.8102 47.3394C49.226 46.7497 49.8871 45.5575 51.1085 44.9975C51.9185 44.6263 53.2026 44.5501 53.7416 44.8412ZM39.3183 50.7181C39.5914 50.9939 39.5867 51.0649 39.2548 51.6865C38.3811 53.3218 35.0874 53.9431 34.8846 52.5106C34.8079 51.9672 35.8345 50.8772 36.7389 50.5424C37.6075 50.2208 38.9137 50.3097 39.3183 50.7181ZM80.969 68.8157C78.7935 69.4099 76.8112 70.0429 76.564 70.2222C76.3168 70.4016 75.9326 70.8184 75.71 71.1484C75.3139 71.7358 75.3054 71.8558 75.3054 76.9132C75.3054 81.7632 75.2862 82.0698 74.9908 81.9413C74.3876 81.6792 72.4702 81.6344 71.7722 81.8661C70.7481 82.2062 69.8248 82.8823 69.2592 83.7062C68.5564 84.73 68.4471 86.3956 69.0062 87.5615C69.7928 89.2014 71.5851 90.1342 73.6614 89.9843C75.4744 89.8535 76.7224 89.0749 77.5245 87.5746C77.8889 86.8927 77.9159 86.561 77.9682 82.1071L78.0238 77.3657L81.2046 76.5163C86.4593 75.1129 86.6339 75.0338 87.1875 73.8029C87.6791 72.7106 87.674 69.664 87.1792 68.8451C86.7875 68.1963 85.9654 67.6934 85.3381 67.7185C85.1107 67.7277 83.1446 68.2214 80.969 68.8157ZM84.8347 71.6625V72.7193L81.4185 73.6255L78.0024 74.5316V73.4988V72.4658L80.0251 71.9115C81.1377 71.6066 82.6142 71.1975 83.3064 71.0024C83.9986 70.8075 84.6256 70.6384 84.6998 70.6268C84.7741 70.6152 84.8347 71.0812 84.8347 71.6625ZM16.2044 72.1518C15.5413 72.4333 15.4329 72.7039 15.4329 74.077C15.4329 74.9842 15.5043 75.2314 15.8743 75.6047C16.117 75.8497 16.5252 76.0503 16.7814 76.0503C17.0376 76.0503 17.4457 75.8497 17.6884 75.6047C18.0576 75.2323 18.1299 74.9835 18.1299 74.0866C18.1299 72.4329 17.3614 71.6609 16.2044 72.1518ZM11.4774 76.7762C10.9928 77.2653 11.0023 78.2479 11.4962 78.699C11.7924 78.9696 12.1478 79.0448 13.1302 79.0448C14.2329 79.0448 14.4278 78.9925 14.7295 78.6163C15.195 78.0361 15.1652 77.2894 14.6572 76.8078C14.072 76.2528 12.016 76.2325 11.4774 76.7762ZM18.849 76.7762C18.3776 77.2521 18.3737 78.2477 18.8417 78.6751C19.2336 79.0331 20.5544 79.2439 21.2702 79.0625C22.3988 78.7765 22.8116 77.5501 22.0289 76.8078C21.4437 76.2528 19.3877 76.2325 18.849 76.7762ZM16.2087 79.4997C15.6325 79.734 15.4329 80.2466 15.4329 81.4912C15.4329 82.4267 15.5019 82.6699 15.8743 83.0456C16.3986 83.575 17.0374 83.6167 17.5982 83.1583C17.9089 82.9044 18.0254 82.5821 18.0898 81.7981C18.1973 80.4912 17.9105 79.7649 17.187 79.5103C16.8849 79.4039 16.6296 79.3223 16.6197 79.3284C16.6097 79.3348 16.4248 79.4119 16.2087 79.4997ZM74.5176 84.745C75.9383 85.6194 75.0963 87.3023 73.2378 87.3023C71.5072 87.3023 70.7224 85.8713 71.9031 84.8684C72.584 84.29 73.6934 84.2378 74.5176 84.745Z" fill="white"/>
<mask id="mask0_1_6365" style="mask-type:alpha" maskUnits="userSpaceOnUse" x="0" y="0" width="92" height="90">
<path fill-rule="evenodd" clip-rule="evenodd" d="M12.241 0.416455C12.0333 0.641133 11.4326 1.63531 10.9061 2.62603L9.94907 4.42745L8.2027 5.35956C5.97717 6.54738 5.72383 6.78077 5.72383 7.64246C5.72383 8.49888 6.15876 8.89143 8.40389 10.0618L10.0456 10.9177L10.8387 12.5117C11.9342 14.7135 12.4107 15.2528 13.26 15.2528C14.1137 15.2528 14.392 14.9449 15.6021 12.6607L16.5426 10.885L18.1165 10.0872C20.2952 8.9829 20.8268 8.50324 20.8268 7.64246C20.8268 6.78258 20.601 6.57496 18.2661 5.28715L16.4275 4.27301L15.5214 2.51769C15.023 1.55237 14.4629 0.592677 14.277 0.38524C13.8046 -0.141429 12.7422 -0.125277 12.241 0.416455ZM13.7424 4.94813C14.2399 6.06209 14.7444 6.59057 15.7761 7.0784C16.2796 7.31633 16.6915 7.56478 16.6915 7.63048C16.6915 7.69618 16.2796 7.94463 15.7761 8.18255C14.7444 8.67039 14.2399 9.19887 13.7424 10.3128C13.5544 10.734 13.3442 11.0787 13.2753 11.0787C13.2065 11.0787 12.9963 10.734 12.8082 10.3128C12.3107 9.19887 11.8062 8.67039 10.7745 8.18255C10.2711 7.94463 9.85917 7.69618 9.85917 7.63048C9.85917 7.56478 10.2711 7.31633 10.7745 7.0784C11.8062 6.59057 12.3107 6.06209 12.8082 4.94813C12.9963 4.52691 13.2065 4.18227 13.2753 4.18227C13.3442 4.18227 13.5544 4.52691 13.7424 4.94813ZM74.3084 5.17227C73.9393 5.54467 73.867 5.79349 73.867 6.69039C73.867 8.04154 74.3115 8.71939 75.1972 8.71939C76.1564 8.71939 76.564 8.11631 76.564 6.69765C76.564 5.69712 76.5002 5.45538 76.148 5.12127C75.5958 4.59787 74.8572 4.61837 74.3084 5.17227ZM69.9933 9.5279C69.7506 9.77291 69.5519 10.1849 69.5519 10.4435C69.5519 10.7021 69.7506 11.1141 69.9933 11.3591C70.3693 11.7387 70.6037 11.8046 71.5775 11.8046C72.9616 11.8046 73.5074 11.4213 73.5074 10.4497C73.5074 9.52899 72.8508 9.08236 71.4973 9.08236C70.6088 9.08236 70.3623 9.15531 69.9933 9.5279ZM77.365 9.5279C77.1223 9.77291 76.9236 10.1849 76.9236 10.4435C76.9236 10.7021 77.1223 11.1141 77.365 11.3591C77.7411 11.7389 77.9752 11.8046 78.9517 11.8046C79.9167 11.8046 80.1589 11.7384 80.4883 11.3847C81.0413 10.7903 81.0046 9.93425 80.4054 9.45857C79.6828 8.88472 77.9632 8.92392 77.365 9.5279ZM42.5823 10.6393C42.3351 10.682 41.526 10.8048 40.7843 10.9123C30.2052 12.4456 20.5726 19.7584 15.889 29.8119C11.3923 39.4642 11.7663 51.0622 16.8731 60.332C21.7213 69.1324 30.2748 75.3163 40.155 77.1639C43.066 77.7081 48.3775 77.7539 51.2863 77.2595C55.2911 76.5789 59.5654 75.024 62.8208 73.063C65.0697 71.7084 65.5029 71.0202 64.7206 70.0451C64.2087 69.407 63.3766 69.4985 62.0928 70.334C60.6661 71.2627 57.4075 72.803 55.6176 73.3948C49.4903 75.4205 42.6663 75.4285 36.5222 73.4169C33.9909 72.5883 30.3412 70.7384 28.2023 69.1999C26.0001 67.6161 22.6811 64.2666 21.1429 62.0759C17.4614 56.8325 15.4252 50.3912 15.4365 44.0229C15.4597 30.7845 23.883 18.9929 36.3005 14.8158C39.9528 13.5872 41.4697 13.3594 45.9984 13.3594C49.53 13.3594 50.2809 13.4115 51.9102 13.7699C54.8531 14.4173 57.0508 15.1851 59.5732 16.4477C67.3449 20.3379 72.9864 27.1818 75.3833 35.6271C76.2675 38.7428 76.4633 40.3088 76.4556 44.1997C76.4493 47.4118 76.3937 48.0916 75.9728 50.1085C74.7995 55.7303 72.5022 60.3703 68.7534 64.69C67.0698 66.6301 66.9191 67.0572 67.6559 67.8009C68.4409 68.5934 68.9401 68.4192 70.4509 66.8258C79.5468 57.2319 81.8376 42.011 76.0413 29.6809C74.3841 26.1559 72.6798 23.6984 69.827 20.7206C64.8115 15.4855 58.98 12.35 51.6621 10.9538C50.2902 10.6921 43.6152 10.4607 42.5823 10.6393ZM74.2398 12.6458C73.9611 13.0032 73.867 13.3866 73.867 14.1639C73.867 15.4804 74.32 16.1603 75.1972 16.1603C76.1564 16.1603 76.564 15.5572 76.564 14.1385C76.564 13.138 76.5002 12.8963 76.148 12.5621C75.5591 12.0039 74.711 12.0409 74.2398 12.6458ZM43.4813 17.9898C40.4709 18.2787 37.2957 19.1951 34.5813 20.5582C32.811 21.4471 32.3338 21.8705 32.3338 22.5522C32.3338 23.1518 33.0387 23.9641 33.559 23.9641C33.7472 23.9641 34.3701 23.7117 34.9429 23.4031C46.4844 17.1864 60.9056 21.7723 66.7467 33.5166C67.7511 35.5361 68.5463 37.9381 68.9151 40.0658C69.2765 42.1514 69.2707 45.9417 68.9027 48.115C67.4837 56.4938 61.4143 63.6088 53.3701 66.3232C39.846 70.8867 25.4203 62.1344 23.0685 47.9386C22.6181 45.2198 22.7708 40.8771 23.4024 38.4428C24.3721 34.7049 25.83 31.8614 28.2884 28.9137C30.1437 26.6893 30.2588 26.4985 30.1094 25.8973C29.9454 25.238 29.0114 24.7755 28.3533 25.0282C27.7708 25.2518 25.6716 27.6314 24.4659 29.435C22.6483 32.1536 21.2657 35.4612 20.5319 38.8459C20.0587 41.029 20.054 46.9702 20.524 49.1905C21.6275 54.4046 24.0455 58.9121 27.7152 62.5961C31.412 66.3071 35.7191 68.6533 40.9641 69.8134C42.179 70.0821 43.2298 70.15 46.0883 70.1449C49.3384 70.1389 49.8785 70.0921 51.7025 69.6571C61.739 67.2637 69.3058 59.4304 71.4729 49.1905C71.9405 46.9813 71.9344 41.0355 71.4623 38.8508C70.2116 33.0618 67.1099 27.7829 62.8264 24.1534C58.51 20.4958 53.7103 18.4851 48.0661 17.97C46.0254 17.7836 45.6097 17.7855 43.4813 17.9898ZM4.13227 25.2966C3.36615 26.1198 1.76506 30.5108 1.06043 33.7216C-0.175138 39.3506 -0.34145 46.2343 0.61651 52.0943C1.40942 56.9444 3.35806 62.5061 4.48899 63.1469C5.11972 63.5042 5.96854 63.1572 6.27186 62.4179C6.46676 61.9429 6.42936 61.7476 5.93546 60.6638C4.59435 57.7208 3.65634 54.3739 3.07902 50.4714C2.69371 47.8666 2.64373 40.6783 2.99397 38.2107C3.55512 34.2556 4.50265 30.7161 5.74613 27.9285C6.51297 26.2096 6.5331 25.6274 5.84304 25.1396C5.28783 24.747 4.58356 24.8116 4.13227 25.2966ZM86.1539 25.1396C85.4645 25.6269 85.4841 26.2098 86.247 27.9203C88.408 32.7645 89.5002 39.1711 89.2699 45.6516C89.0621 51.4983 88.0351 56.2993 86.058 60.6638C85.5675 61.7469 85.5303 61.9433 85.725 62.4179C86.0284 63.1572 86.8772 63.5042 87.5079 63.1469C88.041 62.8447 88.8596 61.2435 89.6797 58.8981C93.1131 49.0794 92.7015 35.892 88.675 26.7018C87.9177 24.9735 87.1028 24.4686 86.1539 25.1396ZM47.5755 32.5747C43.5748 33.3126 41.1274 33.8472 40.7635 34.0628C40.4512 34.248 40.045 34.6841 39.8607 35.0318C39.5534 35.6122 39.5257 36.1583 39.5257 41.656V47.6479L38.0424 47.6497C36.1053 47.6521 34.6924 48.2655 33.441 49.6473C32.2087 51.0084 31.8757 52.3411 32.4324 53.6855C33.077 55.2428 34.3211 55.98 36.2894 55.971C38.617 55.9603 40.5538 54.8964 41.6396 53.0318L42.1328 52.185L42.1875 46.7074L42.2419 41.2297L42.7269 41.1295C42.9935 41.0745 45.5175 40.6203 48.3358 40.1203C51.1541 39.6201 53.6017 39.1774 53.7747 39.1362C54.0548 39.0696 54.0893 39.2241 54.0886 40.5417L54.0879 42.0219L52.5154 42.0257C51.1536 42.0289 50.8104 42.0975 49.954 42.5369C48.0028 43.5383 46.8559 45.1267 46.8559 46.8279C46.8559 48.909 48.5311 50.3086 51.0121 50.3008C53.3635 50.2932 55.5888 48.9382 56.4085 47.0149C56.7892 46.122 56.7976 45.9319 56.7476 39.3905L56.6964 32.6819L56.1288 32.1092C55.2647 31.2373 54.642 31.2712 47.5755 32.5747ZM8.55043 33.6282C8.07918 33.9863 7.19656 36.1448 6.69348 38.17C6.31771 39.6825 6.2154 40.6126 6.14025 43.2015C6.0347 46.8394 6.27617 48.8265 7.15952 51.5928C8.03711 54.3409 8.71566 55.1133 9.8394 54.6434C10.7258 54.2728 10.811 53.6425 10.1869 52.0752C9.25434 49.7324 8.93861 48.0816 8.83199 44.9909C8.7563 42.7984 8.8034 41.7342 9.0384 40.3154C9.33075 38.5508 9.93433 36.4548 10.4065 35.5641C10.7465 34.9231 10.6571 34.0861 10.2096 33.7204C9.75399 33.348 8.97637 33.3048 8.55043 33.6282ZM81.9031 33.603C81.2082 34.0109 81.2166 34.5469 81.9489 36.5218C82.8323 38.9036 83.2165 41.2059 83.2165 44.1171C83.2165 47.449 82.8947 49.0903 81.5122 52.808C81.2039 53.6373 81.4543 54.3492 82.1575 54.6434C83.2809 55.1131 83.9598 54.3409 84.8365 51.5955C86.211 47.2916 86.2898 41.5701 85.0352 37.1833C84.5582 35.5154 83.7624 33.7806 83.3796 33.5737C82.965 33.3498 82.3121 33.3627 81.9031 33.603ZM54.0212 36.253C53.973 36.3015 51.319 36.8092 48.1231 37.3813L42.3126 38.4214L42.2581 37.4334C42.2281 36.89 42.231 36.4176 42.2646 36.3839C42.2982 36.3499 44.9522 35.8485 48.1625 35.2697L53.9994 34.2175L54.0539 35.1911C54.0839 35.7265 54.0692 36.2044 54.0212 36.253ZM53.7416 44.8412C54.5176 45.2605 53.9201 46.5406 52.6411 47.1993C51.8557 47.6038 50.1554 47.6878 49.8102 47.3394C49.226 46.7497 49.8871 45.5575 51.1085 44.9975C51.9185 44.6263 53.2026 44.5501 53.7416 44.8412ZM39.3183 50.7181C39.5914 50.9939 39.5867 51.0649 39.2548 51.6865C38.3811 53.3218 35.0874 53.9431 34.8846 52.5106C34.8079 51.9672 35.8345 50.8772 36.7389 50.5424C37.6075 50.2208 38.9137 50.3097 39.3183 50.7181ZM80.969 68.8157C78.7935 69.4099 76.8112 70.0429 76.564 70.2222C76.3168 70.4016 75.9326 70.8184 75.71 71.1484C75.3139 71.7358 75.3054 71.8558 75.3054 76.9132C75.3054 81.7632 75.2862 82.0698 74.9908 81.9413C74.3876 81.6792 72.4702 81.6344 71.7722 81.8661C70.7481 82.2062 69.8248 82.8823 69.2592 83.7062C68.5564 84.73 68.4471 86.3956 69.0062 87.5615C69.7928 89.2014 71.5851 90.1342 73.6614 89.9843C75.4744 89.8535 76.7224 89.0749 77.5245 87.5746C77.8889 86.8927 77.9159 86.561 77.9682 82.1071L78.0238 77.3657L81.2046 76.5163C86.4593 75.1129 86.6339 75.0338 87.1875 73.8029C87.6791 72.7106 87.674 69.664 87.1792 68.8451C86.7875 68.1963 85.9654 67.6934 85.3381 67.7185C85.1107 67.7277 83.1446 68.2214 80.969 68.8157ZM84.8347 71.6625V72.7193L81.4185 73.6255L78.0024 74.5316V73.4988V72.4658L80.0251 71.9115C81.1377 71.6066 82.6142 71.1975 83.3064 71.0024C83.9986 70.8075 84.6256 70.6384 84.6998 70.6268C84.7741 70.6152 84.8347 71.0812 84.8347 71.6625ZM16.2044 72.1518C15.5413 72.4333 15.4329 72.7039 15.4329 74.077C15.4329 74.9842 15.5043 75.2314 15.8743 75.6047C16.117 75.8497 16.5252 76.0503 16.7814 76.0503C17.0376 76.0503 17.4457 75.8497 17.6884 75.6047C18.0576 75.2323 18.1299 74.9835 18.1299 74.0866C18.1299 72.4329 17.3614 71.6609 16.2044 72.1518ZM11.4774 76.7762C10.9928 77.2653 11.0023 78.2479 11.4962 78.699C11.7924 78.9696 12.1478 79.0448 13.1302 79.0448C14.2329 79.0448 14.4278 78.9925 14.7295 78.6163C15.195 78.0361 15.1652 77.2894 14.6572 76.8078C14.072 76.2528 12.016 76.2325 11.4774 76.7762ZM18.849 76.7762C18.3776 77.2521 18.3737 78.2477 18.8417 78.6751C19.2336 79.0331 20.5544 79.2439 21.2702 79.0625C22.3988 78.7765 22.8116 77.5501 22.0289 76.8078C21.4437 76.2528 19.3877 76.2325 18.849 76.7762ZM16.2087 79.4997C15.6325 79.734 15.4329 80.2466 15.4329 81.4912C15.4329 82.4267 15.5019 82.6699 15.8743 83.0456C16.3986 83.575 17.0374 83.6167 17.5982 83.1583C17.9089 82.9044 18.0254 82.5821 18.0898 81.7981C18.1973 80.4912 17.9105 79.7649 17.187 79.5103C16.8849 79.4039 16.6296 79.3223 16.6197 79.3284C16.6097 79.3348 16.4248 79.4119 16.2087 79.4997ZM74.5176 84.745C75.9383 85.6194 75.0963 87.3023 73.2378 87.3023C71.5072 87.3023 70.7224 85.8713 71.9031 84.8684C72.584 84.29 73.6934 84.2378 74.5176 84.745Z" fill="#52598B"/>
</mask>
<g mask="url(#mask0_1_6365)">
<rect x="-10.917" y="44" width="115.124" height="51" fill="#52598B"/>
</g>
</svg>
