<svg width="40" height="24" viewBox="0 0 40 24" fill="none" xmlns="http://www.w3.org/2000/svg">
<path d="M40 12C40 18.5846 34.6462 24 28 24C21.4154 24 16 18.5846 16 12C16 5.41538 21.3538 0 27.9385 0C34.6462 0 40 5.41538 40 12Z" fill="#F9B50B"/>
<path d="M23.9385 12.0615C23.9385 11.2 23.8154 10.3385 23.6923 9.53846H16.3077C16.3692 9.10769 16.4923 8.73846 16.6154 8.24615H23.2C23.0769 7.81538 22.8923 7.38462 22.7077 6.95385H17.1077C17.2923 6.52308 17.5385 6.15385 17.7846 5.66154H22.0308C21.7846 5.23077 21.4769 4.8 21.1077 4.36923H18.7692C19.1385 3.93846 19.5077 3.56923 20 3.13846C17.9077 1.16923 15.0769 0 11.9385 0C5.41538 0.184615 0 5.41538 0 12C0 18.5846 5.35385 24 12 24C15.1385 24 17.9077 22.7692 20.0615 20.8615C20.4923 20.4923 20.8615 20.0615 21.2923 19.5692H18.8308C18.5231 19.2 18.2154 18.7692 17.9692 18.3385H22.1538C22.4 17.9692 22.6462 17.5385 22.8308 17.0462H17.2308C17.0462 16.6769 16.8615 16.2462 16.7385 15.7538H23.3231C23.6923 14.6462 23.9385 13.4154 23.9385 12.0615Z" fill="#CF0B0B"/>
<path d="M16.2465 15.0771L16.4312 13.9694C16.3696 13.9694 16.2465 14.0309 16.1235 14.0309C15.6927 14.0309 15.6312 13.7847 15.6927 13.6617L16.0619 11.4463H16.7389L16.9235 10.2155H16.3081L16.4312 9.47705H15.1389C15.1389 9.47705 14.4004 13.6617 14.4004 14.154C14.4004 14.8924 14.8312 15.2617 15.4465 15.2617C15.8158 15.2617 16.1235 15.1386 16.2465 15.0771Z" fill="white"/>
<path d="M16.6768 13.0461C16.6768 14.8307 17.9075 15.2615 18.8921 15.2615C19.8152 15.2615 20.246 15.0769 20.246 15.0769L20.4921 13.8461C20.4921 13.8461 19.8152 14.1538 19.1383 14.1538C17.7229 14.1538 17.9691 13.1077 17.9691 13.1077H20.5537C20.5537 13.1077 20.7383 12.3077 20.7383 11.9384C20.7383 11.1384 20.3075 10.0923 18.8921 10.0923C17.6614 10.0307 16.6768 11.4461 16.6768 13.0461ZM18.8921 11.2C19.5691 11.2 19.446 12 19.446 12.0615H18.0306C18.0921 12 18.2152 11.2 18.8921 11.2Z" fill="white"/>
<path d="M26.9542 15.0769L27.2004 13.6615C27.2004 13.6615 26.585 13.9692 26.0927 13.9692C25.2312 13.9692 24.8004 13.2923 24.8004 12.4923C24.8004 10.9538 25.5388 10.1538 26.4619 10.1538C27.0773 10.1538 27.6312 10.5231 27.6312 10.5231L27.8158 9.1692C27.8158 9.1692 27.0773 8.86151 26.3388 8.86151C24.8619 8.86151 23.4465 10.1538 23.4465 12.5538C23.4465 14.1538 24.185 15.2 25.7235 15.2C26.2773 15.2615 26.9542 15.0769 26.9542 15.0769Z" fill="white"/>
<path d="M9.29258 10.0308C8.43104 10.0308 7.75412 10.2769 7.75412 10.2769L7.5695 11.3846C7.5695 11.3846 8.12335 11.1385 8.98489 11.1385C9.41566 11.1385 9.78489 11.2 9.78489 11.5692C9.78489 11.8154 9.72335 11.8769 9.72335 11.8769H9.1695C8.06181 11.8769 6.89258 12.3077 6.89258 13.7846C6.89258 14.9538 7.63104 15.2 8.12335 15.2C8.98489 15.2 9.41566 14.6461 9.47719 14.6461L9.41566 15.1385H10.4618L10.9541 11.6308C10.9541 10.0923 9.72335 10.0308 9.29258 10.0308ZM9.53873 12.8615C9.53873 13.0461 9.41566 14.0923 8.67719 14.0923C8.30796 14.0923 8.18489 13.7846 8.18489 13.6C8.18489 13.2923 8.3695 12.8615 9.35412 12.8615C9.47719 12.8615 9.53873 12.8615 9.53873 12.8615Z" fill="white"/>
<path d="M12.1849 15.2C12.4926 15.2 14.0926 15.2615 14.0926 13.5385C14.0926 11.9385 12.5542 12.2462 12.5542 11.6308C12.5542 11.3231 12.8003 11.2 13.2311 11.2C13.4157 11.2 14.0926 11.2615 14.0926 11.2615L14.2773 10.0923C14.2773 10.0923 13.8465 9.96924 13.0465 9.96924C12.1234 9.96924 11.1388 10.3385 11.1388 11.6308C11.1388 13.1077 12.7388 12.9846 12.7388 13.5385C12.7388 13.9077 12.308 13.9692 12.0003 13.9692C11.4465 13.9692 10.8311 13.7846 10.8311 13.7846L10.6465 14.9539C10.7696 15.0769 11.1388 15.2 12.1849 15.2Z" fill="white"/>
<path d="M37.5382 9.0462L37.2921 10.7693C37.2921 10.7693 36.7998 10.1539 36.0613 10.1539C34.8921 10.1539 33.9075 11.5693 33.9075 13.2308C33.9075 14.277 34.3998 15.3231 35.5075 15.3231C36.2459 15.3231 36.7382 14.8308 36.7382 14.8308L36.6767 15.2616H37.969L38.8921 9.16928L37.5382 9.0462ZM36.9229 12.3693C36.9229 13.0462 36.6152 13.9693 35.8767 13.9693C35.4459 13.9693 35.1998 13.6 35.1998 12.9231C35.1998 11.877 35.6305 11.2616 36.2459 11.2616C36.6767 11.3231 36.9229 11.6308 36.9229 12.3693Z" fill="white"/>
<path d="M2.33819 15.1387L3.07665 10.5848L3.19973 15.1387H4.06127L5.72281 10.5848L5.04588 15.1387H6.39973L7.44588 9.04639H5.35358L4.06127 12.8002L3.99973 9.04639H2.15358L1.10742 15.1387H2.33819Z" fill="white"/>
<path d="M22.0306 15.1384C22.3998 13.0461 22.4614 11.323 23.3845 11.6307C23.5075 10.8307 23.6922 10.4615 23.8152 10.1538H23.5691C23.0152 10.1538 22.5229 10.8923 22.5229 10.8923L22.646 10.2153H21.4152L20.6152 15.1384H22.0306Z" fill="white"/>
<path d="M29.9078 10.0308C29.0463 10.0308 28.3693 10.2769 28.3693 10.2769L28.1847 11.3846C28.1847 11.3846 28.7386 11.1385 29.6001 11.1385C30.0309 11.1385 30.4001 11.2 30.4001 11.5692C30.4001 11.8154 30.3386 11.8769 30.3386 11.8769H29.7847C28.677 11.8769 27.5078 12.3077 27.5078 13.7846C27.5078 14.9538 28.2463 15.2 28.7386 15.2C29.6001 15.2 30.0309 14.6461 30.0924 14.6461L30.0309 15.1385H31.2001L31.6924 11.6308C31.6924 10.0923 30.3386 10.0308 29.9078 10.0308ZM30.2155 12.8615C30.2155 13.0461 30.0924 14.0923 29.354 14.0923C28.9847 14.0923 28.8617 13.7846 28.8617 13.6C28.8617 13.2923 29.0463 12.8615 30.0309 12.8615C30.154 12.8615 30.154 12.8615 30.2155 12.8615Z" fill="white"/>
<path d="M32.6761 15.1384C33.0454 13.0461 33.1069 11.323 34.03 11.6307C34.153 10.8307 34.3377 10.4615 34.4607 10.1538H34.2146C33.6607 10.1538 33.1684 10.8923 33.1684 10.8923L33.2915 10.2153H32.0607L31.2607 15.1384H32.6761Z" fill="white"/>
</svg>
