<svg width="70" height="20" viewBox="0 0 70 20" fill="none" xmlns="http://www.w3.org/2000/svg">
<path d="M61.9358 0H48.6455C49.4197 4.3871 53.6778 8.51614 58.3229 8.51614H68.9036C69.0326 8.12904 69.0326 7.48387 69.0326 7.09678C69.0326 3.22581 65.8068 0 61.9358 0Z" fill="url(#paint0_linear_1_4557)"/>
<path d="M49.8066 9.29053V20.0002H56.2583V14.3228H61.9357C65.0324 14.3228 67.7421 12.1292 68.6454 9.29053H49.8066Z" fill="#4FAD50"/>
<path d="M27.0967 0V19.871H32.7741C32.7741 19.871 34.1935 19.871 34.9677 18.4516C38.8386 10.8387 39.9999 8.51614 39.9999 8.51614H40.7741V19.871H47.2257V0H41.5483C41.5483 0 40.1289 0.12904 39.3547 1.41936C36.1289 8.00001 34.3225 11.3548 34.3225 11.3548H33.5483V0H27.0967Z" fill="#4FAD50"/>
<path d="M0 20V0.129028H6.45162C6.45162 0.129028 8.25808 0.129024 9.29034 2.96774C11.871 10.4516 12.1291 11.4839 12.1291 11.4839C12.1291 11.4839 12.6452 9.67741 14.9678 2.96774C16 0.129024 17.8065 0.129028 17.8065 0.129028H24.2581V20H17.8065V9.29033H17.0323L13.4194 20H10.5807L6.96778 9.29033H6.19358V20H0Z" fill="#4FAD50"/>
<defs>
<linearGradient id="paint0_linear_1_4557" x1="48.6225" y1="4.3191" x2="68.9869" y2="4.3191" gradientUnits="userSpaceOnUse">
<stop stop-color="#27B1E6"/>
<stop offset="1" stop-color="#148ACA"/>
</linearGradient>
</defs>
</svg>
