<svg width="75" height="24" viewBox="0 0 75 24" fill="none" xmlns="http://www.w3.org/2000/svg">
<circle cx="12" cy="12" r="12" fill="#FD3E1D"/>
<path fill-rule="evenodd" clip-rule="evenodd" d="M16.5868 12.0628V19.4582H15.1914H13.7961V13.1791V6.90004H12.5188C11.4792 6.90004 11.0897 7.05185 10.4258 7.71576C8.93664 9.20488 9.40687 11.0024 11.748 12.77L13.2377 13.8946L11.3631 16.6764L9.48836 19.4582H7.99785C6.88185 19.4582 6.55896 19.3705 6.71273 19.1093C6.82575 18.9176 7.52371 17.8558 8.26408 16.7498C9.00445 15.6439 9.61003 14.6392 9.60976 14.5172C9.60976 14.3953 9.12836 13.8288 8.54064 13.2584C6.43896 11.2198 6.29385 7.97027 8.22278 6.14962C9.43645 5.00404 10.5354 4.71241 13.7263 4.68869L16.5868 4.66748V12.0628Z" fill="white"/>
<path fill-rule="evenodd" clip-rule="evenodd" d="M29.9824 11.2258V20.0165H31.7964H33.6103V17.1275V14.2386L36.0522 14.0798C39.5512 13.8524 41.0213 13.4148 42.262 12.2312C44.4438 10.1497 44.4907 6.20166 42.3572 4.18957C40.8837 2.7998 39.1995 2.43506 34.2572 2.43506H29.9824V11.2258ZM39.2132 6.04148C39.8743 6.70259 40.0289 7.09664 40.0289 8.11887C40.0289 10.4628 38.5845 11.3491 35.1223 11.13L33.6103 11.0346V8.13004V5.22576H36.0039C38.2772 5.22576 38.4385 5.26678 39.2132 6.04148ZM48.5406 7.36929C46.2882 7.87524 46.1685 7.97794 46.1685 9.40427V10.7485L47.8677 10.2197C48.8023 9.92892 50.378 9.69087 51.3689 9.69087C52.9097 9.69087 53.2697 9.78994 53.8554 10.376C55.075 11.5952 54.8152 11.7861 51.4914 12.1146C46.8382 12.5742 45.1917 13.6818 45.1917 16.3514C45.1917 18.0618 45.8721 19.0796 47.496 19.7979C49.121 20.5165 51.7934 20.3753 53.2917 19.4912C54.5082 18.7735 54.4426 18.7749 54.6215 19.4583C54.7479 19.9425 55.0024 20.0165 56.5376 20.017L58.308 20.0176L58.1685 14.9103C58.0097 9.10036 57.8593 8.63487 55.8444 7.72008C54.9332 7.3065 54.0734 7.19711 51.8894 7.21776C50.3545 7.23227 48.8475 7.30036 48.5406 7.36929ZM59.8429 7.44659C59.8429 7.60734 61.0987 10.5323 62.6336 13.9461C64.1685 17.36 65.4243 20.3064 65.4243 20.4937C65.4243 21.0965 64.2689 21.4791 62.8582 21.3434L61.49 21.212L61.5734 22.4979L61.6568 23.7839L63.5411 23.8665C65.8546 23.9678 67.1182 23.4398 68.2275 21.9085C68.9096 20.9667 74.6372 7.97487 74.6347 7.37515C74.6341 7.25292 73.8636 7.19013 72.9229 7.23562L71.2122 7.31878L69.3921 11.9974C68.3911 14.5704 67.5207 16.6244 67.4579 16.5616C67.3951 16.4988 66.4842 14.3935 65.4338 11.8832L63.5238 7.31878L61.6834 7.23617C60.5327 7.18455 59.8429 7.26352 59.8429 7.44659ZM54.5406 15.3685C54.5406 16.8166 53.9372 17.4878 52.3859 17.7658C51.1178 17.9926 49.5354 17.703 49.2064 17.1839C48.8325 16.5937 48.9184 15.3744 49.3599 15.008C49.9901 14.485 51.1954 14.2059 52.9359 14.18L54.5406 14.156V15.3685Z" fill="#121212"/>
</svg>
