<svg width="79" height="20" viewBox="0 0 79 20" fill="none" xmlns="http://www.w3.org/2000/svg">
<path d="M72.9145 0.285706H68.0002C66.5145 0.285706 65.3716 0.666658 64.6859 1.90475L55.3145 19.7143H61.943C61.943 19.7143 63.0859 17.3333 63.3145 16.7619C64.0002 16.7619 70.5145 16.7619 71.4287 16.7619C71.6573 17.4286 72.2287 19.619 72.2287 19.619H78.1716L72.9145 0.285706ZM65.143 12.7619C65.7145 11.619 67.6573 7.33332 67.6573 7.33332C67.6573 7.42856 68.2287 6.19047 68.4573 5.5238L68.9145 7.23809C68.9145 7.23809 70.1716 11.9048 70.4002 12.8571H65.143V12.7619Z" fill="#3362AB"/>
<path d="M55.7718 13.3333C55.7718 17.3333 51.4289 20 44.6861 20C41.8289 20 39.0861 19.5238 37.6003 18.9524L38.5146 14.5714L39.3146 14.8571C41.3718 15.619 42.7432 15.9048 45.2575 15.9048C47.0861 15.9048 49.0289 15.3333 49.0289 14C49.0289 13.1429 48.2289 12.5714 45.7146 11.619C43.3146 10.6667 40.1146 9.14286 40.1146 6.38095C40.1146 2.57143 44.5718 0 50.8575 0C53.2575 0 55.3146 0.380952 56.5718 0.857143L55.6575 5.04762L55.2003 4.66667C54.0575 4.28571 52.5718 3.90476 50.4003 3.90476C48.0003 4 46.8575 4.85714 46.8575 5.61905C46.8575 6.47619 48.2289 7.14286 50.4003 8C54.0575 9.42857 55.7718 11.0476 55.7718 13.3333Z" fill="#3362AB"/>
<path d="M0 0.476167L0.114286 0.0952148H9.94286C11.3143 0.0952148 12.3429 0.476167 12.6857 1.71426L14.8571 10.2857C12.6857 5.71426 7.65714 1.99998 0 0.476167Z" fill="#F9B50B"/>
<path d="M28.6861 0.285729L18.7433 19.6191H12.0004L6.28613 3.42859C10.4004 5.61906 13.829 9.04763 15.0861 11.4286L15.7718 13.4286L21.9433 0.190491H28.6861V0.285729Z" fill="#3362AB"/>
<path d="M31.3145 0.190491H37.6002L33.6002 19.6191H27.3145L31.3145 0.190491Z" fill="#3362AB"/>
</svg>
