<svg width="1920" height="1294" viewBox="0 0 1920 1294" fill="none" xmlns="http://www.w3.org/2000/svg">
<path d="M1409 1.86823C1571.05 1.86823 1726.46 67.364 1841.04 183.947C1955.63 300.53 2020 458.651 2020 623.524C2020 788.398 1955.63 946.518 1841.04 1063.1C1726.46 1179.68 1571.05 1245.18 1409 1245.18" stroke="#52598B" stroke-linecap="round" stroke-dasharray="12.49 16.65"/>
<path d="M449.73 1241.44L449.404 1242.38L449.73 1241.44ZM862.633 1280.32L862.362 1279.35L862.633 1280.32ZM1397.33 1245.15C1397.87 1245.24 1398.39 1244.88 1398.49 1244.34C1398.58 1243.79 1398.22 1243.27 1397.67 1243.18L1397.33 1245.15ZM6.01402 1240.06C6.52788 1239.86 6.78038 1239.28 6.57798 1238.77C6.37558 1238.25 5.79494 1238 5.28108 1238.2L6.01402 1240.06ZM20.7213 1232.59C20.1979 1232.77 19.9165 1233.33 20.0928 1233.86C20.2691 1234.38 20.8363 1234.66 21.3597 1234.49L20.7213 1232.59ZM33.0022 1230.76C33.5306 1230.6 33.8287 1230.04 33.6681 1229.51C33.5074 1228.98 32.9488 1228.69 32.4204 1228.85L33.0022 1230.76ZM48.2206 1224.34C47.6871 1224.49 47.3701 1225.03 47.5127 1225.57C47.6552 1226.1 48.2034 1226.42 48.7369 1226.28L48.2206 1224.34ZM60.6247 1223.25C61.1614 1223.12 61.4908 1222.57 61.3604 1222.04C61.23 1221.5 60.6893 1221.17 60.1526 1221.3L60.6247 1223.25ZM76.091 1217.67C75.5509 1217.78 75.2065 1218.32 75.3218 1218.86C75.4371 1219.4 75.9685 1219.74 76.5086 1219.62L76.091 1217.67ZM88.5226 1217.18C89.0649 1217.08 89.4197 1216.56 89.3151 1216.01C89.2105 1215.47 88.6861 1215.12 88.1438 1215.22L88.5226 1217.18ZM104.305 1212.32C103.76 1212.41 103.393 1212.92 103.483 1213.47C103.574 1214.01 104.09 1214.38 104.634 1214.29L104.305 1212.32ZM116.738 1212.38C117.284 1212.3 117.662 1211.79 117.581 1211.25C117.5 1210.7 116.991 1210.32 116.445 1210.41L116.738 1212.38ZM132.724 1208.19C132.176 1208.26 131.786 1208.76 131.854 1209.31C131.922 1209.86 132.422 1210.25 132.97 1210.18L132.724 1208.19ZM145.129 1208.78C145.678 1208.72 146.076 1208.23 146.018 1207.68C145.959 1207.13 145.467 1206.73 144.918 1206.79L145.129 1208.78ZM161.257 1205.25C160.706 1205.29 160.297 1205.77 160.343 1206.32C160.389 1206.87 160.872 1207.28 161.422 1207.24L161.257 1205.25ZM173.627 1206.33C174.178 1206.29 174.596 1205.82 174.559 1205.27C174.523 1204.72 174.047 1204.3 173.496 1204.33L173.627 1206.33ZM189.877 1203.44C189.325 1203.46 188.897 1203.93 188.921 1204.48C188.945 1205.03 189.411 1205.46 189.963 1205.44L189.877 1203.44ZM202.193 1205.01C202.745 1205 203.18 1204.54 203.166 1203.99C203.151 1203.44 202.692 1203 202.14 1203.01L202.193 1205.01ZM218.535 1202.77C217.982 1202.77 217.536 1203.22 217.538 1203.77C217.541 1204.32 217.99 1204.77 218.542 1204.77L218.535 1202.77ZM230.791 1204.82C231.343 1204.83 231.796 1204.39 231.804 1203.84C231.811 1203.29 231.369 1202.83 230.817 1202.82L230.791 1204.82ZM247.205 1203.22C246.653 1203.2 246.19 1203.63 246.17 1204.19C246.15 1204.74 246.582 1205.2 247.134 1205.22L247.205 1203.22ZM259.389 1205.76C259.94 1205.79 260.411 1205.37 260.44 1204.82C260.469 1204.26 260.045 1203.79 259.494 1203.76L259.389 1205.76ZM275.854 1204.81C275.304 1204.77 274.824 1205.18 274.782 1205.73C274.741 1206.28 275.153 1206.76 275.704 1206.81L275.854 1204.81ZM287.949 1207.84C288.499 1207.89 288.986 1207.48 289.037 1206.93C289.088 1206.38 288.684 1205.9 288.134 1205.84L287.949 1207.84ZM304.431 1207.54C303.882 1207.48 303.386 1207.87 303.322 1208.42C303.258 1208.97 303.652 1209.47 304.2 1209.53L304.431 1207.54ZM316.341 1211.04C316.889 1211.12 317.392 1210.73 317.465 1210.18C317.538 1209.64 317.153 1209.13 316.606 1209.06L316.341 1211.04ZM332.826 1211.42C332.281 1211.33 331.769 1211.7 331.683 1212.25C331.598 1212.79 331.97 1213.31 332.516 1213.39L332.826 1211.42ZM344.618 1215.4C345.162 1215.5 345.681 1215.13 345.776 1214.59C345.871 1214.05 345.507 1213.53 344.963 1213.43L344.618 1215.4ZM361.084 1216.45C360.543 1216.34 360.016 1216.69 359.908 1217.24C359.8 1217.78 360.151 1218.3 360.693 1218.41L361.084 1216.45ZM372.69 1220.92C373.23 1221.03 373.763 1220.69 373.88 1220.15C373.998 1219.61 373.656 1219.08 373.116 1218.96L372.69 1220.92ZM389.083 1222.64C388.546 1222.51 388.005 1222.84 387.875 1223.38C387.745 1223.91 388.074 1224.45 388.611 1224.58L389.083 1222.64ZM400.495 1227.58C401.029 1227.72 401.576 1227.4 401.716 1226.87C401.856 1226.34 401.536 1225.79 401.002 1225.65L400.495 1227.58ZM416.817 1229.99C416.286 1229.84 415.732 1230.15 415.58 1230.68C415.427 1231.21 415.733 1231.76 416.264 1231.92L416.817 1229.99ZM428.018 1235.41C428.546 1235.58 429.105 1235.28 429.268 1234.75C429.43 1234.22 429.134 1233.67 428.606 1233.5L428.018 1235.41ZM444.205 1238.51C443.681 1238.33 443.114 1238.61 442.939 1239.14C442.764 1239.66 443.047 1240.23 443.571 1240.4L444.205 1238.51ZM455.123 1244.33C455.646 1244.51 456.213 1244.23 456.39 1243.7C456.567 1243.18 456.286 1242.61 455.762 1242.44L455.123 1244.33ZM470.92 1247.42C470.394 1247.25 469.831 1247.54 469.662 1248.07C469.494 1248.59 469.784 1249.16 470.31 1249.32L470.92 1247.42ZM481.777 1252.92C482.305 1253.08 482.864 1252.78 483.026 1252.25C483.188 1251.73 482.892 1251.17 482.364 1251L481.777 1252.92ZM497.682 1255.57C497.151 1255.42 496.597 1255.72 496.443 1256.25C496.29 1256.78 496.596 1257.34 497.126 1257.49L497.682 1255.57ZM508.669 1260.75C509.202 1260.9 509.753 1260.59 509.9 1260.06C510.046 1259.52 509.734 1258.97 509.202 1258.83L508.669 1260.75ZM524.619 1262.95C524.085 1262.81 523.539 1263.13 523.401 1263.66C523.263 1264.2 523.584 1264.74 524.119 1264.88L524.619 1262.95ZM535.769 1267.82C536.305 1267.95 536.847 1267.62 536.978 1267.08C537.11 1266.55 536.782 1266.01 536.245 1265.88L535.769 1267.82ZM551.798 1269.55C551.26 1269.43 550.724 1269.77 550.601 1270.31C550.478 1270.85 550.816 1271.38 551.354 1271.5L551.798 1269.55ZM563.081 1274.1C563.621 1274.21 564.153 1273.87 564.268 1273.33C564.384 1272.79 564.04 1272.26 563.5 1272.14L563.081 1274.1ZM579.142 1275.36C578.6 1275.25 578.075 1275.61 577.968 1276.15C577.861 1276.69 578.214 1277.22 578.756 1277.32L579.142 1275.36ZM590.515 1279.56C591.058 1279.66 591.579 1279.3 591.679 1278.76C591.779 1278.21 591.419 1277.69 590.876 1277.59L590.515 1279.56ZM606.605 1280.34C606.06 1280.25 605.545 1280.62 605.455 1281.16C605.365 1281.71 605.733 1282.22 606.278 1282.31L606.605 1280.34ZM618.169 1284.2C618.715 1284.29 619.225 1283.91 619.308 1283.37C619.391 1282.82 619.016 1282.31 618.47 1282.23L618.169 1284.2ZM634.28 1284.49C633.732 1284.42 633.229 1284.8 633.156 1285.35C633.082 1285.9 633.467 1286.4 634.014 1286.47L634.28 1284.49ZM645.938 1287.99C646.486 1288.06 646.984 1287.66 647.05 1287.12C647.116 1286.57 646.725 1286.07 646.177 1286L645.938 1287.99ZM662.049 1287.77C661.5 1287.71 661.009 1288.11 660.953 1288.66C660.897 1289.21 661.297 1289.7 661.847 1289.76L662.049 1287.77ZM673.801 1290.89C674.351 1290.94 674.836 1290.53 674.884 1289.98C674.933 1289.43 674.526 1288.95 673.976 1288.9L673.801 1290.89ZM689.899 1290.14C689.348 1290.1 688.871 1290.52 688.833 1291.07C688.796 1291.62 689.212 1292.1 689.763 1292.14L689.899 1290.14ZM701.746 1292.87C702.298 1292.9 702.769 1292.47 702.799 1291.92C702.828 1291.37 702.405 1290.9 701.854 1290.87L701.746 1292.87ZM717.809 1291.57C717.257 1291.55 716.794 1291.98 716.776 1292.53C716.757 1293.09 717.19 1293.55 717.742 1293.57L717.809 1291.57ZM729.748 1293.88C730.3 1293.89 730.756 1293.45 730.766 1292.9C730.776 1292.34 730.336 1291.89 729.784 1291.88L729.748 1293.88ZM745.733 1292C745.181 1292 744.734 1292.45 744.736 1293C744.738 1293.55 745.188 1294 745.74 1294L745.733 1292ZM757.748 1293.85C758.301 1293.84 758.739 1293.38 758.728 1292.83C758.717 1292.28 758.26 1291.84 757.708 1291.85L757.748 1293.85ZM773.667 1291.34C773.115 1291.36 772.688 1291.83 772.712 1292.38C772.736 1292.93 773.203 1293.36 773.755 1293.34L773.667 1291.34ZM785.763 1292.69C786.314 1292.66 786.732 1292.18 786.698 1291.63C786.663 1291.08 786.187 1290.66 785.636 1290.7L785.763 1292.69ZM801.524 1289.47C800.974 1289.52 800.569 1290.01 800.619 1290.56C800.67 1291.11 801.156 1291.51 801.706 1291.46L801.524 1289.47ZM813.666 1290.23C814.214 1290.17 814.608 1289.68 814.545 1289.13C814.482 1288.58 813.986 1288.18 813.438 1288.25L813.666 1290.23ZM829.222 1286.16C828.676 1286.24 828.3 1286.75 828.383 1287.3C828.465 1287.85 828.975 1288.22 829.521 1288.14L829.222 1286.16ZM841.446 1286.15C841.99 1286.05 842.349 1285.52 842.248 1284.98C842.148 1284.44 841.626 1284.08 841.083 1284.18L841.446 1286.15ZM856.609 1280.87C856.073 1281 855.745 1281.54 855.878 1282.08C856.01 1282.61 856.552 1282.94 857.088 1282.81L856.609 1280.87ZM868.584 1279.63C869.113 1279.47 869.414 1278.92 869.256 1278.39C869.097 1277.86 868.54 1277.56 868.011 1277.71L868.584 1279.63ZM882.796 1272.95C882.273 1273.13 881.996 1273.7 882.175 1274.23C882.355 1274.75 882.924 1275.03 883.446 1274.85L882.796 1272.95ZM894.501 1270.88C895.019 1270.69 895.282 1270.11 895.089 1269.59C894.896 1269.08 894.321 1268.81 893.803 1269.01L894.501 1270.88ZM908.342 1263.38C907.829 1263.58 907.579 1264.17 907.784 1264.68C907.989 1265.19 908.571 1265.44 909.084 1265.24L908.342 1263.38ZM919.939 1260.84C920.45 1260.63 920.695 1260.05 920.486 1259.53C920.277 1259.02 919.693 1258.78 919.182 1258.99L919.939 1260.84ZM933.617 1253.07C933.106 1253.28 932.86 1253.86 933.069 1254.37C933.278 1254.88 933.861 1255.13 934.373 1254.92L933.617 1253.07ZM945.218 1250.55C945.732 1250.34 945.983 1249.76 945.779 1249.25C945.576 1248.74 944.994 1248.49 944.481 1248.69L945.218 1250.55ZM959.094 1243.08C958.576 1243.27 958.311 1243.84 958.503 1244.36C958.694 1244.88 959.27 1245.14 959.788 1244.95L959.094 1243.08ZM970.782 1241.03C971.305 1240.85 971.583 1240.28 971.403 1239.76C971.224 1239.24 970.655 1238.96 970.133 1239.14L970.782 1241.03ZM984.988 1234.33C984.46 1234.49 984.162 1235.05 984.322 1235.58C984.483 1236.1 985.041 1236.4 985.57 1236.24L984.988 1234.33ZM996.786 1233.01C997.319 1232.87 997.634 1232.32 997.488 1231.78C997.343 1231.25 996.794 1230.94 996.261 1231.08L996.786 1233.01ZM1011.45 1227.26C1010.92 1227.39 1010.58 1227.92 1010.7 1228.46C1010.83 1229 1011.37 1229.33 1011.9 1229.21L1011.45 1227.26ZM1023.3 1226.75C1023.84 1226.64 1024.19 1226.12 1024.08 1225.57C1023.98 1225.03 1023.45 1224.68 1022.91 1224.79L1023.3 1226.75ZM1038.32 1221.99C1037.78 1222.08 1037.41 1222.59 1037.5 1223.14C1037.58 1223.68 1038.1 1224.05 1038.64 1223.96L1038.32 1221.99ZM1050.16 1222.24C1050.71 1222.16 1051.09 1221.66 1051.01 1221.11C1050.94 1220.56 1050.43 1220.18 1049.89 1220.25L1050.16 1222.24ZM1065.41 1218.38C1064.86 1218.43 1064.46 1218.93 1064.52 1219.48C1064.58 1220.02 1065.07 1220.42 1065.62 1220.37L1065.41 1218.38ZM1077.25 1219.27C1077.8 1219.22 1078.21 1218.74 1078.17 1218.19C1078.12 1217.64 1077.64 1217.23 1077.09 1217.28L1077.25 1219.27ZM1092.7 1216.19C1092.15 1216.22 1091.73 1216.69 1091.76 1217.24C1091.79 1217.8 1092.26 1218.22 1092.81 1218.19L1092.7 1216.19ZM1104.56 1217.63C1105.12 1217.61 1105.55 1217.15 1105.52 1216.59C1105.5 1216.04 1105.04 1215.61 1104.49 1215.63L1104.56 1217.63ZM1120.04 1215.21C1119.49 1215.22 1119.05 1215.68 1119.06 1216.23C1119.07 1216.78 1119.52 1217.22 1120.08 1217.21L1120.04 1215.21ZM1131.74 1217.11C1132.29 1217.11 1132.74 1216.67 1132.74 1216.11C1132.73 1215.56 1132.29 1215.11 1131.73 1215.11L1131.74 1217.11ZM1147.45 1215.25C1146.89 1215.24 1146.44 1215.68 1146.43 1216.23C1146.42 1216.78 1146.86 1217.24 1147.41 1217.25L1147.45 1215.25ZM1159.02 1217.53C1159.57 1217.55 1160.03 1217.11 1160.05 1216.56C1160.06 1216.01 1159.63 1215.55 1159.08 1215.53L1159.02 1217.53ZM1174.69 1216.13C1174.13 1216.1 1173.67 1216.53 1173.64 1217.08C1173.62 1217.63 1174.04 1218.1 1174.59 1218.13L1174.69 1216.13ZM1186.36 1218.73C1186.91 1218.77 1187.39 1218.34 1187.42 1217.79C1187.45 1217.24 1187.03 1216.77 1186.48 1216.74L1186.36 1218.73ZM1201.96 1217.73C1201.41 1217.69 1200.93 1218.1 1200.89 1218.65C1200.86 1219.2 1201.27 1219.68 1201.82 1219.72L1201.96 1217.73ZM1213.68 1220.61C1214.23 1220.65 1214.71 1220.24 1214.75 1219.69C1214.8 1219.14 1214.39 1218.66 1213.84 1218.62L1213.68 1220.61ZM1229.21 1219.93C1228.66 1219.88 1228.18 1220.29 1228.13 1220.84C1228.08 1221.39 1228.48 1221.87 1229.03 1221.92L1229.21 1219.93ZM1240.86 1223.05C1241.41 1223.11 1241.9 1222.71 1241.96 1222.16C1242.01 1221.61 1241.61 1221.12 1241.06 1221.06L1240.86 1223.05ZM1256.41 1222.66C1255.86 1222.6 1255.37 1223 1255.31 1223.55C1255.25 1224.1 1255.64 1224.59 1256.19 1224.65L1256.41 1222.66ZM1268.03 1225.99C1268.58 1226.05 1269.08 1225.66 1269.14 1225.11C1269.21 1224.56 1268.81 1224.07 1268.27 1224L1268.03 1225.99ZM1283.55 1225.85C1283 1225.78 1282.5 1226.17 1282.43 1226.72C1282.36 1227.26 1282.75 1227.76 1283.3 1227.83L1283.55 1225.85ZM1295.07 1229.34C1295.62 1229.41 1296.12 1229.03 1296.2 1228.48C1296.27 1227.93 1295.88 1227.43 1295.33 1227.36L1295.07 1229.34ZM1310.65 1229.43C1310.1 1229.36 1309.6 1229.74 1309.52 1230.28C1309.44 1230.83 1309.83 1231.34 1310.37 1231.41L1310.65 1229.43ZM1322.04 1233.07C1322.58 1233.15 1323.09 1232.77 1323.17 1232.22C1323.25 1231.67 1322.87 1231.17 1322.32 1231.09L1322.04 1233.07ZM1337.74 1233.37C1337.2 1233.29 1336.69 1233.66 1336.6 1234.21C1336.52 1234.76 1336.9 1235.27 1337.44 1235.35L1337.74 1233.37ZM1348.97 1237.12C1349.51 1237.21 1350.02 1236.84 1350.11 1236.29C1350.2 1235.75 1349.82 1235.23 1349.28 1235.15L1348.97 1237.12ZM1364.87 1237.64C1364.33 1237.55 1363.81 1237.92 1363.72 1238.46C1363.64 1239.01 1364.01 1239.52 1364.55 1239.61L1364.87 1237.64ZM1375.92 1241.49C1376.46 1241.58 1376.98 1241.21 1377.07 1240.67C1377.16 1240.12 1376.79 1239.61 1376.25 1239.51L1375.92 1241.49ZM1391.76 1242.15C1391.21 1242.06 1390.7 1242.42 1390.6 1242.96C1390.51 1243.51 1390.87 1244.03 1391.42 1244.12L1391.76 1242.15ZM0.388982 1242.36C2.18082 1241.6 4.05647 1240.83 6.01402 1240.06L5.28108 1238.2C3.30921 1238.98 1.41852 1239.75 -0.388982 1240.51L0.388982 1242.36ZM21.3597 1234.49C25.0509 1233.24 28.9343 1232 33.0022 1230.76L32.4204 1228.85C28.3342 1230.09 24.4319 1231.34 20.7213 1232.59L21.3597 1234.49ZM48.7369 1226.28C52.5744 1225.25 56.5386 1224.24 60.6247 1223.25L60.1526 1221.3C56.0519 1222.3 52.073 1223.31 48.2206 1224.34L48.7369 1226.28ZM76.5086 1219.62C80.422 1218.79 84.4278 1217.97 88.5226 1217.18L88.1438 1215.22C84.0361 1216.01 80.0174 1216.83 76.091 1217.67L76.5086 1219.62ZM104.634 1214.29C108.598 1213.63 112.634 1212.99 116.738 1212.38L116.445 1210.41C112.329 1211.02 108.281 1211.65 104.305 1212.32L104.634 1214.29ZM132.97 1210.18C136.966 1209.68 141.02 1209.22 145.129 1208.78L144.918 1206.79C140.797 1207.23 136.732 1207.7 132.724 1208.19L132.97 1210.18ZM161.422 1207.24C165.445 1206.9 169.514 1206.6 173.627 1206.33L173.496 1204.33C169.371 1204.61 165.29 1204.91 161.257 1205.25L161.422 1207.24ZM189.963 1205.44C194.001 1205.26 198.078 1205.12 202.193 1205.01L202.14 1203.01C198.014 1203.12 193.926 1203.27 189.877 1203.44L189.963 1205.44ZM218.542 1204.77C222.593 1204.75 226.676 1204.77 230.791 1204.82L230.817 1202.82C226.691 1202.77 222.597 1202.75 218.535 1202.77L218.542 1204.77ZM247.134 1205.22C251.192 1205.37 255.277 1205.55 259.389 1205.76L259.494 1203.76C255.371 1203.55 251.274 1203.37 247.205 1203.22L247.134 1205.22ZM275.704 1206.81C279.763 1207.11 283.845 1207.46 287.949 1207.84L288.134 1205.84C284.019 1205.46 279.925 1205.12 275.854 1204.81L275.704 1206.81ZM304.2 1209.53C308.229 1210 312.276 1210.5 316.341 1211.04L316.606 1209.06C312.529 1208.52 308.47 1208.01 304.431 1207.54L304.2 1209.53ZM332.516 1213.39C336.535 1214.02 340.569 1214.69 344.618 1215.4L344.963 1213.43C340.902 1212.72 336.857 1212.05 332.826 1211.42L332.516 1213.39ZM360.693 1218.41C364.68 1219.21 368.679 1220.04 372.69 1220.92L373.116 1218.96C369.093 1218.09 365.082 1217.25 361.084 1216.45L360.693 1218.41ZM388.611 1224.58C392.562 1225.54 396.524 1226.54 400.495 1227.58L401.002 1225.65C397.019 1224.61 393.046 1223.6 389.083 1222.64L388.611 1224.58ZM416.264 1231.92C420.174 1233.04 424.093 1234.21 428.018 1235.41L428.606 1233.5C424.669 1232.29 420.739 1231.12 416.817 1229.99L416.264 1231.92ZM443.571 1240.4C445.514 1241.05 447.458 1241.71 449.404 1242.38L450.055 1240.49C448.104 1239.82 446.153 1239.16 444.205 1238.51L443.571 1240.4ZM449.404 1242.38C451.314 1243.04 453.22 1243.69 455.123 1244.33L455.762 1242.44C453.864 1241.79 451.961 1241.15 450.055 1240.49L449.404 1242.38ZM470.31 1249.32C474.148 1250.55 477.971 1251.75 481.777 1252.92L482.364 1251C478.565 1249.84 474.75 1248.64 470.92 1247.42L470.31 1249.32ZM497.126 1257.49C500.992 1258.61 504.84 1259.7 508.669 1260.75L509.202 1258.83C505.38 1257.77 501.54 1256.69 497.682 1255.57L497.126 1257.49ZM524.119 1264.88C528.023 1265.89 531.906 1266.87 535.769 1267.82L536.245 1265.88C532.391 1264.93 528.515 1263.95 524.619 1262.95L524.119 1264.88ZM551.354 1271.5C555.287 1272.4 559.196 1273.26 563.081 1274.1L563.5 1272.14C559.623 1271.31 555.722 1270.45 551.798 1269.55L551.354 1271.5ZM578.756 1277.32C582.703 1278.1 586.622 1278.84 590.515 1279.56L590.876 1277.59C586.992 1276.88 583.08 1276.14 579.142 1275.36L578.756 1277.32ZM606.278 1282.31C610.273 1282.98 614.237 1283.61 618.169 1284.2L618.47 1282.23C614.547 1281.63 610.591 1281 606.605 1280.34L606.278 1282.31ZM634.014 1286.47C638.025 1287.01 642 1287.52 645.938 1287.99L646.177 1286C642.247 1285.53 638.282 1285.03 634.28 1284.49L634.014 1286.47ZM661.847 1289.76C665.874 1290.17 669.859 1290.54 673.801 1290.89L673.976 1288.9C670.043 1288.55 666.067 1288.18 662.049 1287.77L661.847 1289.76ZM689.763 1292.14C693.808 1292.41 697.803 1292.66 701.746 1292.87L701.854 1290.87C697.92 1290.66 693.935 1290.42 689.899 1290.14L689.763 1292.14ZM717.742 1293.57C721.805 1293.7 725.808 1293.81 729.748 1293.88L729.784 1291.88C725.854 1291.81 721.862 1291.7 717.809 1291.57L717.742 1293.57ZM745.74 1294C749.819 1293.98 753.823 1293.93 757.748 1293.85L757.708 1291.85C753.793 1291.93 749.801 1291.98 745.733 1292L745.74 1294ZM773.755 1293.34C777.858 1293.16 781.861 1292.94 785.763 1292.69L785.636 1290.7C781.747 1290.94 777.757 1291.16 773.667 1291.34L773.755 1293.34ZM801.706 1291.46C805.832 1291.09 809.82 1290.68 813.666 1290.23L813.438 1288.25C809.608 1288.69 805.635 1289.1 801.524 1289.47L801.706 1291.46ZM829.521 1288.14C833.721 1287.51 837.699 1286.84 841.446 1286.15L841.083 1284.18C837.358 1284.87 833.402 1285.53 829.222 1286.16L829.521 1288.14ZM857.088 1282.81C859.138 1282.3 861.077 1281.79 862.903 1281.28L862.362 1279.35C860.558 1279.86 858.64 1280.37 856.609 1280.87L857.088 1282.81ZM862.903 1281.28C864.819 1280.74 866.712 1280.19 868.584 1279.63L868.011 1277.71C866.149 1278.27 864.267 1278.82 862.362 1279.35L862.903 1281.28ZM883.446 1274.85C887.191 1273.56 890.87 1272.23 894.501 1270.88L893.803 1269.01C890.185 1270.35 886.523 1271.67 882.796 1272.95L883.446 1274.85ZM909.084 1265.24C912.717 1263.79 916.329 1262.32 919.939 1260.84L919.182 1258.99C915.574 1260.46 911.968 1261.93 908.342 1263.38L909.084 1265.24ZM934.373 1254.92C937.956 1253.46 941.564 1252 945.218 1250.55L944.481 1248.69C940.818 1250.14 937.204 1251.6 933.617 1253.07L934.373 1254.92ZM959.788 1244.95C963.383 1243.62 967.042 1242.31 970.782 1241.03L970.133 1239.14C966.376 1240.43 962.702 1241.74 959.094 1243.08L959.788 1244.95ZM985.57 1236.24C989.218 1235.13 992.952 1234.06 996.786 1233.01L996.261 1231.08C992.408 1232.13 988.654 1233.21 984.988 1234.33L985.57 1236.24ZM1011.9 1229.21C1015.61 1228.36 1019.4 1227.54 1023.3 1226.75L1022.91 1224.79C1018.99 1225.58 1015.17 1226.4 1011.45 1227.26L1011.9 1229.21ZM1038.64 1223.96C1042.39 1223.35 1046.22 1222.78 1050.16 1222.24L1049.89 1220.25C1045.93 1220.8 1042.08 1221.38 1038.32 1221.99L1038.64 1223.96ZM1065.62 1220.37C1069.41 1219.97 1073.28 1219.6 1077.25 1219.27L1077.09 1217.28C1073.1 1217.61 1069.21 1217.98 1065.41 1218.38L1065.62 1220.37ZM1092.81 1218.19C1096.65 1217.97 1100.56 1217.78 1104.56 1217.63L1104.49 1215.63C1100.47 1215.79 1096.54 1215.97 1092.7 1216.19L1092.81 1218.19ZM1120.08 1217.21C1123.89 1217.15 1127.77 1217.12 1131.74 1217.11L1131.73 1215.11C1127.76 1215.12 1123.87 1215.15 1120.04 1215.21L1120.08 1217.21ZM1147.41 1217.25C1151.21 1217.32 1155.08 1217.41 1159.02 1217.53L1159.08 1215.53C1155.13 1215.41 1151.26 1215.32 1147.45 1215.25L1147.41 1217.25ZM1174.59 1218.13C1178.45 1218.3 1182.37 1218.51 1186.36 1218.73L1186.48 1216.74C1182.48 1216.51 1178.55 1216.31 1174.69 1216.13L1174.59 1218.13ZM1201.82 1219.72C1205.71 1219.99 1209.67 1220.29 1213.68 1220.61L1213.84 1218.62C1209.82 1218.3 1205.86 1218 1201.96 1217.73L1201.82 1219.72ZM1229.03 1221.92C1232.92 1222.28 1236.87 1222.65 1240.86 1223.05L1241.06 1221.06C1237.06 1220.66 1233.11 1220.29 1229.21 1219.93L1229.03 1221.92ZM1256.19 1224.65C1260.09 1225.08 1264.04 1225.52 1268.03 1225.99L1268.27 1224C1264.26 1223.54 1260.31 1223.09 1256.41 1222.66L1256.19 1224.65ZM1283.3 1227.83C1287.18 1228.32 1291.1 1228.82 1295.07 1229.34L1295.33 1227.36C1291.36 1226.84 1287.43 1226.33 1283.55 1225.85L1283.3 1227.83ZM1310.37 1231.41C1314.22 1231.95 1318.11 1232.5 1322.04 1233.07L1322.32 1231.09C1318.39 1230.52 1314.5 1229.97 1310.65 1229.43L1310.37 1231.41ZM1337.44 1235.35C1341.24 1235.93 1345.09 1236.52 1348.97 1237.12L1349.28 1235.15C1345.39 1234.54 1341.55 1233.95 1337.74 1233.37L1337.44 1235.35ZM1364.55 1239.61C1368.31 1240.22 1372.09 1240.85 1375.92 1241.49L1376.25 1239.51C1372.42 1238.87 1368.63 1238.25 1364.87 1237.64L1364.55 1239.61ZM1391.42 1244.12C1393.38 1244.46 1395.35 1244.8 1397.33 1245.15L1397.67 1243.18C1395.69 1242.83 1393.72 1242.49 1391.76 1242.15L1391.42 1244.12Z" fill="#52598B"/>
<g filter="url(#filter0_ddf_747_963)">
<ellipse cx="868" cy="1275.7" rx="8" ry="8.13952" fill="#78B6F4"/>
<path d="M873 1275.7C873 1278.59 870.713 1280.84 868 1280.84C865.287 1280.84 863 1278.59 863 1275.7C863 1272.82 865.287 1270.56 868 1270.56C870.713 1270.56 873 1272.82 873 1275.7Z" stroke="#78B6F4" stroke-width="6"/>
</g>
<g filter="url(#filter1_ddf_747_963)">
<ellipse cx="1401" cy="1245.18" rx="8" ry="8.13952" fill="#78B6F4"/>
<path d="M1406 1245.18C1406 1248.07 1403.71 1250.32 1401 1250.32C1398.29 1250.32 1396 1248.07 1396 1245.18C1396 1242.29 1398.29 1240.04 1401 1240.04C1403.71 1240.04 1406 1242.29 1406 1245.18Z" stroke="#78B6F4" stroke-width="6"/>
</g>
<g filter="url(#filter2_ddf_747_963)">
<ellipse cx="485" cy="1253.32" rx="8" ry="8.13952" fill="#78B6F4"/>
<path d="M490 1253.32C490 1256.21 487.713 1258.46 485 1258.46C482.287 1258.46 480 1256.21 480 1253.32C480 1250.43 482.287 1248.18 485 1248.18C487.713 1248.18 490 1250.43 490 1253.32Z" stroke="#78B6F4" stroke-width="6"/>
</g>
<defs>
<filter id="filter0_ddf_747_963" x="853" y="1260.56" width="30" height="30.279" filterUnits="userSpaceOnUse" color-interpolation-filters="sRGB">
<feFlood flood-opacity="0" result="BackgroundImageFix"/>
<feColorMatrix in="SourceAlpha" type="matrix" values="0 0 0 0 0 0 0 0 0 0 0 0 0 0 0 0 0 0 127 0" result="hardAlpha"/>
<feOffset dx="2" dy="2"/>
<feGaussianBlur stdDeviation="2.5"/>
<feComposite in2="hardAlpha" operator="out"/>
<feColorMatrix type="matrix" values="0 0 0 0 1 0 0 0 0 1 0 0 0 0 1 0 0 0 0.26 0"/>
<feBlend mode="normal" in2="BackgroundImageFix" result="effect1_dropShadow_747_963"/>
<feColorMatrix in="SourceAlpha" type="matrix" values="0 0 0 0 0 0 0 0 0 0 0 0 0 0 0 0 0 0 127 0" result="hardAlpha"/>
<feOffset dx="-2" dy="-2"/>
<feGaussianBlur stdDeviation="2.5"/>
<feComposite in2="hardAlpha" operator="out"/>
<feColorMatrix type="matrix" values="0 0 0 0 1 0 0 0 0 1 0 0 0 0 1 0 0 0 0.25 0"/>
<feBlend mode="normal" in2="effect1_dropShadow_747_963" result="effect2_dropShadow_747_963"/>
<feBlend mode="normal" in="SourceGraphic" in2="effect2_dropShadow_747_963" result="shape"/>
<feGaussianBlur stdDeviation="1" result="effect3_foregroundBlur_747_963"/>
</filter>
<filter id="filter1_ddf_747_963" x="1386" y="1230.04" width="30" height="30.279" filterUnits="userSpaceOnUse" color-interpolation-filters="sRGB">
<feFlood flood-opacity="0" result="BackgroundImageFix"/>
<feColorMatrix in="SourceAlpha" type="matrix" values="0 0 0 0 0 0 0 0 0 0 0 0 0 0 0 0 0 0 127 0" result="hardAlpha"/>
<feOffset dx="2" dy="2"/>
<feGaussianBlur stdDeviation="2.5"/>
<feComposite in2="hardAlpha" operator="out"/>
<feColorMatrix type="matrix" values="0 0 0 0 1 0 0 0 0 1 0 0 0 0 1 0 0 0 0.26 0"/>
<feBlend mode="normal" in2="BackgroundImageFix" result="effect1_dropShadow_747_963"/>
<feColorMatrix in="SourceAlpha" type="matrix" values="0 0 0 0 0 0 0 0 0 0 0 0 0 0 0 0 0 0 127 0" result="hardAlpha"/>
<feOffset dx="-2" dy="-2"/>
<feGaussianBlur stdDeviation="2.5"/>
<feComposite in2="hardAlpha" operator="out"/>
<feColorMatrix type="matrix" values="0 0 0 0 1 0 0 0 0 1 0 0 0 0 1 0 0 0 0.25 0"/>
<feBlend mode="normal" in2="effect1_dropShadow_747_963" result="effect2_dropShadow_747_963"/>
<feBlend mode="normal" in="SourceGraphic" in2="effect2_dropShadow_747_963" result="shape"/>
<feGaussianBlur stdDeviation="1" result="effect3_foregroundBlur_747_963"/>
</filter>
<filter id="filter2_ddf_747_963" x="470" y="1238.18" width="30" height="30.279" filterUnits="userSpaceOnUse" color-interpolation-filters="sRGB">
<feFlood flood-opacity="0" result="BackgroundImageFix"/>
<feColorMatrix in="SourceAlpha" type="matrix" values="0 0 0 0 0 0 0 0 0 0 0 0 0 0 0 0 0 0 127 0" result="hardAlpha"/>
<feOffset dx="2" dy="2"/>
<feGaussianBlur stdDeviation="2.5"/>
<feComposite in2="hardAlpha" operator="out"/>
<feColorMatrix type="matrix" values="0 0 0 0 1 0 0 0 0 1 0 0 0 0 1 0 0 0 0.26 0"/>
<feBlend mode="normal" in2="BackgroundImageFix" result="effect1_dropShadow_747_963"/>
<feColorMatrix in="SourceAlpha" type="matrix" values="0 0 0 0 0 0 0 0 0 0 0 0 0 0 0 0 0 0 127 0" result="hardAlpha"/>
<feOffset dx="-2" dy="-2"/>
<feGaussianBlur stdDeviation="2.5"/>
<feComposite in2="hardAlpha" operator="out"/>
<feColorMatrix type="matrix" values="0 0 0 0 1 0 0 0 0 1 0 0 0 0 1 0 0 0 0.25 0"/>
<feBlend mode="normal" in2="effect1_dropShadow_747_963" result="effect2_dropShadow_747_963"/>
<feBlend mode="normal" in="SourceGraphic" in2="effect2_dropShadow_747_963" result="shape"/>
<feGaussianBlur stdDeviation="1" result="effect3_foregroundBlur_747_963"/>
</filter>
</defs>
</svg>
