<svg width="1920" height="1811" viewBox="0 0 1920 1811" fill="none" xmlns="http://www.w3.org/2000/svg">
<path d="M1409 518.868C1571.05 518.868 1726.46 584.364 1841.04 700.947C1955.63 817.53 2020 975.651 2020 1140.52C2020 1305.4 1955.63 1463.52 1841.04 1580.1C1726.46 1696.68 1571.05 1762.18 1409 1762.18" stroke="#52598B" stroke-linecap="round" stroke-dasharray="12.49 16.65"/>
<path d="M700.5 1.50007C688.5 132.75 757.416 245.772 846 349.973C986.277 492.697 1210.62 518.868 1409 518.868" stroke="#52598B" stroke-linecap="round" stroke-dasharray="15.29 20.39"/>
<path d="M449.73 1758.44L449.404 1759.38L449.73 1758.44ZM862.633 1797.32L862.362 1796.35L862.633 1797.32ZM1397.33 1762.15C1397.87 1762.24 1398.39 1761.88 1398.49 1761.34C1398.58 1760.79 1398.22 1760.27 1397.67 1760.18L1397.33 1762.15ZM6.01402 1757.06C6.52788 1756.86 6.78038 1756.28 6.57798 1755.77C6.37558 1755.25 5.79494 1755 5.28108 1755.2L6.01402 1757.06ZM20.7213 1749.59C20.1979 1749.77 19.9165 1750.33 20.0928 1750.86C20.2691 1751.38 20.8363 1751.66 21.3597 1751.49L20.7213 1749.59ZM33.0022 1747.76C33.5306 1747.6 33.8287 1747.04 33.6681 1746.51C33.5074 1745.98 32.9488 1745.69 32.4204 1745.85L33.0022 1747.76ZM48.2206 1741.34C47.6871 1741.49 47.3701 1742.03 47.5127 1742.57C47.6552 1743.1 48.2034 1743.42 48.7369 1743.28L48.2206 1741.34ZM60.6247 1740.25C61.1614 1740.12 61.4908 1739.57 61.3604 1739.04C61.23 1738.5 60.6893 1738.17 60.1526 1738.3L60.6247 1740.25ZM76.091 1734.67C75.5509 1734.78 75.2065 1735.32 75.3218 1735.86C75.4371 1736.4 75.9685 1736.74 76.5086 1736.62L76.091 1734.67ZM88.5226 1734.18C89.0649 1734.08 89.4197 1733.56 89.3151 1733.01C89.2105 1732.47 88.6861 1732.12 88.1438 1732.22L88.5226 1734.18ZM104.305 1729.32C103.76 1729.41 103.393 1729.92 103.483 1730.47C103.574 1731.01 104.09 1731.38 104.634 1731.29L104.305 1729.32ZM116.738 1729.38C117.284 1729.3 117.662 1728.79 117.581 1728.25C117.5 1727.7 116.991 1727.32 116.445 1727.41L116.738 1729.38ZM132.724 1725.19C132.176 1725.26 131.786 1725.76 131.854 1726.31C131.922 1726.86 132.422 1727.25 132.97 1727.18L132.724 1725.19ZM145.129 1725.78C145.678 1725.72 146.076 1725.23 146.018 1724.68C145.959 1724.13 145.467 1723.73 144.918 1723.79L145.129 1725.78ZM161.257 1722.25C160.706 1722.29 160.297 1722.77 160.343 1723.32C160.389 1723.87 160.872 1724.28 161.422 1724.24L161.257 1722.25ZM173.627 1723.33C174.178 1723.29 174.596 1722.82 174.559 1722.27C174.523 1721.72 174.047 1721.3 173.496 1721.33L173.627 1723.33ZM189.877 1720.44C189.325 1720.46 188.897 1720.93 188.921 1721.48C188.945 1722.03 189.411 1722.46 189.963 1722.44L189.877 1720.44ZM202.193 1722.01C202.745 1722 203.18 1721.54 203.166 1720.99C203.151 1720.44 202.692 1720 202.14 1720.01L202.193 1722.01ZM218.535 1719.77C217.982 1719.77 217.536 1720.22 217.538 1720.77C217.541 1721.32 217.99 1721.77 218.542 1721.77L218.535 1719.77ZM230.791 1721.82C231.343 1721.83 231.796 1721.39 231.804 1720.84C231.811 1720.29 231.369 1719.83 230.817 1719.82L230.791 1721.82ZM247.205 1720.22C246.653 1720.2 246.19 1720.63 246.17 1721.19C246.15 1721.74 246.582 1722.2 247.134 1722.22L247.205 1720.22ZM259.389 1722.76C259.94 1722.79 260.411 1722.37 260.44 1721.82C260.469 1721.26 260.045 1720.79 259.494 1720.76L259.389 1722.76ZM275.854 1721.81C275.304 1721.77 274.824 1722.18 274.782 1722.73C274.741 1723.28 275.153 1723.76 275.704 1723.81L275.854 1721.81ZM287.949 1724.84C288.499 1724.89 288.986 1724.48 289.037 1723.93C289.088 1723.38 288.684 1722.9 288.134 1722.84L287.949 1724.84ZM304.431 1724.54C303.882 1724.48 303.386 1724.87 303.322 1725.42C303.258 1725.97 303.652 1726.47 304.2 1726.53L304.431 1724.54ZM316.341 1728.04C316.889 1728.12 317.392 1727.73 317.465 1727.18C317.538 1726.64 317.153 1726.13 316.606 1726.06L316.341 1728.04ZM332.826 1728.42C332.281 1728.33 331.769 1728.7 331.683 1729.25C331.598 1729.79 331.97 1730.31 332.516 1730.39L332.826 1728.42ZM344.618 1732.4C345.162 1732.5 345.681 1732.13 345.776 1731.59C345.871 1731.05 345.507 1730.53 344.963 1730.43L344.618 1732.4ZM361.084 1733.45C360.543 1733.34 360.016 1733.69 359.908 1734.24C359.8 1734.78 360.151 1735.3 360.693 1735.41L361.084 1733.45ZM372.69 1737.92C373.23 1738.03 373.763 1737.69 373.88 1737.15C373.998 1736.61 373.656 1736.08 373.116 1735.96L372.69 1737.92ZM389.083 1739.64C388.546 1739.51 388.005 1739.84 387.875 1740.38C387.745 1740.91 388.074 1741.45 388.611 1741.58L389.083 1739.64ZM400.495 1744.58C401.029 1744.72 401.576 1744.4 401.716 1743.87C401.856 1743.34 401.536 1742.79 401.002 1742.65L400.495 1744.58ZM416.817 1746.99C416.286 1746.84 415.732 1747.15 415.58 1747.68C415.427 1748.21 415.733 1748.76 416.264 1748.92L416.817 1746.99ZM428.018 1752.41C428.546 1752.58 429.105 1752.28 429.268 1751.75C429.43 1751.22 429.134 1750.67 428.606 1750.5L428.018 1752.41ZM444.205 1755.51C443.681 1755.33 443.114 1755.61 442.939 1756.14C442.764 1756.66 443.047 1757.23 443.571 1757.4L444.205 1755.51ZM455.123 1761.33C455.646 1761.51 456.213 1761.23 456.39 1760.7C456.567 1760.18 456.286 1759.61 455.762 1759.44L455.123 1761.33ZM470.92 1764.42C470.394 1764.25 469.831 1764.54 469.662 1765.07C469.494 1765.59 469.784 1766.16 470.31 1766.32L470.92 1764.42ZM481.777 1769.92C482.305 1770.08 482.864 1769.78 483.026 1769.25C483.188 1768.73 482.892 1768.17 482.364 1768L481.777 1769.92ZM497.682 1772.57C497.151 1772.42 496.597 1772.72 496.443 1773.25C496.29 1773.78 496.596 1774.34 497.126 1774.49L497.682 1772.57ZM508.669 1777.75C509.202 1777.9 509.753 1777.59 509.9 1777.06C510.046 1776.52 509.734 1775.97 509.202 1775.83L508.669 1777.75ZM524.619 1779.95C524.085 1779.81 523.539 1780.13 523.401 1780.66C523.263 1781.2 523.584 1781.74 524.119 1781.88L524.619 1779.95ZM535.769 1784.82C536.305 1784.95 536.847 1784.62 536.978 1784.08C537.11 1783.55 536.782 1783.01 536.245 1782.88L535.769 1784.82ZM551.798 1786.55C551.26 1786.43 550.724 1786.77 550.601 1787.31C550.478 1787.85 550.816 1788.38 551.354 1788.5L551.798 1786.55ZM563.081 1791.1C563.621 1791.21 564.153 1790.87 564.268 1790.33C564.384 1789.79 564.04 1789.26 563.5 1789.14L563.081 1791.1ZM579.142 1792.36C578.6 1792.25 578.075 1792.61 577.968 1793.15C577.861 1793.69 578.214 1794.22 578.756 1794.32L579.142 1792.36ZM590.515 1796.56C591.058 1796.66 591.579 1796.3 591.679 1795.76C591.779 1795.21 591.419 1794.69 590.876 1794.59L590.515 1796.56ZM606.605 1797.34C606.06 1797.25 605.545 1797.62 605.455 1798.16C605.365 1798.71 605.733 1799.22 606.278 1799.31L606.605 1797.34ZM618.169 1801.2C618.715 1801.29 619.225 1800.91 619.308 1800.37C619.391 1799.82 619.016 1799.31 618.47 1799.23L618.169 1801.2ZM634.28 1801.49C633.732 1801.42 633.229 1801.8 633.156 1802.35C633.082 1802.9 633.467 1803.4 634.014 1803.47L634.28 1801.49ZM645.938 1804.99C646.486 1805.06 646.984 1804.66 647.05 1804.12C647.116 1803.57 646.725 1803.07 646.177 1803L645.938 1804.99ZM662.049 1804.77C661.5 1804.71 661.009 1805.11 660.953 1805.66C660.897 1806.21 661.297 1806.7 661.847 1806.76L662.049 1804.77ZM673.801 1807.89C674.351 1807.94 674.836 1807.53 674.884 1806.98C674.933 1806.43 674.526 1805.95 673.976 1805.9L673.801 1807.89ZM689.899 1807.14C689.348 1807.1 688.871 1807.52 688.833 1808.07C688.796 1808.62 689.212 1809.1 689.763 1809.14L689.899 1807.14ZM701.746 1809.87C702.298 1809.9 702.769 1809.47 702.799 1808.92C702.828 1808.37 702.405 1807.9 701.854 1807.87L701.746 1809.87ZM717.809 1808.57C717.257 1808.55 716.794 1808.98 716.776 1809.53C716.757 1810.09 717.19 1810.55 717.742 1810.57L717.809 1808.57ZM729.748 1810.88C730.3 1810.89 730.756 1810.45 730.766 1809.9C730.776 1809.34 730.336 1808.89 729.784 1808.88L729.748 1810.88ZM745.733 1809C745.181 1809 744.734 1809.45 744.736 1810C744.738 1810.55 745.188 1811 745.74 1811L745.733 1809ZM757.748 1810.85C758.301 1810.84 758.739 1810.38 758.728 1809.83C758.717 1809.28 758.26 1808.84 757.708 1808.85L757.748 1810.85ZM773.667 1808.34C773.115 1808.36 772.688 1808.83 772.712 1809.38C772.736 1809.93 773.203 1810.36 773.755 1810.34L773.667 1808.34ZM785.763 1809.69C786.314 1809.66 786.732 1809.18 786.698 1808.63C786.663 1808.08 786.187 1807.66 785.636 1807.7L785.763 1809.69ZM801.524 1806.47C800.974 1806.52 800.569 1807.01 800.619 1807.56C800.67 1808.11 801.156 1808.51 801.706 1808.46L801.524 1806.47ZM813.666 1807.23C814.214 1807.17 814.608 1806.68 814.545 1806.13C814.482 1805.58 813.986 1805.18 813.438 1805.25L813.666 1807.23ZM829.222 1803.16C828.676 1803.24 828.3 1803.75 828.383 1804.3C828.465 1804.85 828.975 1805.22 829.521 1805.14L829.222 1803.16ZM841.446 1803.15C841.99 1803.05 842.349 1802.52 842.248 1801.98C842.148 1801.44 841.626 1801.08 841.083 1801.18L841.446 1803.15ZM856.609 1797.87C856.073 1798 855.745 1798.54 855.878 1799.08C856.01 1799.61 856.552 1799.94 857.088 1799.81L856.609 1797.87ZM868.584 1796.63C869.113 1796.47 869.414 1795.92 869.256 1795.39C869.097 1794.86 868.54 1794.56 868.011 1794.71L868.584 1796.63ZM882.796 1789.95C882.273 1790.13 881.996 1790.7 882.175 1791.23C882.355 1791.75 882.924 1792.03 883.446 1791.85L882.796 1789.95ZM894.501 1787.88C895.019 1787.69 895.282 1787.11 895.089 1786.59C894.896 1786.08 894.321 1785.81 893.803 1786.01L894.501 1787.88ZM908.342 1780.38C907.829 1780.58 907.579 1781.17 907.784 1781.68C907.989 1782.19 908.571 1782.44 909.084 1782.24L908.342 1780.38ZM919.939 1777.84C920.45 1777.63 920.695 1777.05 920.486 1776.53C920.277 1776.02 919.693 1775.78 919.182 1775.99L919.939 1777.84ZM933.617 1770.07C933.106 1770.28 932.86 1770.86 933.069 1771.37C933.278 1771.88 933.861 1772.13 934.373 1771.92L933.617 1770.07ZM945.218 1767.55C945.732 1767.34 945.983 1766.76 945.779 1766.25C945.576 1765.74 944.994 1765.49 944.481 1765.69L945.218 1767.55ZM959.094 1760.08C958.576 1760.27 958.311 1760.84 958.503 1761.36C958.694 1761.88 959.27 1762.14 959.788 1761.95L959.094 1760.08ZM970.782 1758.03C971.305 1757.85 971.583 1757.28 971.403 1756.76C971.224 1756.24 970.655 1755.96 970.133 1756.14L970.782 1758.03ZM984.988 1751.33C984.46 1751.49 984.162 1752.05 984.322 1752.58C984.483 1753.1 985.041 1753.4 985.57 1753.24L984.988 1751.33ZM996.786 1750.01C997.319 1749.87 997.634 1749.32 997.488 1748.78C997.343 1748.25 996.794 1747.94 996.261 1748.08L996.786 1750.01ZM1011.45 1744.26C1010.92 1744.39 1010.58 1744.92 1010.7 1745.46C1010.83 1746 1011.37 1746.33 1011.9 1746.21L1011.45 1744.26ZM1023.3 1743.75C1023.84 1743.64 1024.19 1743.12 1024.08 1742.57C1023.98 1742.03 1023.45 1741.68 1022.91 1741.79L1023.3 1743.75ZM1038.32 1738.99C1037.78 1739.08 1037.41 1739.59 1037.5 1740.14C1037.58 1740.68 1038.1 1741.05 1038.64 1740.96L1038.32 1738.99ZM1050.16 1739.24C1050.71 1739.16 1051.09 1738.66 1051.01 1738.11C1050.94 1737.56 1050.43 1737.18 1049.89 1737.25L1050.16 1739.24ZM1065.41 1735.38C1064.86 1735.43 1064.46 1735.93 1064.52 1736.48C1064.58 1737.02 1065.07 1737.42 1065.62 1737.37L1065.41 1735.38ZM1077.25 1736.27C1077.8 1736.22 1078.21 1735.74 1078.17 1735.19C1078.12 1734.64 1077.64 1734.23 1077.09 1734.28L1077.25 1736.27ZM1092.7 1733.19C1092.15 1733.22 1091.73 1733.69 1091.76 1734.24C1091.79 1734.8 1092.26 1735.22 1092.81 1735.19L1092.7 1733.19ZM1104.56 1734.63C1105.12 1734.61 1105.55 1734.15 1105.52 1733.59C1105.5 1733.04 1105.04 1732.61 1104.49 1732.63L1104.56 1734.63ZM1120.04 1732.21C1119.49 1732.22 1119.05 1732.68 1119.06 1733.23C1119.07 1733.78 1119.52 1734.22 1120.08 1734.21L1120.04 1732.21ZM1131.74 1734.11C1132.29 1734.11 1132.74 1733.67 1132.74 1733.11C1132.73 1732.56 1132.29 1732.11 1131.73 1732.11L1131.74 1734.11ZM1147.45 1732.25C1146.89 1732.24 1146.44 1732.68 1146.43 1733.23C1146.42 1733.78 1146.86 1734.24 1147.41 1734.25L1147.45 1732.25ZM1159.02 1734.53C1159.57 1734.55 1160.03 1734.11 1160.05 1733.56C1160.06 1733.01 1159.63 1732.55 1159.08 1732.53L1159.02 1734.53ZM1174.69 1733.13C1174.13 1733.1 1173.67 1733.53 1173.64 1734.08C1173.62 1734.63 1174.04 1735.1 1174.59 1735.13L1174.69 1733.13ZM1186.36 1735.73C1186.91 1735.77 1187.39 1735.34 1187.42 1734.79C1187.45 1734.24 1187.03 1733.77 1186.48 1733.74L1186.36 1735.73ZM1201.96 1734.73C1201.41 1734.69 1200.93 1735.1 1200.89 1735.65C1200.86 1736.2 1201.27 1736.68 1201.82 1736.72L1201.96 1734.73ZM1213.68 1737.61C1214.23 1737.65 1214.71 1737.24 1214.75 1736.69C1214.8 1736.14 1214.39 1735.66 1213.84 1735.62L1213.68 1737.61ZM1229.21 1736.93C1228.66 1736.88 1228.18 1737.29 1228.13 1737.84C1228.08 1738.39 1228.48 1738.87 1229.03 1738.92L1229.21 1736.93ZM1240.86 1740.05C1241.41 1740.11 1241.9 1739.71 1241.96 1739.16C1242.01 1738.61 1241.61 1738.12 1241.06 1738.06L1240.86 1740.05ZM1256.41 1739.66C1255.86 1739.6 1255.37 1740 1255.31 1740.55C1255.25 1741.1 1255.64 1741.59 1256.19 1741.65L1256.41 1739.66ZM1268.03 1742.99C1268.58 1743.05 1269.08 1742.66 1269.14 1742.11C1269.21 1741.56 1268.81 1741.07 1268.27 1741L1268.03 1742.99ZM1283.55 1742.85C1283 1742.78 1282.5 1743.17 1282.43 1743.72C1282.36 1744.26 1282.75 1744.76 1283.3 1744.83L1283.55 1742.85ZM1295.07 1746.34C1295.62 1746.41 1296.12 1746.03 1296.2 1745.48C1296.27 1744.93 1295.88 1744.43 1295.33 1744.36L1295.07 1746.34ZM1310.65 1746.43C1310.1 1746.36 1309.6 1746.74 1309.52 1747.28C1309.44 1747.83 1309.83 1748.34 1310.37 1748.41L1310.65 1746.43ZM1322.04 1750.07C1322.58 1750.15 1323.09 1749.77 1323.17 1749.22C1323.25 1748.67 1322.87 1748.17 1322.32 1748.09L1322.04 1750.07ZM1337.74 1750.37C1337.2 1750.29 1336.69 1750.66 1336.6 1751.21C1336.52 1751.76 1336.9 1752.27 1337.44 1752.35L1337.74 1750.37ZM1348.97 1754.12C1349.51 1754.21 1350.02 1753.84 1350.11 1753.29C1350.2 1752.75 1349.82 1752.23 1349.28 1752.15L1348.97 1754.12ZM1364.87 1754.64C1364.33 1754.55 1363.81 1754.92 1363.72 1755.46C1363.64 1756.01 1364.01 1756.52 1364.55 1756.61L1364.87 1754.64ZM1375.92 1758.49C1376.46 1758.58 1376.98 1758.21 1377.07 1757.67C1377.16 1757.12 1376.79 1756.61 1376.25 1756.51L1375.92 1758.49ZM1391.76 1759.15C1391.21 1759.06 1390.7 1759.42 1390.6 1759.96C1390.51 1760.51 1390.87 1761.03 1391.42 1761.12L1391.76 1759.15ZM0.388982 1759.36C2.18082 1758.6 4.05647 1757.83 6.01402 1757.06L5.28108 1755.2C3.30921 1755.98 1.41852 1756.75 -0.388982 1757.51L0.388982 1759.36ZM21.3597 1751.49C25.0509 1750.24 28.9343 1749 33.0022 1747.76L32.4204 1745.85C28.3342 1747.09 24.4319 1748.34 20.7213 1749.59L21.3597 1751.49ZM48.7369 1743.28C52.5744 1742.25 56.5386 1741.24 60.6247 1740.25L60.1526 1738.3C56.0519 1739.3 52.073 1740.31 48.2206 1741.34L48.7369 1743.28ZM76.5086 1736.62C80.422 1735.79 84.4278 1734.97 88.5226 1734.18L88.1438 1732.22C84.0361 1733.01 80.0174 1733.83 76.091 1734.67L76.5086 1736.62ZM104.634 1731.29C108.598 1730.63 112.634 1729.99 116.738 1729.38L116.445 1727.41C112.329 1728.02 108.281 1728.65 104.305 1729.32L104.634 1731.29ZM132.97 1727.18C136.966 1726.68 141.02 1726.22 145.129 1725.78L144.918 1723.79C140.797 1724.23 136.732 1724.7 132.724 1725.19L132.97 1727.18ZM161.422 1724.24C165.445 1723.9 169.514 1723.6 173.627 1723.33L173.496 1721.33C169.371 1721.61 165.29 1721.91 161.257 1722.25L161.422 1724.24ZM189.963 1722.44C194.001 1722.26 198.078 1722.12 202.193 1722.01L202.14 1720.01C198.014 1720.12 193.926 1720.27 189.877 1720.44L189.963 1722.44ZM218.542 1721.77C222.593 1721.75 226.676 1721.77 230.791 1721.82L230.817 1719.82C226.691 1719.77 222.597 1719.75 218.535 1719.77L218.542 1721.77ZM247.134 1722.22C251.192 1722.37 255.277 1722.55 259.389 1722.76L259.494 1720.76C255.371 1720.55 251.274 1720.37 247.205 1720.22L247.134 1722.22ZM275.704 1723.81C279.763 1724.11 283.845 1724.46 287.949 1724.84L288.134 1722.84C284.019 1722.46 279.925 1722.12 275.854 1721.81L275.704 1723.81ZM304.2 1726.53C308.229 1727 312.276 1727.5 316.341 1728.04L316.606 1726.06C312.529 1725.52 308.47 1725.01 304.431 1724.54L304.2 1726.53ZM332.516 1730.39C336.535 1731.02 340.569 1731.69 344.618 1732.4L344.963 1730.43C340.902 1729.72 336.857 1729.05 332.826 1728.42L332.516 1730.39ZM360.693 1735.41C364.68 1736.21 368.679 1737.04 372.69 1737.92L373.116 1735.96C369.093 1735.09 365.082 1734.25 361.084 1733.45L360.693 1735.41ZM388.611 1741.58C392.562 1742.54 396.524 1743.54 400.495 1744.58L401.002 1742.65C397.019 1741.61 393.046 1740.6 389.083 1739.64L388.611 1741.58ZM416.264 1748.92C420.174 1750.04 424.093 1751.21 428.018 1752.41L428.606 1750.5C424.669 1749.29 420.739 1748.12 416.817 1746.99L416.264 1748.92ZM443.571 1757.4C445.514 1758.05 447.458 1758.71 449.404 1759.38L450.055 1757.49C448.104 1756.82 446.153 1756.16 444.205 1755.51L443.571 1757.4ZM449.404 1759.38C451.314 1760.04 453.22 1760.69 455.123 1761.33L455.762 1759.44C453.864 1758.79 451.961 1758.15 450.055 1757.49L449.404 1759.38ZM470.31 1766.32C474.148 1767.55 477.971 1768.75 481.777 1769.92L482.364 1768C478.565 1766.84 474.75 1765.64 470.92 1764.42L470.31 1766.32ZM497.126 1774.49C500.992 1775.61 504.84 1776.7 508.669 1777.75L509.202 1775.83C505.38 1774.77 501.54 1773.69 497.682 1772.57L497.126 1774.49ZM524.119 1781.88C528.023 1782.89 531.906 1783.87 535.769 1784.82L536.245 1782.88C532.391 1781.93 528.515 1780.95 524.619 1779.95L524.119 1781.88ZM551.354 1788.5C555.287 1789.4 559.196 1790.26 563.081 1791.1L563.5 1789.14C559.623 1788.31 555.722 1787.45 551.798 1786.55L551.354 1788.5ZM578.756 1794.32C582.703 1795.1 586.622 1795.84 590.515 1796.56L590.876 1794.59C586.992 1793.88 583.08 1793.14 579.142 1792.36L578.756 1794.32ZM606.278 1799.31C610.273 1799.98 614.237 1800.61 618.169 1801.2L618.47 1799.23C614.547 1798.63 610.591 1798 606.605 1797.34L606.278 1799.31ZM634.014 1803.47C638.025 1804.01 642 1804.52 645.938 1804.99L646.177 1803C642.247 1802.53 638.282 1802.03 634.28 1801.49L634.014 1803.47ZM661.847 1806.76C665.874 1807.17 669.859 1807.54 673.801 1807.89L673.976 1805.9C670.043 1805.55 666.067 1805.18 662.049 1804.77L661.847 1806.76ZM689.763 1809.14C693.808 1809.41 697.803 1809.66 701.746 1809.87L701.854 1807.87C697.92 1807.66 693.935 1807.42 689.899 1807.14L689.763 1809.14ZM717.742 1810.57C721.805 1810.7 725.808 1810.81 729.748 1810.88L729.784 1808.88C725.854 1808.81 721.862 1808.7 717.809 1808.57L717.742 1810.57ZM745.74 1811C749.819 1810.98 753.823 1810.93 757.748 1810.85L757.708 1808.85C753.793 1808.93 749.801 1808.98 745.733 1809L745.74 1811ZM773.755 1810.34C777.858 1810.16 781.861 1809.94 785.763 1809.69L785.636 1807.7C781.747 1807.94 777.757 1808.16 773.667 1808.34L773.755 1810.34ZM801.706 1808.46C805.832 1808.09 809.82 1807.68 813.666 1807.23L813.438 1805.25C809.608 1805.69 805.635 1806.1 801.524 1806.47L801.706 1808.46ZM829.521 1805.14C833.721 1804.51 837.699 1803.84 841.446 1803.15L841.083 1801.18C837.358 1801.87 833.402 1802.53 829.222 1803.16L829.521 1805.14ZM857.088 1799.81C859.138 1799.3 861.077 1798.79 862.903 1798.28L862.362 1796.35C860.558 1796.86 858.64 1797.37 856.609 1797.87L857.088 1799.81ZM862.903 1798.28C864.819 1797.74 866.712 1797.19 868.584 1796.63L868.011 1794.71C866.149 1795.27 864.267 1795.82 862.362 1796.35L862.903 1798.28ZM883.446 1791.85C887.191 1790.56 890.87 1789.23 894.501 1787.88L893.803 1786.01C890.185 1787.35 886.523 1788.67 882.796 1789.95L883.446 1791.85ZM909.084 1782.24C912.717 1780.79 916.329 1779.32 919.939 1777.84L919.182 1775.99C915.574 1777.46 911.968 1778.93 908.342 1780.38L909.084 1782.24ZM934.373 1771.92C937.956 1770.46 941.564 1769 945.218 1767.55L944.481 1765.69C940.818 1767.14 937.204 1768.6 933.617 1770.07L934.373 1771.92ZM959.788 1761.95C963.383 1760.62 967.042 1759.31 970.782 1758.03L970.133 1756.14C966.376 1757.43 962.702 1758.74 959.094 1760.08L959.788 1761.95ZM985.57 1753.24C989.218 1752.13 992.952 1751.06 996.786 1750.01L996.261 1748.08C992.408 1749.13 988.654 1750.21 984.988 1751.33L985.57 1753.24ZM1011.9 1746.21C1015.61 1745.36 1019.4 1744.54 1023.3 1743.75L1022.91 1741.79C1018.99 1742.58 1015.17 1743.4 1011.45 1744.26L1011.9 1746.21ZM1038.64 1740.96C1042.39 1740.35 1046.22 1739.78 1050.16 1739.24L1049.89 1737.25C1045.93 1737.8 1042.08 1738.38 1038.32 1738.99L1038.64 1740.96ZM1065.62 1737.37C1069.41 1736.97 1073.28 1736.6 1077.25 1736.27L1077.09 1734.28C1073.1 1734.61 1069.21 1734.98 1065.41 1735.38L1065.62 1737.37ZM1092.81 1735.19C1096.65 1734.97 1100.56 1734.78 1104.56 1734.63L1104.49 1732.63C1100.47 1732.79 1096.54 1732.97 1092.7 1733.19L1092.81 1735.19ZM1120.08 1734.21C1123.89 1734.15 1127.77 1734.12 1131.74 1734.11L1131.73 1732.11C1127.76 1732.12 1123.87 1732.15 1120.04 1732.21L1120.08 1734.21ZM1147.41 1734.25C1151.21 1734.32 1155.08 1734.41 1159.02 1734.53L1159.08 1732.53C1155.13 1732.41 1151.26 1732.32 1147.45 1732.25L1147.41 1734.25ZM1174.59 1735.13C1178.45 1735.3 1182.37 1735.51 1186.36 1735.73L1186.48 1733.74C1182.48 1733.51 1178.55 1733.31 1174.69 1733.13L1174.59 1735.13ZM1201.82 1736.72C1205.71 1736.99 1209.67 1737.29 1213.68 1737.61L1213.84 1735.62C1209.82 1735.3 1205.86 1735 1201.96 1734.73L1201.82 1736.72ZM1229.03 1738.92C1232.92 1739.28 1236.87 1739.65 1240.86 1740.05L1241.06 1738.06C1237.06 1737.66 1233.11 1737.29 1229.21 1736.93L1229.03 1738.92ZM1256.19 1741.65C1260.09 1742.08 1264.04 1742.52 1268.03 1742.99L1268.27 1741C1264.26 1740.54 1260.31 1740.09 1256.41 1739.66L1256.19 1741.65ZM1283.3 1744.83C1287.18 1745.32 1291.1 1745.82 1295.07 1746.34L1295.33 1744.36C1291.36 1743.84 1287.43 1743.33 1283.55 1742.85L1283.3 1744.83ZM1310.37 1748.41C1314.22 1748.95 1318.11 1749.5 1322.04 1750.07L1322.32 1748.09C1318.39 1747.52 1314.5 1746.97 1310.65 1746.43L1310.37 1748.41ZM1337.44 1752.35C1341.24 1752.93 1345.09 1753.52 1348.97 1754.12L1349.28 1752.15C1345.39 1751.54 1341.55 1750.95 1337.74 1750.37L1337.44 1752.35ZM1364.55 1756.61C1368.31 1757.22 1372.09 1757.85 1375.92 1758.49L1376.25 1756.51C1372.42 1755.87 1368.63 1755.25 1364.87 1754.64L1364.55 1756.61ZM1391.42 1761.12C1393.38 1761.46 1395.35 1761.8 1397.33 1762.15L1397.67 1760.18C1395.69 1759.83 1393.72 1759.49 1391.76 1759.15L1391.42 1761.12Z" fill="#52598B"/>
<g filter="url(#filter0_ddf_1_6230)">
<ellipse cx="868" cy="1792.7" rx="8" ry="8.13952" fill="#78B6F4"/>
<path d="M873 1792.7C873 1795.59 870.713 1797.84 868 1797.84C865.287 1797.84 863 1795.59 863 1792.7C863 1789.82 865.287 1787.56 868 1787.56C870.713 1787.56 873 1789.82 873 1792.7Z" stroke="#78B6F4" stroke-width="6"/>
</g>
<g filter="url(#filter1_ddf_1_6230)">
<ellipse cx="1401" cy="1762.18" rx="8" ry="8.13952" fill="#78B6F4"/>
<path d="M1406 1762.18C1406 1765.07 1403.71 1767.32 1401 1767.32C1398.29 1767.32 1396 1765.07 1396 1762.18C1396 1759.29 1398.29 1757.04 1401 1757.04C1403.71 1757.04 1406 1759.29 1406 1762.18Z" stroke="#78B6F4" stroke-width="6"/>
</g>
<g filter="url(#filter2_ddf_1_6230)">
<ellipse cx="485" cy="1770.32" rx="8" ry="8.13952" fill="#78B6F4"/>
<path d="M490 1770.32C490 1773.21 487.713 1775.46 485 1775.46C482.287 1775.46 480 1773.21 480 1770.32C480 1767.43 482.287 1765.18 485 1765.18C487.713 1765.18 490 1767.43 490 1770.32Z" stroke="#78B6F4" stroke-width="6"/>
</g>
<defs>
<filter id="filter0_ddf_1_6230" x="853" y="1777.56" width="30" height="30.279" filterUnits="userSpaceOnUse" color-interpolation-filters="sRGB">
<feFlood flood-opacity="0" result="BackgroundImageFix"/>
<feColorMatrix in="SourceAlpha" type="matrix" values="0 0 0 0 0 0 0 0 0 0 0 0 0 0 0 0 0 0 127 0" result="hardAlpha"/>
<feOffset dx="2" dy="2"/>
<feGaussianBlur stdDeviation="2.5"/>
<feComposite in2="hardAlpha" operator="out"/>
<feColorMatrix type="matrix" values="0 0 0 0 1 0 0 0 0 1 0 0 0 0 1 0 0 0 0.26 0"/>
<feBlend mode="normal" in2="BackgroundImageFix" result="effect1_dropShadow_1_6230"/>
<feColorMatrix in="SourceAlpha" type="matrix" values="0 0 0 0 0 0 0 0 0 0 0 0 0 0 0 0 0 0 127 0" result="hardAlpha"/>
<feOffset dx="-2" dy="-2"/>
<feGaussianBlur stdDeviation="2.5"/>
<feComposite in2="hardAlpha" operator="out"/>
<feColorMatrix type="matrix" values="0 0 0 0 1 0 0 0 0 1 0 0 0 0 1 0 0 0 0.25 0"/>
<feBlend mode="normal" in2="effect1_dropShadow_1_6230" result="effect2_dropShadow_1_6230"/>
<feBlend mode="normal" in="SourceGraphic" in2="effect2_dropShadow_1_6230" result="shape"/>
<feGaussianBlur stdDeviation="1" result="effect3_foregroundBlur_1_6230"/>
</filter>
<filter id="filter1_ddf_1_6230" x="1386" y="1747.04" width="30" height="30.279" filterUnits="userSpaceOnUse" color-interpolation-filters="sRGB">
<feFlood flood-opacity="0" result="BackgroundImageFix"/>
<feColorMatrix in="SourceAlpha" type="matrix" values="0 0 0 0 0 0 0 0 0 0 0 0 0 0 0 0 0 0 127 0" result="hardAlpha"/>
<feOffset dx="2" dy="2"/>
<feGaussianBlur stdDeviation="2.5"/>
<feComposite in2="hardAlpha" operator="out"/>
<feColorMatrix type="matrix" values="0 0 0 0 1 0 0 0 0 1 0 0 0 0 1 0 0 0 0.26 0"/>
<feBlend mode="normal" in2="BackgroundImageFix" result="effect1_dropShadow_1_6230"/>
<feColorMatrix in="SourceAlpha" type="matrix" values="0 0 0 0 0 0 0 0 0 0 0 0 0 0 0 0 0 0 127 0" result="hardAlpha"/>
<feOffset dx="-2" dy="-2"/>
<feGaussianBlur stdDeviation="2.5"/>
<feComposite in2="hardAlpha" operator="out"/>
<feColorMatrix type="matrix" values="0 0 0 0 1 0 0 0 0 1 0 0 0 0 1 0 0 0 0.25 0"/>
<feBlend mode="normal" in2="effect1_dropShadow_1_6230" result="effect2_dropShadow_1_6230"/>
<feBlend mode="normal" in="SourceGraphic" in2="effect2_dropShadow_1_6230" result="shape"/>
<feGaussianBlur stdDeviation="1" result="effect3_foregroundBlur_1_6230"/>
</filter>
<filter id="filter2_ddf_1_6230" x="470" y="1755.18" width="30" height="30.279" filterUnits="userSpaceOnUse" color-interpolation-filters="sRGB">
<feFlood flood-opacity="0" result="BackgroundImageFix"/>
<feColorMatrix in="SourceAlpha" type="matrix" values="0 0 0 0 0 0 0 0 0 0 0 0 0 0 0 0 0 0 127 0" result="hardAlpha"/>
<feOffset dx="2" dy="2"/>
<feGaussianBlur stdDeviation="2.5"/>
<feComposite in2="hardAlpha" operator="out"/>
<feColorMatrix type="matrix" values="0 0 0 0 1 0 0 0 0 1 0 0 0 0 1 0 0 0 0.26 0"/>
<feBlend mode="normal" in2="BackgroundImageFix" result="effect1_dropShadow_1_6230"/>
<feColorMatrix in="SourceAlpha" type="matrix" values="0 0 0 0 0 0 0 0 0 0 0 0 0 0 0 0 0 0 127 0" result="hardAlpha"/>
<feOffset dx="-2" dy="-2"/>
<feGaussianBlur stdDeviation="2.5"/>
<feComposite in2="hardAlpha" operator="out"/>
<feColorMatrix type="matrix" values="0 0 0 0 1 0 0 0 0 1 0 0 0 0 1 0 0 0 0.25 0"/>
<feBlend mode="normal" in2="effect1_dropShadow_1_6230" result="effect2_dropShadow_1_6230"/>
<feBlend mode="normal" in="SourceGraphic" in2="effect2_dropShadow_1_6230" result="shape"/>
<feGaussianBlur stdDeviation="1" result="effect3_foregroundBlur_1_6230"/>
</filter>
</defs>
</svg>
