<svg width="260" height="181" viewBox="0 0 260 181" fill="none" xmlns="http://www.w3.org/2000/svg">
<path d="M10.3438 120.508H18.5V132H17.3438V121.602H11.5V132H10.3438V120.508ZM21.1328 123.5H22.2188V125.062C22.651 124.469 23.1484 124.023 23.7109 123.727C24.2734 123.43 24.901 123.281 25.5938 123.281C26.8021 123.281 27.8359 123.716 28.6953 124.586C29.5547 125.456 29.9844 126.503 29.9844 127.727C29.9844 128.977 29.5573 130.039 28.7031 130.914C27.8542 131.784 26.8281 132.219 25.625 132.219C24.9479 132.219 24.3255 132.078 23.7578 131.797C23.1901 131.516 22.6771 131.096 22.2188 130.539V135.109H21.1328V123.5ZM25.5078 124.336C24.5599 124.336 23.7604 124.667 23.1094 125.328C22.4635 125.99 22.1406 126.812 22.1406 127.797C22.1406 128.443 22.2839 129.023 22.5703 129.539C22.862 130.055 23.276 130.464 23.8125 130.766C24.3542 131.068 24.9245 131.219 25.5234 131.219C26.112 131.219 26.6641 131.068 27.1797 130.766C27.7005 130.458 28.1146 130.031 28.4219 129.484C28.7292 128.938 28.8828 128.365 28.8828 127.766C28.8828 127.161 28.7292 126.589 28.4219 126.047C28.1198 125.505 27.7109 125.086 27.1953 124.789C26.6797 124.487 26.1172 124.336 25.5078 124.336ZM36.0625 123.281C37.3698 123.281 38.4531 123.755 39.3125 124.703C40.0938 125.568 40.4844 126.591 40.4844 127.773C40.4844 128.961 40.0703 130 39.2422 130.891C38.4193 131.776 37.3594 132.219 36.0625 132.219C34.7604 132.219 33.6953 131.776 32.8672 130.891C32.0443 130 31.6328 128.961 31.6328 127.773C31.6328 126.596 32.0234 125.576 32.8047 124.711C33.6641 123.758 34.75 123.281 36.0625 123.281ZM36.0625 124.352C35.1562 124.352 34.3776 124.688 33.7266 125.359C33.0755 126.031 32.75 126.844 32.75 127.797C32.75 128.411 32.8984 128.984 33.1953 129.516C33.4922 130.047 33.8932 130.458 34.3984 130.75C34.9036 131.036 35.4583 131.18 36.0625 131.18C36.6667 131.18 37.2214 131.036 37.7266 130.75C38.2318 130.458 38.6328 130.047 38.9297 129.516C39.2266 128.984 39.375 128.411 39.375 127.797C39.375 126.844 39.0469 126.031 38.3906 125.359C37.7396 124.688 36.9635 124.352 36.0625 124.352ZM49.6797 129.18L50.6016 129.664C50.2995 130.258 49.9505 130.737 49.5547 131.102C49.1589 131.466 48.7135 131.745 48.2188 131.938C47.724 132.125 47.1641 132.219 46.5391 132.219C45.1536 132.219 44.0703 131.766 43.2891 130.859C42.5078 129.948 42.1172 128.919 42.1172 127.773C42.1172 126.695 42.4479 125.734 43.1094 124.891C43.9479 123.818 45.0703 123.281 46.4766 123.281C47.9245 123.281 49.0807 123.831 49.9453 124.93C50.5599 125.706 50.8724 126.674 50.8828 127.836H43.2422C43.263 128.826 43.5781 129.638 44.1875 130.273C44.7969 130.904 45.5495 131.219 46.4453 131.219C46.8776 131.219 47.2969 131.143 47.7031 130.992C48.1146 130.841 48.4635 130.641 48.75 130.391C49.0365 130.141 49.3464 129.737 49.6797 129.18ZM49.6797 126.891C49.5339 126.307 49.3203 125.841 49.0391 125.492C48.763 125.143 48.3958 124.862 47.9375 124.648C47.4792 124.435 46.9974 124.328 46.4922 124.328C45.6589 124.328 44.9427 124.596 44.3438 125.133C43.9062 125.523 43.5755 126.109 43.3516 126.891H49.6797ZM52.9297 123.5H54.0312V127.078L57.9609 123.5H59.4844L55.1797 127.391L59.8281 132H58.2812L54.375 128.07L54.0312 128.375V132H52.9297V123.5ZM60.0078 123.5H65.6016V124.445H63.3516V132H62.25V124.445H60.0078V123.5ZM68.1797 123.5V129.789L74.4219 123.5H74.5078V132H73.4141V125.766L67.2188 132H67.0859V123.5H68.1797ZM76.9609 123.5H78.0469V125.062C78.4792 124.469 78.9766 124.023 79.5391 123.727C80.1016 123.43 80.7292 123.281 81.4219 123.281C82.6302 123.281 83.6641 123.716 84.5234 124.586C85.3828 125.456 85.8125 126.503 85.8125 127.727C85.8125 128.977 85.3854 130.039 84.5312 130.914C83.6823 131.784 82.6562 132.219 81.4531 132.219C80.776 132.219 80.1536 132.078 79.5859 131.797C79.0182 131.516 78.5052 131.096 78.0469 130.539V135.109H76.9609V123.5ZM81.3359 124.336C80.388 124.336 79.5885 124.667 78.9375 125.328C78.2917 125.99 77.9688 126.812 77.9688 127.797C77.9688 128.443 78.112 129.023 78.3984 129.539C78.6901 130.055 79.1042 130.464 79.6406 130.766C80.1823 131.068 80.7526 131.219 81.3516 131.219C81.9401 131.219 82.4922 131.068 83.0078 130.766C83.5286 130.458 83.9427 130.031 84.25 129.484C84.5573 128.938 84.7109 128.365 84.7109 127.766C84.7109 127.161 84.5573 126.589 84.25 126.047C83.9479 125.505 83.5391 125.086 83.0234 124.789C82.5078 124.487 81.9453 124.336 81.3359 124.336ZM91.8906 123.281C93.1979 123.281 94.2812 123.755 95.1406 124.703C95.9219 125.568 96.3125 126.591 96.3125 127.773C96.3125 128.961 95.8984 130 95.0703 130.891C94.2474 131.776 93.1875 132.219 91.8906 132.219C90.5885 132.219 89.5234 131.776 88.6953 130.891C87.8724 130 87.4609 128.961 87.4609 127.773C87.4609 126.596 87.8516 125.576 88.6328 124.711C89.4922 123.758 90.5781 123.281 91.8906 123.281ZM91.8906 124.352C90.9844 124.352 90.2057 124.688 89.5547 125.359C88.9036 126.031 88.5781 126.844 88.5781 127.797C88.5781 128.411 88.7266 128.984 89.0234 129.516C89.3203 130.047 89.7214 130.458 90.2266 130.75C90.7318 131.036 91.2865 131.18 91.8906 131.18C92.4948 131.18 93.0495 131.036 93.5547 130.75C94.0599 130.458 94.4609 130.047 94.7578 129.516C95.0547 128.984 95.2031 128.411 95.2031 127.797C95.2031 126.844 94.875 126.031 94.2188 125.359C93.5677 124.688 92.7917 124.352 91.8906 124.352ZM100.82 132H98.3516V123.5H100.781C101.708 123.5 102.375 123.714 102.781 124.141C103.193 124.568 103.398 125.068 103.398 125.641C103.398 126.505 103.018 127.091 102.258 127.398C103.362 127.789 103.914 128.542 103.914 129.656C103.914 131.219 102.883 132 100.82 132ZM99.4531 124.445V127.102H100.164C100.81 127.102 101.232 127.076 101.43 127.023C101.628 126.971 101.812 126.844 101.984 126.641C102.161 126.432 102.25 126.159 102.25 125.82C102.25 125.466 102.159 125.169 101.977 124.93C101.794 124.69 101.602 124.549 101.398 124.508C101.201 124.466 100.789 124.445 100.164 124.445H99.4531ZM99.4531 128.102V131.078H100.625C101.177 131.078 101.57 131.044 101.805 130.977C102.044 130.904 102.247 130.75 102.414 130.516C102.586 130.281 102.672 129.984 102.672 129.625C102.672 129.161 102.526 128.792 102.234 128.516C101.943 128.24 101.557 128.102 101.078 128.102H99.4531ZM114.305 123.5V132H113.227V130.539C112.768 131.096 112.253 131.516 111.68 131.797C111.112 132.078 110.49 132.219 109.812 132.219C108.609 132.219 107.581 131.784 106.727 130.914C105.878 130.039 105.453 128.977 105.453 127.727C105.453 126.503 105.883 125.456 106.742 124.586C107.602 123.716 108.635 123.281 109.844 123.281C110.542 123.281 111.172 123.43 111.734 123.727C112.302 124.023 112.799 124.469 113.227 125.062V123.5H114.305ZM109.93 124.336C109.32 124.336 108.758 124.487 108.242 124.789C107.727 125.086 107.315 125.505 107.008 126.047C106.706 126.589 106.555 127.161 106.555 127.766C106.555 128.365 106.708 128.938 107.016 129.484C107.323 130.031 107.734 130.458 108.25 130.766C108.771 131.068 109.328 131.219 109.922 131.219C110.521 131.219 111.089 131.068 111.625 130.766C112.161 130.464 112.573 130.055 112.859 129.539C113.151 129.023 113.297 128.443 113.297 127.797C113.297 126.812 112.971 125.99 112.32 125.328C111.674 124.667 110.878 124.336 109.93 124.336ZM122.812 127.906H117.875V132H116.773V123.5H117.875V126.875H122.812V123.5H123.906V132H122.812V127.906ZM127.445 123.5V129.789L133.688 123.5H133.773V132H132.68V125.766L126.484 132H126.352V123.5H127.445ZM143.367 129.18L144.289 129.664C143.987 130.258 143.638 130.737 143.242 131.102C142.846 131.466 142.401 131.745 141.906 131.938C141.411 132.125 140.852 132.219 140.227 132.219C138.841 132.219 137.758 131.766 136.977 130.859C136.195 129.948 135.805 128.919 135.805 127.773C135.805 126.695 136.135 125.734 136.797 124.891C137.635 123.818 138.758 123.281 140.164 123.281C141.612 123.281 142.768 123.831 143.633 124.93C144.247 125.706 144.56 126.674 144.57 127.836H136.93C136.951 128.826 137.266 129.638 137.875 130.273C138.484 130.904 139.237 131.219 140.133 131.219C140.565 131.219 140.984 131.143 141.391 130.992C141.802 130.841 142.151 130.641 142.438 130.391C142.724 130.141 143.034 129.737 143.367 129.18ZM143.367 126.891C143.221 126.307 143.008 125.841 142.727 125.492C142.451 125.143 142.083 124.862 141.625 124.648C141.167 124.435 140.685 124.328 140.18 124.328C139.346 124.328 138.63 124.596 138.031 125.133C137.594 125.523 137.263 126.109 137.039 126.891H143.367ZM147.703 129.891L148.758 130.391L147.172 133.344L146.398 133.016L147.703 129.891ZM155.508 123.5H156.594V125.062C157.026 124.469 157.523 124.023 158.086 123.727C158.648 123.43 159.276 123.281 159.969 123.281C161.177 123.281 162.211 123.716 163.07 124.586C163.93 125.456 164.359 126.503 164.359 127.727C164.359 128.977 163.932 130.039 163.078 130.914C162.229 131.784 161.203 132.219 160 132.219C159.323 132.219 158.701 132.078 158.133 131.797C157.565 131.516 157.052 131.096 156.594 130.539V135.109H155.508V123.5ZM159.883 124.336C158.935 124.336 158.135 124.667 157.484 125.328C156.839 125.99 156.516 126.812 156.516 127.797C156.516 128.443 156.659 129.023 156.945 129.539C157.237 130.055 157.651 130.464 158.188 130.766C158.729 131.068 159.299 131.219 159.898 131.219C160.487 131.219 161.039 131.068 161.555 130.766C162.076 130.458 162.49 130.031 162.797 129.484C163.104 128.938 163.258 128.365 163.258 127.766C163.258 127.161 163.104 126.589 162.797 126.047C162.495 125.505 162.086 125.086 161.57 124.789C161.055 124.487 160.492 124.336 159.883 124.336ZM174.883 123.5V132H173.805V130.539C173.346 131.096 172.831 131.516 172.258 131.797C171.69 132.078 171.068 132.219 170.391 132.219C169.188 132.219 168.159 131.784 167.305 130.914C166.456 130.039 166.031 128.977 166.031 127.727C166.031 126.503 166.461 125.456 167.32 124.586C168.18 123.716 169.214 123.281 170.422 123.281C171.12 123.281 171.75 123.43 172.312 123.727C172.88 124.023 173.378 124.469 173.805 125.062V123.5H174.883ZM170.508 124.336C169.898 124.336 169.336 124.487 168.82 124.789C168.305 125.086 167.893 125.505 167.586 126.047C167.284 126.589 167.133 127.161 167.133 127.766C167.133 128.365 167.286 128.938 167.594 129.484C167.901 130.031 168.312 130.458 168.828 130.766C169.349 131.068 169.906 131.219 170.5 131.219C171.099 131.219 171.667 131.068 172.203 130.766C172.74 130.464 173.151 130.055 173.438 129.539C173.729 129.023 173.875 128.443 173.875 127.797C173.875 126.812 173.549 125.99 172.898 125.328C172.253 124.667 171.456 124.336 170.508 124.336ZM178.773 127.078H179.344C179.708 127.078 180.042 126.958 180.344 126.719C180.651 126.479 180.805 126.135 180.805 125.688C180.805 125.307 180.682 124.982 180.438 124.711C180.193 124.435 179.818 124.297 179.312 124.297C178.724 124.297 178.133 124.526 177.539 124.984L176.922 124.227C177.688 123.586 178.5 123.266 179.359 123.266C180.068 123.266 180.661 123.477 181.141 123.898C181.62 124.32 181.859 124.865 181.859 125.531C181.859 126.417 181.469 127.018 180.688 127.336C181.708 127.763 182.219 128.51 182.219 129.578C182.219 130.255 181.979 130.867 181.5 131.414C181.026 131.956 180.315 132.227 179.367 132.227C178.206 132.227 177.271 131.849 176.562 131.094L177.25 130.312C177.776 130.906 178.451 131.203 179.273 131.203C179.826 131.203 180.258 131.055 180.57 130.758C180.888 130.461 181.047 130.07 181.047 129.586C181.047 129.112 180.888 128.732 180.57 128.445C180.253 128.159 179.878 128.016 179.445 128.016H178.773V127.078ZM184.133 123.5H185.219V125.062C185.651 124.469 186.148 124.023 186.711 123.727C187.273 123.43 187.901 123.281 188.594 123.281C189.802 123.281 190.836 123.716 191.695 124.586C192.555 125.456 192.984 126.503 192.984 127.727C192.984 128.977 192.557 130.039 191.703 130.914C190.854 131.784 189.828 132.219 188.625 132.219C187.948 132.219 187.326 132.078 186.758 131.797C186.19 131.516 185.677 131.096 185.219 130.539V135.109H184.133V123.5ZM188.508 124.336C187.56 124.336 186.76 124.667 186.109 125.328C185.464 125.99 185.141 126.812 185.141 127.797C185.141 128.443 185.284 129.023 185.57 129.539C185.862 130.055 186.276 130.464 186.812 130.766C187.354 131.068 187.924 131.219 188.523 131.219C189.112 131.219 189.664 131.068 190.18 130.766C190.701 130.458 191.115 130.031 191.422 129.484C191.729 128.938 191.883 128.365 191.883 127.766C191.883 127.161 191.729 126.589 191.422 126.047C191.12 125.505 190.711 125.086 190.195 124.789C189.68 124.487 189.117 124.336 188.508 124.336ZM203.508 123.5V132H202.43V130.539C201.971 131.096 201.456 131.516 200.883 131.797C200.315 132.078 199.693 132.219 199.016 132.219C197.812 132.219 196.784 131.784 195.93 130.914C195.081 130.039 194.656 128.977 194.656 127.727C194.656 126.503 195.086 125.456 195.945 124.586C196.805 123.716 197.839 123.281 199.047 123.281C199.745 123.281 200.375 123.43 200.938 123.727C201.505 124.023 202.003 124.469 202.43 125.062V123.5H203.508ZM199.133 124.336C198.523 124.336 197.961 124.487 197.445 124.789C196.93 125.086 196.518 125.505 196.211 126.047C195.909 126.589 195.758 127.161 195.758 127.766C195.758 128.365 195.911 128.938 196.219 129.484C196.526 130.031 196.938 130.458 197.453 130.766C197.974 131.068 198.531 131.219 199.125 131.219C199.724 131.219 200.292 131.068 200.828 130.766C201.365 130.464 201.776 130.055 202.062 129.539C202.354 129.023 202.5 128.443 202.5 127.797C202.5 126.812 202.174 125.99 201.523 125.328C200.878 124.667 200.081 124.336 199.133 124.336ZM214.109 120.039V121.086C213.589 121.174 212.695 121.237 211.43 121.273C210.513 121.305 209.805 121.367 209.305 121.461C208.81 121.549 208.378 121.724 208.008 121.984C207.638 122.24 207.326 122.63 207.07 123.156C206.82 123.677 206.664 124.26 206.602 124.906L206.492 126.102C206.789 125.128 207.276 124.414 207.953 123.961C208.635 123.508 209.391 123.281 210.219 123.281C211.479 123.281 212.531 123.724 213.375 124.609C214.224 125.495 214.648 126.549 214.648 127.773C214.648 128.987 214.227 130.031 213.383 130.906C212.539 131.781 211.484 132.219 210.219 132.219C208.922 132.219 207.823 131.734 206.922 130.766C206.021 129.797 205.57 128.271 205.57 126.188C205.57 124.734 205.734 123.635 206.062 122.891C206.396 122.141 206.776 121.602 207.203 121.273C207.63 120.945 208.182 120.688 208.859 120.5C209.536 120.312 210.805 120.195 212.664 120.148C213.237 120.133 213.719 120.096 214.109 120.039ZM213.539 127.797C213.539 126.854 213.211 126.044 212.555 125.367C211.898 124.69 211.12 124.352 210.219 124.352C209.323 124.352 208.547 124.69 207.891 125.367C207.234 126.044 206.906 126.854 206.906 127.797C206.906 128.734 207.221 129.534 207.852 130.195C208.487 130.852 209.276 131.18 210.219 131.18C211.167 131.18 211.956 130.852 212.586 130.195C213.221 129.534 213.539 128.734 213.539 127.797ZM220.703 123.281C222.01 123.281 223.094 123.755 223.953 124.703C224.734 125.568 225.125 126.591 225.125 127.773C225.125 128.961 224.711 130 223.883 130.891C223.06 131.776 222 132.219 220.703 132.219C219.401 132.219 218.336 131.776 217.508 130.891C216.685 130 216.273 128.961 216.273 127.773C216.273 126.596 216.664 125.576 217.445 124.711C218.305 123.758 219.391 123.281 220.703 123.281ZM220.703 124.352C219.797 124.352 219.018 124.688 218.367 125.359C217.716 126.031 217.391 126.844 217.391 127.797C217.391 128.411 217.539 128.984 217.836 129.516C218.133 130.047 218.534 130.458 219.039 130.75C219.544 131.036 220.099 131.18 220.703 131.18C221.307 131.18 221.862 131.036 222.367 130.75C222.872 130.458 223.273 130.047 223.57 129.516C223.867 128.984 224.016 128.411 224.016 127.797C224.016 126.844 223.688 126.031 223.031 125.359C222.38 124.688 221.604 124.352 220.703 124.352ZM226.211 123.5H231.805V124.445H229.555V132H228.453V124.445H226.211V123.5ZM233.289 123.5H234.391V127.078L238.32 123.5H239.844L235.539 127.391L240.188 132H238.641L234.734 128.07L234.391 128.375V132H233.289V123.5ZM249.789 123.5V132H248.711V130.539C248.253 131.096 247.737 131.516 247.164 131.797C246.596 132.078 245.974 132.219 245.297 132.219C244.094 132.219 243.065 131.784 242.211 130.914C241.362 130.039 240.938 128.977 240.938 127.727C240.938 126.503 241.367 125.456 242.227 124.586C243.086 123.716 244.12 123.281 245.328 123.281C246.026 123.281 246.656 123.43 247.219 123.727C247.786 124.023 248.284 124.469 248.711 125.062V123.5H249.789ZM245.414 124.336C244.805 124.336 244.242 124.487 243.727 124.789C243.211 125.086 242.799 125.505 242.492 126.047C242.19 126.589 242.039 127.161 242.039 127.766C242.039 128.365 242.193 128.938 242.5 129.484C242.807 130.031 243.219 130.458 243.734 130.766C244.255 131.068 244.812 131.219 245.406 131.219C246.005 131.219 246.573 131.068 247.109 130.766C247.646 130.464 248.057 130.055 248.344 129.539C248.635 129.023 248.781 128.443 248.781 127.797C248.781 126.812 248.456 125.99 247.805 125.328C247.159 124.667 246.362 124.336 245.414 124.336ZM15.8594 145.5V151.789L22.1016 145.5H22.1875V154H21.0938V147.766L14.8984 154H14.7656V145.5H15.8594ZM30.2031 145.5V151.789L36.4453 145.5H36.5312V154H35.4375V147.766L29.2422 154H29.1094V145.5H30.2031ZM45.0078 149.906H40.0703V154H38.9688V145.5H40.0703V148.875H45.0078V145.5H46.1016V154H45.0078V149.906ZM47.5938 145.5H53.1875V146.445H50.9375V154H49.8359V146.445H47.5938V145.5ZM61.8281 151.18L62.75 151.664C62.4479 152.258 62.099 152.737 61.7031 153.102C61.3073 153.466 60.862 153.745 60.3672 153.938C59.8724 154.125 59.3125 154.219 58.6875 154.219C57.3021 154.219 56.2188 153.766 55.4375 152.859C54.6562 151.948 54.2656 150.919 54.2656 149.773C54.2656 148.695 54.5964 147.734 55.2578 146.891C56.0964 145.818 57.2188 145.281 58.625 145.281C60.0729 145.281 61.2292 145.831 62.0938 146.93C62.7083 147.706 63.0208 148.674 63.0312 149.836H55.3906C55.4115 150.826 55.7266 151.638 56.3359 152.273C56.9453 152.904 57.6979 153.219 58.5938 153.219C59.026 153.219 59.4453 153.143 59.8516 152.992C60.263 152.841 60.612 152.641 60.8984 152.391C61.1849 152.141 61.4948 151.737 61.8281 151.18ZM61.8281 148.891C61.6823 148.307 61.4688 147.841 61.1875 147.492C60.9115 147.143 60.5443 146.862 60.0859 146.648C59.6276 146.435 59.1458 146.328 58.6406 146.328C57.8073 146.328 57.0911 146.596 56.4922 147.133C56.0547 147.523 55.724 148.109 55.5 148.891H61.8281ZM66.1641 146.461V154H65.0781V145.5H69.375V146.461H66.1641ZM70.875 145.5H71.9609V147.062C72.3932 146.469 72.8906 146.023 73.4531 145.727C74.0156 145.43 74.6432 145.281 75.3359 145.281C76.5443 145.281 77.5781 145.716 78.4375 146.586C79.2969 147.456 79.7266 148.503 79.7266 149.727C79.7266 150.977 79.2995 152.039 78.4453 152.914C77.5964 153.784 76.5703 154.219 75.3672 154.219C74.6901 154.219 74.0677 154.078 73.5 153.797C72.9323 153.516 72.4193 153.096 71.9609 152.539V157.109H70.875V145.5ZM75.25 146.336C74.3021 146.336 73.5026 146.667 72.8516 147.328C72.2057 147.99 71.8828 148.812 71.8828 149.797C71.8828 150.443 72.026 151.023 72.3125 151.539C72.6042 152.055 73.0182 152.464 73.5547 152.766C74.0964 153.068 74.6667 153.219 75.2656 153.219C75.8542 153.219 76.4062 153.068 76.9219 152.766C77.4427 152.458 77.8568 152.031 78.1641 151.484C78.4714 150.938 78.625 150.365 78.625 149.766C78.625 149.161 78.4714 148.589 78.1641 148.047C77.862 147.505 77.4531 147.086 76.9375 146.789C76.4219 146.487 75.8594 146.336 75.25 146.336ZM90.25 145.5V154H89.1719V152.539C88.7135 153.096 88.1979 153.516 87.625 153.797C87.0573 154.078 86.4349 154.219 85.7578 154.219C84.5547 154.219 83.526 153.784 82.6719 152.914C81.8229 152.039 81.3984 150.977 81.3984 149.727C81.3984 148.503 81.8281 147.456 82.6875 146.586C83.5469 145.716 84.5807 145.281 85.7891 145.281C86.487 145.281 87.1172 145.43 87.6797 145.727C88.2474 146.023 88.7448 146.469 89.1719 147.062V145.5H90.25ZM85.875 146.336C85.2656 146.336 84.7031 146.487 84.1875 146.789C83.6719 147.086 83.2604 147.505 82.9531 148.047C82.651 148.589 82.5 149.161 82.5 149.766C82.5 150.365 82.6536 150.938 82.9609 151.484C83.2682 152.031 83.6797 152.458 84.1953 152.766C84.7161 153.068 85.2734 153.219 85.8672 153.219C86.4661 153.219 87.0339 153.068 87.5703 152.766C88.1068 152.464 88.5182 152.055 88.8047 151.539C89.0964 151.023 89.2422 150.443 89.2422 149.797C89.2422 148.812 88.9167 147.99 88.2656 147.328C87.6198 146.667 86.8229 146.336 85.875 146.336ZM100.664 154H92.7188V145.5H93.8203V152.969H98.7578V145.5H99.8594V152.969H101.695V155.344H100.664V154ZM104.266 145.5V151.789L110.508 145.5H110.594V154H109.5V147.766L103.305 154H103.172V145.5H104.266ZM116.617 150.195H115.836L113.414 154H112.234L114.789 150.086C114.154 150.008 113.638 149.768 113.242 149.367C112.846 148.961 112.648 148.458 112.648 147.859C112.648 147.109 112.875 146.529 113.328 146.117C113.786 145.706 114.385 145.5 115.125 145.5H117.711V154H116.617V150.195ZM116.617 146.445H115.898C115.201 146.445 114.732 146.49 114.492 146.578C114.253 146.667 114.062 146.82 113.922 147.039C113.781 147.253 113.711 147.542 113.711 147.906C113.711 148.255 113.802 148.544 113.984 148.773C114.167 148.997 114.37 149.135 114.594 149.188C114.818 149.24 115.253 149.266 115.898 149.266H116.617V146.445ZM124.594 145.5H131.727V154H130.633V146.531H125.688V154H124.594V145.5ZM134.188 145.5H135.273V147.062C135.706 146.469 136.203 146.023 136.766 145.727C137.328 145.43 137.956 145.281 138.648 145.281C139.857 145.281 140.891 145.716 141.75 146.586C142.609 147.456 143.039 148.503 143.039 149.727C143.039 150.977 142.612 152.039 141.758 152.914C140.909 153.784 139.883 154.219 138.68 154.219C138.003 154.219 137.38 154.078 136.812 153.797C136.245 153.516 135.732 153.096 135.273 152.539V157.109H134.188V145.5ZM138.562 146.336C137.615 146.336 136.815 146.667 136.164 147.328C135.518 147.99 135.195 148.812 135.195 149.797C135.195 150.443 135.339 151.023 135.625 151.539C135.917 152.055 136.331 152.464 136.867 152.766C137.409 153.068 137.979 153.219 138.578 153.219C139.167 153.219 139.719 153.068 140.234 152.766C140.755 152.458 141.169 152.031 141.477 151.484C141.784 150.938 141.938 150.365 141.938 149.766C141.938 149.161 141.784 148.589 141.477 148.047C141.174 147.505 140.766 147.086 140.25 146.789C139.734 146.487 139.172 146.336 138.562 146.336ZM149.117 145.281C150.424 145.281 151.508 145.755 152.367 146.703C153.148 147.568 153.539 148.591 153.539 149.773C153.539 150.961 153.125 152 152.297 152.891C151.474 153.776 150.414 154.219 149.117 154.219C147.815 154.219 146.75 153.776 145.922 152.891C145.099 152 144.688 150.961 144.688 149.773C144.688 148.596 145.078 147.576 145.859 146.711C146.719 145.758 147.805 145.281 149.117 145.281ZM149.117 146.352C148.211 146.352 147.432 146.688 146.781 147.359C146.13 148.031 145.805 148.844 145.805 149.797C145.805 150.411 145.953 150.984 146.25 151.516C146.547 152.047 146.948 152.458 147.453 152.75C147.958 153.036 148.513 153.18 149.117 153.18C149.721 153.18 150.276 153.036 150.781 152.75C151.286 152.458 151.688 152.047 151.984 151.516C152.281 150.984 152.43 150.411 152.43 149.797C152.43 148.844 152.102 148.031 151.445 147.359C150.794 146.688 150.018 146.352 149.117 146.352ZM156.664 146.461V154H155.578V145.5H159.875V146.461H156.664ZM161.375 145.5H162.461V147.062C162.893 146.469 163.391 146.023 163.953 145.727C164.516 145.43 165.143 145.281 165.836 145.281C167.044 145.281 168.078 145.716 168.938 146.586C169.797 147.456 170.227 148.503 170.227 149.727C170.227 150.977 169.799 152.039 168.945 152.914C168.096 153.784 167.07 154.219 165.867 154.219C165.19 154.219 164.568 154.078 164 153.797C163.432 153.516 162.919 153.096 162.461 152.539V157.109H161.375V145.5ZM165.75 146.336C164.802 146.336 164.003 146.667 163.352 147.328C162.706 147.99 162.383 148.812 162.383 149.797C162.383 150.443 162.526 151.023 162.812 151.539C163.104 152.055 163.518 152.464 164.055 152.766C164.596 153.068 165.167 153.219 165.766 153.219C166.354 153.219 166.906 153.068 167.422 152.766C167.943 152.458 168.357 152.031 168.664 151.484C168.971 150.938 169.125 150.365 169.125 149.766C169.125 149.161 168.971 148.589 168.664 148.047C168.362 147.505 167.953 147.086 167.438 146.789C166.922 146.487 166.359 146.336 165.75 146.336ZM180.75 145.5V154H179.672V152.539C179.214 153.096 178.698 153.516 178.125 153.797C177.557 154.078 176.935 154.219 176.258 154.219C175.055 154.219 174.026 153.784 173.172 152.914C172.323 152.039 171.898 150.977 171.898 149.727C171.898 148.503 172.328 147.456 173.188 146.586C174.047 145.716 175.081 145.281 176.289 145.281C176.987 145.281 177.617 145.43 178.18 145.727C178.747 146.023 179.245 146.469 179.672 147.062V145.5H180.75ZM176.375 146.336C175.766 146.336 175.203 146.487 174.688 146.789C174.172 147.086 173.76 147.505 173.453 148.047C173.151 148.589 173 149.161 173 149.766C173 150.365 173.154 150.938 173.461 151.484C173.768 152.031 174.18 152.458 174.695 152.766C175.216 153.068 175.773 153.219 176.367 153.219C176.966 153.219 177.534 153.068 178.07 152.766C178.607 152.464 179.018 152.055 179.305 151.539C179.596 151.023 179.742 150.443 179.742 149.797C179.742 148.812 179.417 147.99 178.766 147.328C178.12 146.667 177.323 146.336 176.375 146.336ZM192.445 145.5H192.758L195.641 154H194.5L192.398 147.742L189.133 154H188.93L185.656 147.742L183.562 154H182.422L185.32 145.5H185.617L189.039 152.148L192.445 145.5ZM206.508 145.5H206.82L209.703 154H208.562L206.461 147.742L203.195 154H202.992L199.719 147.742L197.625 154H196.484L199.383 145.5H199.68L203.102 152.148L206.508 145.5ZM217.383 149.906H212.445V154H211.344V145.5H212.445V148.875H217.383V145.5H218.477V154H217.383V149.906ZM224.945 145.281C226.253 145.281 227.336 145.755 228.195 146.703C228.977 147.568 229.367 148.591 229.367 149.773C229.367 150.961 228.953 152 228.125 152.891C227.302 153.776 226.242 154.219 224.945 154.219C223.643 154.219 222.578 153.776 221.75 152.891C220.927 152 220.516 150.961 220.516 149.773C220.516 148.596 220.906 147.576 221.688 146.711C222.547 145.758 223.633 145.281 224.945 145.281ZM224.945 146.352C224.039 146.352 223.26 146.688 222.609 147.359C221.958 148.031 221.633 148.844 221.633 149.797C221.633 150.411 221.781 150.984 222.078 151.516C222.375 152.047 222.776 152.458 223.281 152.75C223.786 153.036 224.341 153.18 224.945 153.18C225.549 153.18 226.104 153.036 226.609 152.75C227.115 152.458 227.516 152.047 227.812 151.516C228.109 150.984 228.258 150.411 228.258 149.797C228.258 148.844 227.93 148.031 227.273 147.359C226.622 146.688 225.846 146.352 224.945 146.352ZM232.492 146.461V154H231.406V145.5H235.703V146.461H232.492ZM241.211 145.281C242.518 145.281 243.602 145.755 244.461 146.703C245.242 147.568 245.633 148.591 245.633 149.773C245.633 150.961 245.219 152 244.391 152.891C243.568 153.776 242.508 154.219 241.211 154.219C239.909 154.219 238.844 153.776 238.016 152.891C237.193 152 236.781 150.961 236.781 149.773C236.781 148.596 237.172 147.576 237.953 146.711C238.812 145.758 239.898 145.281 241.211 145.281ZM241.211 146.352C240.305 146.352 239.526 146.688 238.875 147.359C238.224 148.031 237.898 148.844 237.898 149.797C237.898 150.411 238.047 150.984 238.344 151.516C238.641 152.047 239.042 152.458 239.547 152.75C240.052 153.036 240.607 153.18 241.211 153.18C241.815 153.18 242.37 153.036 242.875 152.75C243.38 152.458 243.781 152.047 244.078 151.516C244.375 150.984 244.523 150.411 244.523 149.797C244.523 148.844 244.195 148.031 243.539 147.359C242.888 146.688 242.112 146.352 241.211 146.352ZM82.125 167.281C83.4323 167.281 84.5156 167.755 85.375 168.703C86.1562 169.568 86.5469 170.591 86.5469 171.773C86.5469 172.961 86.1328 174 85.3047 174.891C84.4818 175.776 83.4219 176.219 82.125 176.219C80.8229 176.219 79.7578 175.776 78.9297 174.891C78.1068 174 77.6953 172.961 77.6953 171.773C77.6953 170.596 78.0859 169.576 78.8672 168.711C79.7266 167.758 80.8125 167.281 82.125 167.281ZM82.125 168.352C81.2188 168.352 80.4401 168.688 79.7891 169.359C79.138 170.031 78.8125 170.844 78.8125 171.797C78.8125 172.411 78.9609 172.984 79.2578 173.516C79.5547 174.047 79.9557 174.458 80.4609 174.75C80.9661 175.036 81.5208 175.18 82.125 175.18C82.7292 175.18 83.2839 175.036 83.7891 174.75C84.2943 174.458 84.6953 174.047 84.9922 173.516C85.2891 172.984 85.4375 172.411 85.4375 171.797C85.4375 170.844 85.1094 170.031 84.4531 169.359C83.8021 168.688 83.026 168.352 82.125 168.352ZM96.7188 164.039V165.086C96.1979 165.174 95.3047 165.237 94.0391 165.273C93.1224 165.305 92.4141 165.367 91.9141 165.461C91.4193 165.549 90.987 165.724 90.6172 165.984C90.2474 166.24 89.9349 166.63 89.6797 167.156C89.4297 167.677 89.2734 168.26 89.2109 168.906L89.1016 170.102C89.3984 169.128 89.8854 168.414 90.5625 167.961C91.2448 167.508 92 167.281 92.8281 167.281C94.0885 167.281 95.1406 167.724 95.9844 168.609C96.8333 169.495 97.2578 170.549 97.2578 171.773C97.2578 172.987 96.8359 174.031 95.9922 174.906C95.1484 175.781 94.0938 176.219 92.8281 176.219C91.5312 176.219 90.4323 175.734 89.5312 174.766C88.6302 173.797 88.1797 172.271 88.1797 170.188C88.1797 168.734 88.3438 167.635 88.6719 166.891C89.0052 166.141 89.3854 165.602 89.8125 165.273C90.2396 164.945 90.7917 164.688 91.4688 164.5C92.1458 164.312 93.4141 164.195 95.2734 164.148C95.8464 164.133 96.3281 164.096 96.7188 164.039ZM96.1484 171.797C96.1484 170.854 95.8203 170.044 95.1641 169.367C94.5078 168.69 93.7292 168.352 92.8281 168.352C91.9323 168.352 91.1562 168.69 90.5 169.367C89.8438 170.044 89.5156 170.854 89.5156 171.797C89.5156 172.734 89.8307 173.534 90.4609 174.195C91.0964 174.852 91.8854 175.18 92.8281 175.18C93.776 175.18 94.5651 174.852 95.1953 174.195C95.8307 173.534 96.1484 172.734 96.1484 171.797ZM106.445 173.18L107.367 173.664C107.065 174.258 106.716 174.737 106.32 175.102C105.924 175.466 105.479 175.745 104.984 175.938C104.49 176.125 103.93 176.219 103.305 176.219C101.919 176.219 100.836 175.766 100.055 174.859C99.2734 173.948 98.8828 172.919 98.8828 171.773C98.8828 170.695 99.2135 169.734 99.875 168.891C100.714 167.818 101.836 167.281 103.242 167.281C104.69 167.281 105.846 167.831 106.711 168.93C107.326 169.706 107.638 170.674 107.648 171.836H100.008C100.029 172.826 100.344 173.638 100.953 174.273C101.562 174.904 102.315 175.219 103.211 175.219C103.643 175.219 104.062 175.143 104.469 174.992C104.88 174.841 105.229 174.641 105.516 174.391C105.802 174.141 106.112 173.737 106.445 173.18ZM106.445 170.891C106.299 170.307 106.086 169.841 105.805 169.492C105.529 169.143 105.161 168.862 104.703 168.648C104.245 168.435 103.763 168.328 103.258 168.328C102.424 168.328 101.708 168.596 101.109 169.133C100.672 169.523 100.341 170.109 100.117 170.891H106.445ZM117.945 169.266L117.078 169.805C116.328 168.81 115.305 168.312 114.008 168.312C112.971 168.312 112.109 168.646 111.422 169.312C110.74 169.979 110.398 170.789 110.398 171.742C110.398 172.362 110.555 172.945 110.867 173.492C111.185 174.039 111.617 174.464 112.164 174.766C112.716 175.068 113.333 175.219 114.016 175.219C115.266 175.219 116.286 174.721 117.078 173.727L117.945 174.297C117.539 174.906 116.992 175.38 116.305 175.719C115.622 176.052 114.844 176.219 113.969 176.219C112.625 176.219 111.51 175.792 110.625 174.938C109.74 174.083 109.297 173.044 109.297 171.82C109.297 170.997 109.503 170.234 109.914 169.531C110.331 168.823 110.901 168.271 111.625 167.875C112.349 167.479 113.159 167.281 114.055 167.281C114.617 167.281 115.159 167.367 115.68 167.539C116.206 167.711 116.651 167.935 117.016 168.211C117.38 168.487 117.69 168.839 117.945 169.266ZM120.055 167.5H127.188V176H126.094V168.531H121.148V176H120.055V167.5ZM136.789 173.18L137.711 173.664C137.409 174.258 137.06 174.737 136.664 175.102C136.268 175.466 135.823 175.745 135.328 175.938C134.833 176.125 134.273 176.219 133.648 176.219C132.263 176.219 131.18 175.766 130.398 174.859C129.617 173.948 129.227 172.919 129.227 171.773C129.227 170.695 129.557 169.734 130.219 168.891C131.057 167.818 132.18 167.281 133.586 167.281C135.034 167.281 136.19 167.831 137.055 168.93C137.669 169.706 137.982 170.674 137.992 171.836H130.352C130.372 172.826 130.688 173.638 131.297 174.273C131.906 174.904 132.659 175.219 133.555 175.219C133.987 175.219 134.406 175.143 134.812 174.992C135.224 174.841 135.573 174.641 135.859 174.391C136.146 174.141 136.456 173.737 136.789 173.18ZM136.789 170.891C136.643 170.307 136.43 169.841 136.148 169.492C135.872 169.143 135.505 168.862 135.047 168.648C134.589 168.435 134.107 168.328 133.602 168.328C132.768 168.328 132.052 168.596 131.453 169.133C131.016 169.523 130.685 170.109 130.461 170.891H136.789ZM143.844 172.164H141.922C141.052 172.164 140.406 171.94 139.984 171.492C139.568 171.044 139.359 170.422 139.359 169.625V167.5H140.43V169.039C140.43 170.029 140.57 170.643 140.852 170.883C141.133 171.117 141.596 171.234 142.242 171.234H143.844V167.5H144.93V176H143.844V172.164ZM154.523 173.18L155.445 173.664C155.143 174.258 154.794 174.737 154.398 175.102C154.003 175.466 153.557 175.745 153.062 175.938C152.568 176.125 152.008 176.219 151.383 176.219C149.997 176.219 148.914 175.766 148.133 174.859C147.352 173.948 146.961 172.919 146.961 171.773C146.961 170.695 147.292 169.734 147.953 168.891C148.792 167.818 149.914 167.281 151.32 167.281C152.768 167.281 153.924 167.831 154.789 168.93C155.404 169.706 155.716 170.674 155.727 171.836H148.086C148.107 172.826 148.422 173.638 149.031 174.273C149.641 174.904 150.393 175.219 151.289 175.219C151.721 175.219 152.141 175.143 152.547 174.992C152.958 174.841 153.307 174.641 153.594 174.391C153.88 174.141 154.19 173.737 154.523 173.18ZM154.523 170.891C154.378 170.307 154.164 169.841 153.883 169.492C153.607 169.143 153.24 168.862 152.781 168.648C152.323 168.435 151.841 168.328 151.336 168.328C150.503 168.328 149.786 168.596 149.188 169.133C148.75 169.523 148.419 170.109 148.195 170.891H154.523ZM163.812 171.906H158.875V176H157.773V167.5H158.875V170.875H163.812V167.5H164.906V176H163.812V171.906ZM168.445 167.5V173.789L174.688 167.5H174.773V176H173.68V169.766L167.484 176H167.352V167.5H168.445ZM180.797 172.195H180.016L177.594 176H176.414L178.969 172.086C178.333 172.008 177.818 171.768 177.422 171.367C177.026 170.961 176.828 170.458 176.828 169.859C176.828 169.109 177.055 168.529 177.508 168.117C177.966 167.706 178.565 167.5 179.305 167.5H181.891V176H180.797V172.195ZM180.797 168.445H180.078C179.38 168.445 178.911 168.49 178.672 168.578C178.432 168.667 178.242 168.82 178.102 169.039C177.961 169.253 177.891 169.542 177.891 169.906C177.891 170.255 177.982 170.544 178.164 170.773C178.346 170.997 178.549 171.135 178.773 171.188C178.997 171.24 179.432 171.266 180.078 171.266H180.797V168.445Z" fill="#121212"/>
<path fill-rule="evenodd" clip-rule="evenodd" d="M127.848 0.103629C121.723 0.647846 117.545 1.46854 112.694 3.07937C99.5255 7.45261 87.4765 17.6703 81.3802 29.6338L80.3111 31.7316L81.1529 31.4857C85.379 30.2512 91.4528 30.0217 95.0097 30.9625C100.43 32.3957 103.804 35.7858 105.398 41.3981C105.957 43.364 105.99 44.0612 106.179 57.699C106.287 65.5349 106.462 72.4406 106.566 73.0446L106.756 74.143L103.128 74.0714L99.4999 73.9998L99.281 71.6894C99.1605 70.4187 99.0127 69.223 98.9526 69.0325C98.8831 68.813 98.4068 69.1627 97.6538 69.9854C95.0944 72.7825 91.0023 74.7163 86.9435 75.0471C84.5241 75.2443 81.5033 74.8495 79.8134 74.1151C79.1725 73.8365 78.6076 73.6481 78.5583 73.6969C78.2719 73.9782 81.6909 81.0012 83.5099 83.8676C88.7614 92.143 96.6539 99.3567 105.16 103.657C106.549 104.359 107.765 104.933 107.862 104.933C107.959 104.933 107.999 88.3561 107.95 68.0956L107.861 31.2582H111.297H114.734L114.91 34.0178C115.007 35.5355 115.107 37.1527 115.131 37.6112C115.156 38.0697 115.235 38.4422 115.307 38.4386C115.379 38.435 115.731 37.9598 116.091 37.3822C117.529 35.0701 121.13 32.4139 124.321 31.3111C127.13 30.3403 131.954 30.0635 134.641 30.7194C139.925 32.0089 144.245 35.5337 146.772 40.6154C148.448 43.9852 149.043 46.5435 149.202 51.0554C149.507 59.6782 146.825 66.6254 141.546 70.8862C139.805 72.2919 136.025 74.1528 133.857 74.6719C131.741 75.1786 126.528 75.098 124.582 74.5289C121.311 73.5719 118.779 71.9243 116.675 69.3847L115.829 68.3636V88.1671V107.97L118.165 108.509C128.077 110.796 138.245 110.449 148.051 107.49L150.88 106.636L150.795 68.947L150.709 31.2582H154.147H157.586L157.748 33.3761C157.837 34.5407 157.936 36.1572 157.967 36.9682C158.029 38.5636 158.18 38.7743 158.606 37.8574C159.068 36.8603 161.566 34.3474 163.1 33.3373C166.172 31.3134 169.501 30.3757 173.57 30.388C176.563 30.397 178.807 30.8652 180.933 31.9234C181.625 32.2681 182.192 32.4881 182.192 32.4121C182.192 32.3359 181.72 31.3517 181.144 30.2247C173.237 14.7739 157.96 3.72601 140.52 0.846023C136.154 0.125193 131.001 -0.176693 127.848 0.103629ZM86.3057 36.3123C83.8649 36.4927 79.8552 37.6987 77.8651 38.8511C77.0335 39.3324 75.5724 46.1883 75.1886 51.4097L75 53.9767L76.2037 52.8873C80.3406 49.1432 86.4709 47.2346 95.695 46.8192L98.1604 46.7081L98.0943 45.2084C97.8638 39.9891 95.3755 37.0819 90.5522 36.3965C89.5818 36.2586 88.4939 36.1636 88.1346 36.1857C87.7754 36.2075 86.9524 36.2645 86.3057 36.3123ZM125.584 37.0144C122.336 37.7883 119.272 40.1305 117.688 43.0511C117.244 43.8687 116.634 45.5593 116.333 46.8082C115.848 48.8128 115.796 49.6664 115.887 54.0948C116.008 59.9852 116.38 61.4623 118.401 64.0681C119.907 66.0106 121.45 67.1688 123.712 68.0547C125.188 68.6328 125.852 68.7373 128.047 68.7373C134.457 68.7373 138.424 65.4813 140.439 58.5671C140.93 56.8785 141.029 55.9066 141.035 52.6932C141.043 48.4167 140.596 46.2694 139.088 43.3342C138.101 41.414 135.832 39.0023 134.182 38.1197C131.683 36.7836 128.351 36.3551 125.584 37.0144ZM168.465 37.0072C166.249 37.536 164.637 38.4627 162.785 40.2714C160.871 42.141 159.852 43.9832 159.178 46.789C158.61 49.1548 158.678 58.3923 159.276 60.266C160.332 63.568 162.554 66.1176 165.72 67.6604C167.665 68.6079 167.67 68.609 171.076 68.6082C174.354 68.6074 174.551 68.5764 176.225 67.8003C181.194 65.4961 184.021 59.9713 184.021 52.5648C184.021 49.2469 183.453 46.561 182.187 43.8979C179.548 38.3477 174.168 35.6459 168.465 37.0072ZM91.857 52.5913C86.2211 53.2354 82.5426 55.1581 80.8765 58.3305C80.2926 59.4422 80.1972 59.9492 80.1972 61.9346C80.1972 63.9323 80.291 64.4239 80.8909 65.5667C82.4917 68.6159 85.7897 69.8432 90.016 68.9622C93.0703 68.3253 96.0477 66.0976 97.4307 63.4148C98.1813 61.9582 98.1949 61.8579 98.2748 57.1214L98.3558 52.3081L96.054 52.3415C94.7879 52.3597 92.8992 52.4722 91.857 52.5913ZM158.678 85.6881C158.678 95.1431 158.74 102.879 158.815 102.879C159.11 102.879 162.591 100.64 164.948 98.9334C168.194 96.5843 173.981 90.851 176.419 87.568C178.722 84.4683 181.097 80.4867 182.47 77.4263C183.561 74.994 185.129 70.7673 184.992 70.6318C184.944 70.5851 184.322 70.9771 183.609 71.5031C181.906 72.7602 179.336 73.981 177.228 74.534C175.09 75.0949 170.11 75.1711 168.084 74.6736C165.071 73.9336 162.916 72.7232 160.727 70.5407L158.678 68.497V85.6881Z" fill="#52598B"/>
</svg>
