<svg width="79" height="62" viewBox="0 0 79 62" fill="none" xmlns="http://www.w3.org/2000/svg">
<circle cx="35" cy="31" r="29.5" stroke="#00216A" stroke-width="3"/>
<path d="M1.88211 17.6363C1.90765 16.5694 3.64969 15.3428 5.13878 15.3428H11.5H19.9531C29.4281 15.3428 32.5255 15.8562 34.5861 17.769C39.2367 22.085 36.546 28.5904 28.5075 32.4656C26.6793 33.3467 25.1046 34.1225 25.0079 34.1891C24.9112 34.2557 25.2779 35.1703 25.8223 36.2212C26.3668 37.2725 27.2348 39.0877 27.7512 40.2557L28.6898 42.3784L32.822 42.3844C37.3114 42.3904 37.7506 42.73 35.8653 44.737C34.8431 45.8249 34.4038 45.896 28.6983 45.896C24.6062 45.896 22.3528 45.6917 21.8018 45.2699C21.0215 44.6729 16.4184 35.3812 16.4184 34.4025C16.4184 34.145 16.2191 33.811 15.9752 33.6602C15.7317 33.5099 14.6909 36.0323 13.6626 39.2655C12.6343 42.4991 11.3606 45.7386 11 46.0001C8 46.0001 6.45708 45.9146 4.96498 45.906C3.45034 45.897 3.3136 45.7813 3.62164 44.7691C4.64793 41.3962 5.12556 39.3712 6 37.0001L8.42251 29.9933L10.4706 23.8576H14.6328H18.7951L17.3416 28.1837C16.5417 30.5628 15.9581 32.5803 16.0448 32.6665C16.1309 32.7526 18.1099 32.0554 20.442 31.1163C25.327 29.1503 26.9303 27.5811 26.9343 24.7627C26.9363 23.4168 26.6332 22.7001 25.8233 22.1331C24.9233 21.5025 23.1021 21.3532 16.3067 21.3532H8H2.14356C-0.37783 21.3532 -0.510061 21.1414 0.891382 19.3498C1.43032 18.6611 1.8761 17.8897 1.88211 17.6363Z" fill="#78B6F4"/>
<path d="M42.2451 30.358C44.6017 29.5802 47.2824 27.1955 48.514 24.7813C49.4486 22.9491 49.6144 22.8555 51.9129 22.8555H54.3297L53.3459 25.7355C52.8045 27.3197 52.1794 29.2351 51.956 29.9929L51.5498 31.3703H58.7899H67.0001V34.8794H59.6815C50.5741 34.8754 50.2445 34.9676 49.2323 37.8105C47.4632 42.7797 47.1056 42.3895 53.4246 42.3895C56.4874 42.3895 58.9928 42.5899 58.9928 42.8348C58.9928 43.0797 58.5625 43.8125 58.0366 44.4626C57.119 45.5971 56.7694 45.6517 49.4532 45.8075C45.2583 45.8966 41.2934 45.836 40.6428 45.6727C39.1367 45.2946 39.0881 43.6612 40.454 39.3036C41.7202 35.2646 41.7342 35.3773 39.9596 35.3773C38.18 35.3773 38.18 35.3788 39.4472 32.8955C40.163 31.493 40.9383 30.7893 42.2451 30.358Z" fill="#00216A"/>
<circle cx="72" cy="33" r="6" fill="#78B6F4" stroke="white" stroke-width="2"/>
</svg>
