<svg width="480" height="1173" viewBox="0 0 480 1173" fill="none" xmlns="http://www.w3.org/2000/svg">
<path d="M92.3613 372.202C195.965 372.202 295.326 419.194 368.584 502.84C441.843 586.486 483 699.934 483 818.228C482.015 948.297 419.23 1109.59 321.224 1171.74" stroke="#52598B" stroke-linecap="round" stroke-dasharray="12.49 16.65"/>
<path d="M-360.613 0.999939C-368.285 95.1692 -324.224 176.26 -267.589 251.023C-177.903 353.424 -34.4727 372.202 92.3613 372.202" stroke="#52598B" stroke-linecap="round" stroke-dasharray="15.29 20.39"/>
<g filter="url(#filter0_ddf_833_966)">
<circle cx="463" cy="949" r="6" fill="#78B6F4"/>
<circle cx="463" cy="949" r="3" stroke="#78B6F4" stroke-width="6"/>
</g>
<g filter="url(#filter1_ddf_833_966)">
<circle cx="433" cy="1034" r="6" fill="#78B6F4"/>
<circle cx="433" cy="1034" r="3" stroke="#78B6F4" stroke-width="6"/>
</g>
<g filter="url(#filter2_ddf_833_966)">
<circle cx="371" cy="1129" r="6" fill="#78B6F4"/>
<circle cx="371" cy="1129" r="3" stroke="#78B6F4" stroke-width="6"/>
</g>
<g opacity="0.6" filter="url(#filter3_ddf_833_966)">
<circle r="12" transform="matrix(-1 0 0 1 60 359)" fill="white"/>
<circle r="8.5" transform="matrix(-1 0 0 1 60 359)" stroke="#78B6F4" stroke-width="7"/>
</g>
<g opacity="0.5" filter="url(#filter4_ddf_833_966)">
<circle r="25" transform="matrix(-1 0 0 1 59.5 358.5)" stroke="#78B6F4" stroke-width="3" shape-rendering="crispEdges"/>
</g>
<path d="M87.8092 351.042H88.7135C89.136 351.042 89.4791 351.377 89.4812 351.792L89.6348 354.779C89.6323 355.067 89.3957 355.299 89.1028 355.302H88.3466L87.8092 351.042Z" fill="#93C0FA" fill-opacity="0.33"/>
<g filter="url(#filter5_f_833_966)">
<path d="M31.4279 348.122H82.2414C83.3662 348.122 84.2873 348.885 85.0258 350.024L85.2989 350.467C85.3442 350.548 85.3902 350.627 85.4242 350.694L85.6399 351.14C87.1819 354.342 87.7409 357.752 87.8668 358.692C87.8842 358.821 87.8963 358.952 87.9031 359.083C87.9144 359.296 87.9347 359.674 87.9498 359.96C87.9634 360.215 87.9574 360.47 87.9317 360.723L87.8947 361.082C88.281 361.253 89.0263 361.708 89.0263 362.46V363.849C89.0275 363.905 89.0072 363.959 88.9697 364.001L88.8189 364.388V365.413C88.8189 366.153 88.3527 366.471 87.8299 366.495C87.7962 366.5 87.7617 366.5 87.728 366.495H77.6374C77.6337 366.427 77.6178 366.071 77.5552 365.626H69.0209C68.9576 366.071 68.9455 366.427 68.9387 366.495H49.8484C49.8446 366.427 49.8295 366.071 49.7669 365.626H35.1229C35.0666 365.913 35.026 366.203 35.0014 366.495H30.46C30.3408 366.495 30.244 366.398 30.2435 366.278V349.317C30.2389 349 30.3619 348.695 30.5847 348.47C30.8076 348.245 31.1115 348.119 31.4279 348.122Z" fill="#93C0FA" fill-opacity="0.33"/>
</g>
<path d="M59.8176 365.525C59.9521 365.525 60.061 365.405 60.061 365.258V362.02C60.061 361.872 59.9521 361.752 59.8176 361.752C59.6832 361.752 59.5742 361.872 59.5742 362.02V365.258C59.5742 365.405 59.6832 365.525 59.8176 365.525Z" fill="#00216A"/>
<path d="M66.2678 365.525C66.4023 365.525 66.5112 365.405 66.5112 365.258V362.02C66.5112 361.872 66.4023 361.752 66.2678 361.752C66.1334 361.752 66.0244 361.872 66.0244 362.02V365.258C66.0244 365.405 66.1334 365.525 66.2678 365.525Z" fill="#00216A"/>
<path d="M75.9417 363.821C76.9692 365.129 76.7998 366.98 75.5507 368.093C74.3016 369.205 72.3837 369.214 71.1244 368.112C69.8652 367.01 69.6789 365.161 70.6944 363.844" fill="#93C0FA" fill-opacity="0.33"/>
<path d="M73.3891 369.055C74.7062 369.055 75.9098 368.319 76.495 367.156C77.0803 365.992 76.946 364.601 76.1486 363.567C76.0929 363.489 75.9986 363.447 75.9025 363.458C75.8065 363.469 75.724 363.53 75.6874 363.618C75.6508 363.707 75.6659 363.808 75.7267 363.882C76.6468 365.073 76.496 366.759 75.3788 367.773C74.2617 368.787 72.5456 368.795 71.4189 367.791C70.2922 366.788 70.1255 365.103 71.0342 363.903C71.0909 363.829 71.103 363.73 71.0658 363.644C71.0287 363.558 70.948 363.499 70.8541 363.488C70.7603 363.476 70.6675 363.515 70.6108 363.59C69.8234 364.626 69.6978 366.013 70.2863 367.17C70.8749 368.328 72.0764 369.058 73.3891 369.055Z" fill="#00216A"/>
<path d="M34.5232 360.292H69.4116C69.5572 360.292 69.6753 360.183 69.6753 360.049C69.6753 359.914 69.5572 359.805 69.4116 359.805H34.5232C34.3775 359.805 34.2595 359.914 34.2595 360.049C34.2595 360.183 34.3775 360.292 34.5232 360.292Z" fill="#00216A"/>
<path d="M30.0003 349.471C29.9925 349.084 30.1411 348.711 30.4122 348.436C30.685 348.156 31.059 347.999 31.449 348H82.3522C83.4782 348 84.4916 348.683 85.3667 350.036L85.6403 350.483L85.6456 350.491C85.6917 350.573 85.7393 350.657 85.7778 350.734L85.8632 350.909H88.8324C89.3907 350.91 89.8443 351.362 89.8489 351.922L90 354.923V354.94C89.9943 355.375 89.6448 355.726 89.2118 355.732H88.4674C88.3339 355.733 88.2213 355.633 88.2052 355.499L87.85 352.58H87.1427C86.9966 352.58 86.8782 352.461 86.8782 352.315C86.8782 352.168 86.9966 352.049 87.1427 352.049H87.7843L87.7087 351.442H86.1172C87.6407 354.735 88.1576 358.175 88.2498 358.846C88.2679 358.982 88.2808 359.121 88.2883 359.261L88.3352 360.142C88.3494 360.411 88.3428 360.68 88.3155 360.948L88.2974 361.125C88.6979 361.337 89.4158 361.834 89.4158 362.666V364.061C89.4158 364.163 89.3844 364.262 89.3259 364.345L89.2095 364.648V365.629C89.2095 366.407 88.7327 366.935 87.9921 366.979C87.9672 366.984 87.9419 366.986 87.9165 366.986C87.8953 366.986 87.8741 366.984 87.853 366.981H77.7401C77.5996 366.981 77.4836 366.871 77.4756 366.73V366.704C77.4643 366.483 77.4469 366.276 77.4257 366.085H76.5944C76.4484 366.085 76.3299 365.966 76.3299 365.819C76.3299 365.672 76.4484 365.554 76.5944 365.554H77.3456C77.1348 364.388 76.7305 363.946 76.3927 363.946H70.3681C69.883 363.946 69.5807 364.678 69.4197 365.554H70.0908C70.2369 365.554 70.3553 365.672 70.3553 365.819C70.3553 365.966 70.2369 366.085 70.0908 366.085H69.3479C69.3245 366.292 69.3071 366.501 69.2965 366.704V366.725C69.2885 366.866 69.1725 366.976 69.032 366.977H49.908C49.7676 366.976 49.6519 366.866 49.6443 366.725V366.704C49.54 364.669 48.9981 363.946 48.5659 363.946H44.1631C43.7165 363.946 43.4459 364.072 43.2933 364.735C43.2658 364.855 43.1589 364.941 43.0356 364.941H42.0101C41.8881 364.941 41.782 364.857 41.7531 364.738C41.5891 364.068 41.3269 363.946 40.8712 363.946H36.5334C35.7203 363.946 35.3401 366.014 35.3008 366.726C35.2925 366.867 35.1766 366.976 35.0364 366.977H30.487C30.2214 366.977 30.006 366.761 30.0056 366.494L30.0003 349.471ZM88.7047 355.197H89.2156C89.3559 355.193 89.4693 355.081 89.4748 354.94L89.3236 351.941V351.928C89.3204 351.659 89.104 351.441 88.8362 351.438H88.2415L88.7047 355.197ZM87.8069 360.169L87.7601 359.287C87.7533 359.161 87.7419 359.036 87.7253 358.916C87.6346 358.241 87.1026 354.709 85.5186 351.413L85.4635 351.299C85.4589 351.29 85.4544 351.281 85.4506 351.272L85.304 350.968C85.2738 350.908 85.2284 350.832 85.1876 350.757L84.9201 350.319C84.7739 350.093 84.6134 349.875 84.4395 349.669C84.1614 349.905 83.7284 350.037 83.42 350.105C84.5173 353.031 84.6163 358.564 84.6208 358.811C84.6208 359.314 84.741 360.958 86.2879 360.958H87.7827L87.7895 360.893C87.8138 360.652 87.8197 360.41 87.8069 360.169ZM88.8475 364.115C88.8572 364.09 88.8704 364.067 88.8868 364.046V362.915C88.5215 362.971 88.2388 363.266 88.1954 363.635C88.1521 364.003 88.3588 364.356 88.7009 364.496L88.8475 364.115ZM30.5293 361.707H31.2472V358.692L30.5293 358.184V361.707ZM30.5293 357.537L31.6629 358.34C31.7331 358.39 31.7749 358.471 31.7747 358.557V361.973C31.7747 362.119 31.6563 362.238 31.5102 362.238H30.5278V366.45H34.7892C34.7998 366.363 34.8134 366.256 34.8316 366.135H33.9353C33.7892 366.135 33.6708 366.016 33.6708 365.869C33.6708 365.723 33.7892 365.604 33.9353 365.604H34.9283C35.1338 364.65 35.5812 363.419 36.5266 363.419H40.8644C41.5717 363.419 41.9813 363.719 42.2035 364.414H42.8262C43.0386 363.731 43.4557 363.419 44.1563 363.419H48.5606C49.7697 363.419 50.072 365.383 50.1529 366.45H68.7796C68.8552 365.383 69.1665 363.419 70.3719 363.419H76.3964C77.601 363.419 77.9079 365.383 77.9887 366.45H85.5904V362.573C85.5904 362.426 85.7088 362.307 85.8549 362.307C86.001 362.307 86.1194 362.426 86.1194 362.573V366.448H87.85C87.8695 366.448 87.8889 366.449 87.9082 366.451L87.9407 366.448C88.2165 366.436 88.6783 366.313 88.6783 365.627V365.047C88.0489 364.887 87.6215 364.3 87.6603 363.65C87.6991 362.999 88.1932 362.468 88.837 362.385C88.6692 361.898 88.1009 361.61 87.9067 361.524C87.8866 361.515 87.8678 361.503 87.8508 361.489H86.2857C85.3577 361.489 84.6707 361.007 84.3299 360.174H79.2168V363.947C79.2168 364.094 79.0983 364.212 78.9523 364.212C78.8062 364.212 78.6878 364.094 78.6878 363.947V360.061L72.0556 358.052C69.9815 357.533 67.8519 357.271 65.7145 357.272H44.9437H44.918L31.8223 355.982C31.6868 355.969 31.5833 355.855 31.5835 355.718V349.919C31.5831 349.849 31.6108 349.781 31.6605 349.731C31.7102 349.681 31.7777 349.653 31.848 349.654L81.6909 349.72C81.837 349.72 81.9555 349.839 81.9555 349.985C81.9555 350.132 81.837 350.251 81.6909 350.251L78.1467 350.247C78.9999 352.296 79.1835 358.338 79.2137 359.65H84.1719C84.117 359.377 84.0902 359.1 84.0919 358.821C84.0919 358.761 83.983 352.743 82.8071 350.017C82.7742 349.941 82.7788 349.853 82.8197 349.781C82.8605 349.709 82.9328 349.659 83.015 349.649C83.3581 349.602 83.8462 349.463 84.073 349.296C83.5334 348.795 82.9575 348.54 82.3514 348.54H31.4482C31.2001 348.539 30.9621 348.639 30.7885 348.817C30.617 348.993 30.5233 349.23 30.5285 349.475L30.5293 357.537ZM78.681 359.503C78.6628 358.812 78.6122 357.28 78.4905 355.644C78.2283 352.108 77.8459 350.75 77.5617 350.239L67.5508 350.225V356.802C69.1158 356.908 70.6682 357.154 72.1901 357.535H72.2022L78.681 359.503ZM67.0218 356.771V350.225L56.2907 350.211V356.738H65.7145C66.1503 356.738 66.586 356.749 67.0218 356.77V356.771ZM55.7617 356.739V350.212L45.2105 350.197V356.74L55.7617 356.739ZM44.6815 356.712V350.195L32.1148 350.179V355.471L44.6815 356.712Z" fill="#00216A"/>
<path d="M73.3258 363.7C74.1626 363.699 74.9173 364.203 75.2377 364.976C75.5582 365.749 75.3814 366.639 74.7897 367.231C74.1981 367.823 73.3081 368 72.5349 367.68C71.7617 367.36 71.2576 366.606 71.2576 365.769C71.2588 364.627 72.1839 363.701 73.3258 363.7ZM73.9174 367.189C73.8873 366.965 73.9642 366.74 74.1252 366.582C74.2861 366.423 74.5122 366.35 74.7356 366.383C74.9054 365.995 74.9073 365.554 74.7409 365.165C74.7066 365.17 74.6719 365.173 74.6371 365.173H74.6227C74.4306 365.172 74.2471 365.094 74.1136 364.956C73.9661 364.79 73.8957 364.57 73.9197 364.35C73.7317 364.27 73.5298 364.23 73.3258 364.23C73.1143 364.23 72.9052 364.274 72.7114 364.359C72.7313 364.573 72.6603 364.785 72.5159 364.944C72.3845 365.082 72.203 365.16 72.0129 365.162H72C71.9719 365.162 71.9438 365.16 71.9159 365.156C71.7452 365.547 71.7452 365.991 71.9159 366.382C72.1262 366.366 72.3338 366.438 72.4901 366.579C72.6277 366.71 72.7062 366.892 72.7076 367.082C72.7082 367.112 72.7067 367.143 72.703 367.174C73.0878 367.346 73.5262 367.351 73.9151 367.189H73.9174Z" fill="#00216A"/>
<path d="M42.0821 365.89H42.8673C43.0201 365.89 43.144 365.781 43.144 365.647C43.144 365.512 43.0201 365.403 42.8673 365.403H42.0821C41.9292 365.403 41.8053 365.512 41.8053 365.647C41.8053 365.781 41.9292 365.89 42.0821 365.89Z" fill="#00216A"/>
<path d="M48.6968 363.833C49.7118 365.151 49.5275 367.002 48.2713 368.107C47.0151 369.212 45.0992 369.208 43.8481 368.097C42.5969 366.987 42.4211 365.135 43.4421 363.821" fill="#93C0FA" fill-opacity="0.33"/>
<path d="M46.1349 369.055C47.4464 369.05 48.6431 368.315 49.2288 367.156C49.8144 365.997 49.689 364.611 48.9046 363.572C48.8477 363.497 48.7548 363.458 48.6607 363.469C48.5666 363.481 48.4857 363.541 48.4485 363.627C48.4113 363.713 48.4234 363.812 48.4802 363.887C49.1917 364.828 49.2593 366.1 48.6514 367.11C48.0436 368.119 46.8799 368.668 45.7029 368.5C44.6737 368.353 43.7995 367.681 43.404 366.731C43.0084 365.781 43.1504 364.695 43.7774 363.875C43.8652 363.76 43.8415 363.596 43.7243 363.509C43.6071 363.422 43.4409 363.445 43.353 363.561C42.5624 364.602 42.4351 365.994 43.0243 367.158C43.6135 368.321 44.8178 369.056 46.1349 369.055Z" fill="#00216A"/>
<path d="M46.0648 363.7C47.2075 363.7 48.1338 364.626 48.1338 365.769C48.1338 366.911 47.2075 367.838 46.0648 367.838C44.9222 367.838 43.9959 366.911 43.9959 365.769C43.9971 364.627 44.9227 363.701 46.0648 363.7ZM46.6557 367.189C46.6296 366.998 46.6816 366.805 46.7998 366.653C46.918 366.501 47.0925 366.403 47.2838 366.382C47.3469 366.373 47.4109 366.373 47.4739 366.382C47.6438 365.994 47.6457 365.553 47.4792 365.163C47.4479 365.168 47.4162 365.171 47.3845 365.171C47.0175 365.176 46.7065 364.902 46.6663 364.537C46.6582 364.475 46.6582 364.413 46.6663 364.351C46.2773 364.186 45.8371 364.188 45.4497 364.357C45.4696 364.571 45.3986 364.784 45.2542 364.943C45.1225 365.08 44.9413 365.158 44.7512 365.16H44.7383C44.7102 365.16 44.6821 365.158 44.6542 365.154C44.4835 365.545 44.4835 365.99 44.6542 366.381C44.8647 366.365 45.0725 366.436 45.2292 366.578C45.3662 366.709 45.4443 366.89 45.4459 367.08C45.4465 367.111 45.445 367.142 45.4413 367.172C45.8261 367.344 46.2646 367.35 46.6535 367.188L46.6557 367.189Z" fill="#00216A"/>
<path d="M53.1238 365.525C53.1884 365.525 53.2504 365.497 53.2961 365.447C53.3418 365.397 53.3674 365.329 53.3672 365.258V362.02C53.3672 361.872 53.2582 361.752 53.1238 361.752C52.9893 361.752 52.8804 361.872 52.8804 362.02V365.258C52.8804 365.405 52.9893 365.525 53.1238 365.525Z" fill="#00216A"/>
<defs>
<filter id="filter0_ddf_833_966" x="450" y="936" width="26" height="26" filterUnits="userSpaceOnUse" color-interpolation-filters="sRGB">
<feFlood flood-opacity="0" result="BackgroundImageFix"/>
<feColorMatrix in="SourceAlpha" type="matrix" values="0 0 0 0 0 0 0 0 0 0 0 0 0 0 0 0 0 0 127 0" result="hardAlpha"/>
<feOffset dx="2" dy="2"/>
<feGaussianBlur stdDeviation="2.5"/>
<feComposite in2="hardAlpha" operator="out"/>
<feColorMatrix type="matrix" values="0 0 0 0 1 0 0 0 0 1 0 0 0 0 1 0 0 0 0.26 0"/>
<feBlend mode="normal" in2="BackgroundImageFix" result="effect1_dropShadow_833_966"/>
<feColorMatrix in="SourceAlpha" type="matrix" values="0 0 0 0 0 0 0 0 0 0 0 0 0 0 0 0 0 0 127 0" result="hardAlpha"/>
<feOffset dx="-2" dy="-2"/>
<feGaussianBlur stdDeviation="2.5"/>
<feComposite in2="hardAlpha" operator="out"/>
<feColorMatrix type="matrix" values="0 0 0 0 1 0 0 0 0 1 0 0 0 0 1 0 0 0 0.25 0"/>
<feBlend mode="normal" in2="effect1_dropShadow_833_966" result="effect2_dropShadow_833_966"/>
<feBlend mode="normal" in="SourceGraphic" in2="effect2_dropShadow_833_966" result="shape"/>
<feGaussianBlur stdDeviation="1" result="effect3_foregroundBlur_833_966"/>
</filter>
<filter id="filter1_ddf_833_966" x="420" y="1021" width="26" height="26" filterUnits="userSpaceOnUse" color-interpolation-filters="sRGB">
<feFlood flood-opacity="0" result="BackgroundImageFix"/>
<feColorMatrix in="SourceAlpha" type="matrix" values="0 0 0 0 0 0 0 0 0 0 0 0 0 0 0 0 0 0 127 0" result="hardAlpha"/>
<feOffset dx="2" dy="2"/>
<feGaussianBlur stdDeviation="2.5"/>
<feComposite in2="hardAlpha" operator="out"/>
<feColorMatrix type="matrix" values="0 0 0 0 1 0 0 0 0 1 0 0 0 0 1 0 0 0 0.26 0"/>
<feBlend mode="normal" in2="BackgroundImageFix" result="effect1_dropShadow_833_966"/>
<feColorMatrix in="SourceAlpha" type="matrix" values="0 0 0 0 0 0 0 0 0 0 0 0 0 0 0 0 0 0 127 0" result="hardAlpha"/>
<feOffset dx="-2" dy="-2"/>
<feGaussianBlur stdDeviation="2.5"/>
<feComposite in2="hardAlpha" operator="out"/>
<feColorMatrix type="matrix" values="0 0 0 0 1 0 0 0 0 1 0 0 0 0 1 0 0 0 0.25 0"/>
<feBlend mode="normal" in2="effect1_dropShadow_833_966" result="effect2_dropShadow_833_966"/>
<feBlend mode="normal" in="SourceGraphic" in2="effect2_dropShadow_833_966" result="shape"/>
<feGaussianBlur stdDeviation="1" result="effect3_foregroundBlur_833_966"/>
</filter>
<filter id="filter2_ddf_833_966" x="358" y="1116" width="26" height="26" filterUnits="userSpaceOnUse" color-interpolation-filters="sRGB">
<feFlood flood-opacity="0" result="BackgroundImageFix"/>
<feColorMatrix in="SourceAlpha" type="matrix" values="0 0 0 0 0 0 0 0 0 0 0 0 0 0 0 0 0 0 127 0" result="hardAlpha"/>
<feOffset dx="2" dy="2"/>
<feGaussianBlur stdDeviation="2.5"/>
<feComposite in2="hardAlpha" operator="out"/>
<feColorMatrix type="matrix" values="0 0 0 0 1 0 0 0 0 1 0 0 0 0 1 0 0 0 0.26 0"/>
<feBlend mode="normal" in2="BackgroundImageFix" result="effect1_dropShadow_833_966"/>
<feColorMatrix in="SourceAlpha" type="matrix" values="0 0 0 0 0 0 0 0 0 0 0 0 0 0 0 0 0 0 127 0" result="hardAlpha"/>
<feOffset dx="-2" dy="-2"/>
<feGaussianBlur stdDeviation="2.5"/>
<feComposite in2="hardAlpha" operator="out"/>
<feColorMatrix type="matrix" values="0 0 0 0 1 0 0 0 0 1 0 0 0 0 1 0 0 0 0.25 0"/>
<feBlend mode="normal" in2="effect1_dropShadow_833_966" result="effect2_dropShadow_833_966"/>
<feBlend mode="normal" in="SourceGraphic" in2="effect2_dropShadow_833_966" result="shape"/>
<feGaussianBlur stdDeviation="1" result="effect3_foregroundBlur_833_966"/>
</filter>
<filter id="filter3_ddf_833_966" x="32.5417" y="331.542" width="54.9167" height="54.9167" filterUnits="userSpaceOnUse" color-interpolation-filters="sRGB">
<feFlood flood-opacity="0" result="BackgroundImageFix"/>
<feColorMatrix in="SourceAlpha" type="matrix" values="0 0 0 0 0 0 0 0 0 0 0 0 0 0 0 0 0 0 127 0" result="hardAlpha"/>
<feOffset dx="4.41667" dy="4.41667"/>
<feGaussianBlur stdDeviation="5.52083"/>
<feComposite in2="hardAlpha" operator="out"/>
<feColorMatrix type="matrix" values="0 0 0 0 1 0 0 0 0 1 0 0 0 0 1 0 0 0 0.2 0"/>
<feBlend mode="normal" in2="BackgroundImageFix" result="effect1_dropShadow_833_966"/>
<feColorMatrix in="SourceAlpha" type="matrix" values="0 0 0 0 0 0 0 0 0 0 0 0 0 0 0 0 0 0 127 0" result="hardAlpha"/>
<feOffset dx="-4.41667" dy="-4.41667"/>
<feGaussianBlur stdDeviation="5.52083"/>
<feComposite in2="hardAlpha" operator="out"/>
<feColorMatrix type="matrix" values="0 0 0 0 1 0 0 0 0 1 0 0 0 0 1 0 0 0 0.2 0"/>
<feBlend mode="normal" in2="effect1_dropShadow_833_966" result="effect2_dropShadow_833_966"/>
<feBlend mode="normal" in="SourceGraphic" in2="effect2_dropShadow_833_966" result="shape"/>
<feGaussianBlur stdDeviation="3" result="effect3_foregroundBlur_833_966"/>
</filter>
<filter id="filter4_ddf_833_966" x="-1.13715" y="297.863" width="121.274" height="121.274" filterUnits="userSpaceOnUse" color-interpolation-filters="sRGB">
<feFlood flood-opacity="0" result="BackgroundImageFix"/>
<feColorMatrix in="SourceAlpha" type="matrix" values="0 0 0 0 0 0 0 0 0 0 0 0 0 0 0 0 0 0 127 0" result="hardAlpha"/>
<feOffset dx="9.75347" dy="9.75347"/>
<feGaussianBlur stdDeviation="12.1918"/>
<feComposite in2="hardAlpha" operator="out"/>
<feColorMatrix type="matrix" values="0 0 0 0 1 0 0 0 0 1 0 0 0 0 1 0 0 0 0.2 0"/>
<feBlend mode="normal" in2="BackgroundImageFix" result="effect1_dropShadow_833_966"/>
<feColorMatrix in="SourceAlpha" type="matrix" values="0 0 0 0 0 0 0 0 0 0 0 0 0 0 0 0 0 0 127 0" result="hardAlpha"/>
<feOffset dx="-9.75347" dy="-9.75347"/>
<feGaussianBlur stdDeviation="12.1918"/>
<feComposite in2="hardAlpha" operator="out"/>
<feColorMatrix type="matrix" values="0 0 0 0 1 0 0 0 0 1 0 0 0 0 1 0 0 0 0.2 0"/>
<feBlend mode="normal" in2="effect1_dropShadow_833_966" result="effect2_dropShadow_833_966"/>
<feBlend mode="normal" in="SourceGraphic" in2="effect2_dropShadow_833_966" result="shape"/>
<feGaussianBlur stdDeviation="4" result="effect3_foregroundBlur_833_966"/>
</filter>
<filter id="filter5_f_833_966" x="28.2437" y="346.122" width="62.7827" height="22.3772" filterUnits="userSpaceOnUse" color-interpolation-filters="sRGB">
<feFlood flood-opacity="0" result="BackgroundImageFix"/>
<feBlend mode="normal" in="SourceGraphic" in2="BackgroundImageFix" result="shape"/>
<feGaussianBlur stdDeviation="1" result="effect1_foregroundBlur_833_966"/>
</filter>
</defs>
</svg>
